SplineFontDB: 3.2
FontName: FogSans
FullName: Fog Sans
FamilyName: Fog Sans
Weight: Bold
Copyright: Font software Copyright (c) 2012 Intel Corporation. Licensed under the Apache License, Version 2.0.  http://www.apache.org/licenses/LICENSE-2.0
Version: 1.00
ItalicAngle: 0
UnderlinePosition: -147
UnderlineWidth: 49
Ascent: 727
Descent: 273
InvalidEm: 0
sfntRevision: 0x00010000
LayerCount: 2
Layer: 0 1 "Back" 1
Layer: 1 1 "Fore" 0
XUID: [1021 864 -1453851528 14698253]
StyleMap: 0x0000
FSType: 0
OS2Version: 3
OS2_WeightWidthSlopeOnly: 0
OS2_UseTypoMetrics: 0
CreationTime: 1346338579
ModificationTime: 1666886801
PfmFamily: 17
TTFWeight: 700
TTFWidth: 5
LineGap: 0
VLineGap: 0
Panose: 2 11 8 3 3 2 2 2 3 4
OS2TypoAscent: 727
OS2TypoAOffset: 0
OS2TypoDescent: -273
OS2TypoDOffset: 0
OS2TypoLinegap: 200
OS2WinAscent: 1077
OS2WinAOffset: 0
OS2WinDescent: 275
OS2WinDOffset: 0
HheadAscent: 1077
HheadAOffset: 0
HheadDescent: -275
HheadDOffset: 0
OS2SubXSize: 700
OS2SubYSize: 650
OS2SubXOff: 0
OS2SubYOff: 140
OS2SupXSize: 700
OS2SupYSize: 650
OS2SupXOff: 0
OS2SupYOff: 477
OS2StrikeYSize: 50
OS2StrikeYPos: 250
OS2CapHeight: 1384
OS2XHeight: 1049
OS2Vendor: 'MONO'
OS2CodePages: 2000019f.dfd70000
OS2UnicodeRanges: a00002ef.500078fb.00000008.00000000
Lookup: 1 0 0 "'rtla' Right to Left Alternates lookup 0" { "'rtla' Right to Left Alternates lookup 0 subtable"  } ['rtla' ('DFLT' <'dflt' > ) ]
Lookup: 4 0 1 "'liga' Standard Ligatures in Latin lookup 1" { "'liga' Standard Ligatures in Latin lookup 1 subtable"  } ['liga' ('latn' <'dflt' > ) ]
Lookup: 258 0 0 "'kern' Horizontal Kerning lookup 0" { "'kern' Horizontal Kerning lookup 0 subtable"  } ['kern' ('DFLT' <'dflt' > 'cyrl' <'dflt' > 'grek' <'dflt' > 'latn' <'dflt' > ) ]
Lookup: 258 0 0 "'kern' Horizontal Kerning lookup 1" { "'kern' Horizontal Kerning lookup 1 subtable"  } ['kern' ('DFLT' <'dflt' > 'cyrl' <'dflt' > 'grek' <'dflt' > 'latn' <'dflt' > ) ]
DEI: 91125
KernClass2: 107 95 "'kern' Horizontal Kerning lookup 1 subtable"

StartChar: .notdef
Encoding: 65536 -1 0
Width: 424
GlyphClass: 1
Flags: W
LayerCount: 2
Fore
SplineSet
83.25 665 m 1,0,-1
 415.75 665 l 1,1,-1
 415.75 0 l 1,2,-1
 83.25 0 l 1,3,-1
 83.25 665 l 1,0,-1
249.849609375 375 m 1,4,-1
 362.549804688 618 l 1,5,-1
 136.450195312 618 l 1,6,-1
 249.849609375 375 l 1,4,-1
116.849609375 91 m 1,7,-1
 229.549804688 333 l 1,8,-1
 116.849609375 575 l 1,9,-1
 116.849609375 91 l 1,7,-1
269.450195312 333 m 1,10,-1
 382.849609375 90 l 1,11,-1
 382.849609375 575 l 1,12,-1
 269.450195312 333 l 1,10,-1
249.849609375 290 m 1,13,-1
 136.450195312 48 l 1,14,-1
 362.549804688 48 l 1,15,-1
 249.849609375 290 l 1,13,-1
EndSplineSet
Validated: 524289
EndChar

StartChar: exclam
Encoding: 33 33 5
Width: 242
GlyphClass: 1
Flags: W
LayerCount: 2
Fore
SplineSet
179.950195312 215 m 1,0,-1
 106.450195312 215 l 1,1,-1
 94.5498046875 676 l 1,2,-1
 190.450195312 676 l 1,3,-1
 179.950195312 215 l 1,0,-1
142.150390625 143 m 0,4,5
 172.950195312 143 172.950195312 143 185.549804688 126.5 c 128,-1,6
 198.150390625 110 198.150390625 110 198.150390625 68 c 0,7,8
 198.150390625 27 198.150390625 27 185.200195312 10 c 128,-1,9
 172.25 -7 172.25 -7 142.150390625 -7 c 128,-1,10
 112.049804688 -7 112.049804688 -7 99.4501953125 10 c 128,-1,11
 86.849609375 27 86.849609375 27 86.849609375 68 c 128,-1,12
 86.849609375 109 86.849609375 109 99.4501953125 126 c 128,-1,13
 112.049804688 143 112.049804688 143 142.150390625 143 c 0,4,5
EndSplineSet
Validated: 524289
EndChar

StartChar: quotedbl
Encoding: 34 34 6
Width: 405
GlyphClass: 1
Flags: W
LayerCount: 2
Fore
SplineSet
343.150390625 377 m 1,0,-1
 280.150390625 377 l 1,1,-1
 264.75 676 l 1,2,-1
 358.549804688 676 l 1,3,-1
 343.150390625 377 l 1,0,-1
196.849609375 377 m 1,4,-1
 133.849609375 377 l 1,5,-1
 118.450195312 676 l 1,6,-1
 212.25 676 l 1,7,-1
 196.849609375 377 l 1,4,-1
EndSplineSet
Validated: 524289
EndChar

StartChar: numbersign
Encoding: 35 35 7
Width: 583
GlyphClass: 1
Flags: W
LayerCount: 2
Fore
SplineSet
463.400390625 401 m 1,0,-1
 439.599609375 275 l 1,1,-1
 518.700195312 275 l 1,2,-1
 518.700195312 187 l 1,3,-1
 423.5 187 l 1,4,-1
 387.799804688 0 l 1,5,-1
 322 0 l 1,6,-1
 357.700195312 187 l 1,7,-1
 273 187 l 1,8,-1
 237.299804688 0 l 1,9,-1
 171.5 0 l 1,10,-1
 207.200195312 187 l 1,11,-1
 127.400390625 187 l 1,12,-1
 127.400390625 275 l 1,13,-1
 223.299804688 275 l 1,14,-1
 247.099609375 401 l 1,15,-1
 167.299804688 401 l 1,16,-1
 167.299804688 489 l 1,17,-1
 263.900390625 489 l 1,18,-1
 299.599609375 677 l 1,19,-1
 365.400390625 677 l 1,20,-1
 329.700195312 489 l 1,21,-1
 414.400390625 489 l 1,22,-1
 450.099609375 677 l 1,23,-1
 515.900390625 677 l 1,24,-1
 480.200195312 489 l 1,25,-1
 558.599609375 489 l 1,26,-1
 558.599609375 401 l 1,27,-1
 463.400390625 401 l 1,0,-1
312.900390625 401 m 1,28,-1
 289.099609375 275 l 1,29,-1
 373.799804688 275 l 1,30,-1
 397.599609375 401 l 1,31,-1
 312.900390625 401 l 1,28,-1
EndSplineSet
Validated: 524289
EndChar

StartChar: dollar
Encoding: 36 36 8
Width: 532
GlyphClass: 1
Flags: W
LayerCount: 2
Fore
SplineSet
145.049804688 467 m 0,0,1
 145.049804688 548 145.049804688 548 183.900390625 589 c 128,-1,2
 222.75 630 222.75 630 286.450195312 638 c 1,3,-1
 286.450195312 690 l 1,4,-1
 348.049804688 690 l 1,5,-1
 348.049804688 638 l 1,6,7
 445.349609375 628 445.349609375 628 488.049804688 529 c 1,8,-1
 422.25 462 l 1,9,10
 409.650390625 487 409.650390625 487 390.049804688 505.5 c 128,-1,11
 370.450195312 524 370.450195312 524 348.049804688 529 c 1,12,-1
 348.049804688 392 l 1,13,14
 413.150390625 368 413.150390625 368 439.75 345 c 0,15,16
 494.349609375 299 494.349609375 299 494.349609375 210 c 0,17,18
 494.349609375 125 494.349609375 125 454.799804688 82 c 128,-1,19
 415.25 39 415.25 39 348.049804688 31 c 1,20,-1
 348.049804688 -65 l 1,21,-1
 286.450195312 -65 l 1,22,-1
 286.450195312 29 l 1,23,24
 180.75 45 180.75 45 136.650390625 142 c 1,25,-1
 206.650390625 210 l 1,26,27
 219.950195312 184 219.950195312 184 241.650390625 163 c 128,-1,28
 263.349609375 142 263.349609375 142 286.450195312 138 c 1,29,-1
 286.450195312 292 l 1,30,31
 230.450195312 312 230.450195312 312 202.450195312 334 c 0,32,33
 145.049804688 378 145.049804688 378 145.049804688 467 c 0,0,1
286.450195312 531 m 1,34,35
 264.049804688 529 264.049804688 529 250.049804688 515 c 128,-1,36
 236.049804688 501 236.049804688 501 236.049804688 474 c 0,37,38
 236.049804688 455 236.049804688 455 246.549804688 441 c 128,-1,39
 257.049804688 427 257.049804688 427 286.450195312 415 c 1,40,-1
 286.450195312 531 l 1,34,35
348.049804688 137 m 1,41,42
 371.150390625 141 371.150390625 141 387.25 156.5 c 128,-1,43
 403.349609375 172 403.349609375 172 403.349609375 199 c 0,44,45
 403.349609375 224 403.349609375 224 391.450195312 240 c 128,-1,46
 379.549804688 256 379.549804688 256 348.049804688 270 c 1,47,-1
 348.049804688 137 l 1,41,42
EndSplineSet
Validated: 524289
EndChar

StartChar: percent
Encoding: 37 37 9
Width: 897
GlyphClass: 1
Flags: W
LayerCount: 2
Fore
SplineSet
867.5 202 m 0,0,1
 867.5 100 867.5 100 833.549804688 42.5 c 128,-1,2
 799.599609375 -15 799.599609375 -15 733.099609375 -15 c 0,3,4
 668 -15 668 -15 633.700195312 43 c 128,-1,5
 599.400390625 101 599.400390625 101 599.400390625 202 c 0,6,7
 599.400390625 306 599.400390625 306 632.650390625 364 c 128,-1,8
 665.900390625 422 665.900390625 422 733.099609375 422 c 128,-1,9
 800.299804688 422 800.299804688 422 833.900390625 364 c 128,-1,10
 867.5 306 867.5 306 867.5 202 c 0,0,1
360 -25 m 1,11,-1
 615.5 701 l 1,12,-1
 696.700195312 701 l 1,13,-1
 440.5 -25 l 1,14,-1
 360 -25 l 1,11,-1
456.599609375 470 m 0,15,16
 456.599609375 368 456.599609375 368 422.650390625 310.5 c 128,-1,17
 388.700195312 253 388.700195312 253 322.200195312 253 c 0,18,19
 257.099609375 253 257.099609375 253 222.799804688 311 c 128,-1,20
 188.5 369 188.5 369 188.5 470 c 0,21,22
 188.5 574 188.5 574 222.099609375 632 c 128,-1,23
 255.700195312 690 255.700195312 690 322.200195312 690 c 0,24,25
 389.400390625 690 389.400390625 690 423 632 c 128,-1,26
 456.599609375 574 456.599609375 574 456.599609375 470 c 0,15,16
733.099609375 334 m 0,27,28
 717.700195312 334 717.700195312 334 707.200195312 324 c 128,-1,29
 696.700195312 314 696.700195312 314 691.799804688 294.5 c 128,-1,30
 686.900390625 275 686.900390625 275 685.150390625 253.5 c 128,-1,31
 683.400390625 232 683.400390625 232 683.400390625 202 c 0,32,33
 683.400390625 128 683.400390625 128 696 100.5 c 128,-1,34
 708.599609375 73 708.599609375 73 733.099609375 73 c 0,35,36
 763.200195312 73 763.200195312 73 773.349609375 106 c 128,-1,37
 783.5 139 783.5 139 783.5 202 c 0,38,39
 783.5 232 783.5 232 782.099609375 252.5 c 128,-1,40
 780.700195312 273 780.700195312 273 775.799804688 293.5 c 128,-1,41
 770.900390625 314 770.900390625 314 760.400390625 324 c 128,-1,42
 749.900390625 334 749.900390625 334 733.099609375 334 c 0,27,28
322.200195312 602 m 0,43,44
 306.799804688 602 306.799804688 602 296.299804688 592 c 128,-1,45
 285.799804688 582 285.799804688 582 280.900390625 562.5 c 128,-1,46
 276 543 276 543 274.25 521.5 c 128,-1,47
 272.5 500 272.5 500 272.5 470 c 0,48,49
 272.5 396 272.5 396 285.099609375 368.5 c 128,-1,50
 297.700195312 341 297.700195312 341 322.200195312 341 c 0,51,52
 338.299804688 341 338.299804688 341 348.450195312 350.5 c 128,-1,53
 358.599609375 360 358.599609375 360 363.849609375 379 c 128,-1,54
 369.099609375 398 369.099609375 398 370.849609375 419 c 128,-1,55
 372.599609375 440 372.599609375 440 372.599609375 470 c 0,56,57
 372.599609375 501 372.599609375 501 370.849609375 521.5 c 128,-1,58
 369.099609375 542 369.099609375 542 364.200195312 562 c 128,-1,59
 359.299804688 582 359.299804688 582 348.799804688 592 c 128,-1,60
 338.299804688 602 338.299804688 602 322.200195312 602 c 0,43,44
EndSplineSet
Validated: 524289
EndChar

StartChar: ampersand
Encoding: 38 38 10
Width: 591
GlyphClass: 1
Flags: W
LayerCount: 2
Fore
SplineSet
328.75 690 m 0,0,1
 384.049804688 690 384.049804688 690 420.799804688 654.5 c 128,-1,2
 457.549804688 619 457.549804688 619 457.549804688 552 c 256,3,4
 457.549804688 485 457.549804688 485 417.650390625 426 c 0,5,6
 399.450195312 399 399.450195312 399 361.650390625 364 c 1,7,-1
 451.25 213 l 1,8,9
 472.950195312 255 472.950195312 255 486.25 325 c 1,10,-1
 563.950195312 300 l 1,11,12
 546.450195312 197 546.450195312 197 503.75 126 c 1,13,-1
 577.950195312 0 l 1,14,-1
 465.950195312 0 l 1,15,-1
 441.450195312 42 l 1,16,17
 413.450195312 14 413.450195312 14 384.049804688 0 c 128,-1,18
 354.650390625 -14 354.650390625 -14 314.049804688 -14 c 0,19,20
 237.049804688 -14 237.049804688 -14 188.049804688 36.5 c 128,-1,21
 139.049804688 87 139.049804688 87 139.049804688 182 c 0,22,23
 139.049804688 246 139.049804688 246 158.650390625 288 c 128,-1,24
 178.25 330 178.25 330 237.75 383 c 1,25,26
 217.450195312 418 217.450195312 418 203.099609375 455 c 128,-1,27
 188.75 492 188.75 492 188.75 530 c 0,28,29
 188.75 611 188.75 611 226.549804688 650.5 c 128,-1,30
 264.349609375 690 264.349609375 690 328.75 690 c 0,0,1
326.650390625 597 m 0,31,32
 303.549804688 597 303.549804688 597 290.950195312 581 c 128,-1,33
 278.349609375 565 278.349609375 565 278.349609375 535 c 0,34,35
 278.349609375 515 278.349609375 515 286.400390625 495.5 c 128,-1,36
 294.450195312 476 294.450195312 476 310.549804688 450 c 1,37,38
 332.950195312 471 332.950195312 471 345.549804688 488 c 0,39,40
 354.650390625 500 354.650390625 500 358.5 506 c 128,-1,41
 362.349609375 512 362.349609375 512 365.5 523.5 c 128,-1,42
 368.650390625 535 368.650390625 535 368.650390625 551 c 0,43,44
 368.650390625 572 368.650390625 572 356.400390625 584.5 c 128,-1,45
 344.150390625 597 344.150390625 597 326.650390625 597 c 0,31,32
230.049804688 181 m 0,46,47
 230.049804688 135 230.049804688 135 253.849609375 111.5 c 128,-1,48
 277.650390625 88 277.650390625 88 315.450195312 88 c 0,49,50
 359.549804688 88 359.549804688 88 392.450195312 125 c 1,51,-1
 287.450195312 299 l 1,52,53
 255.25 270 255.25 270 242.650390625 243 c 128,-1,54
 230.049804688 216 230.049804688 216 230.049804688 181 c 0,46,47
EndSplineSet
Validated: 524289
EndChar

StartChar: quotesingle
Encoding: 39 39 11
Width: 227
GlyphClass: 1
Flags: W
LayerCount: 2
Fore
SplineSet
165.5 377 m 1,0,-1
 102.5 377 l 1,1,-1
 87.099609375 676 l 1,2,-1
 180.900390625 676 l 1,3,-1
 165.5 377 l 1,0,-1
EndSplineSet
Validated: 524289
EndChar

StartChar: parenleft
Encoding: 40 40 12
Width: 359
GlyphClass: 1
Flags: W
LayerCount: 2
Fore
SplineSet
246.450195312 -193 m 1,0,1
 106.450195312 18 106.450195312 18 106.450195312 274 c 0,2,3
 106.450195312 532 106.450195312 532 246.450195312 743 c 1,4,-1
 346.549804688 743 l 1,5,6
 272.349609375 643 272.349609375 643 231.400390625 529 c 128,-1,7
 190.450195312 415 190.450195312 415 190.450195312 274 c 128,-1,8
 190.450195312 133 190.450195312 133 231.400390625 20 c 128,-1,9
 272.349609375 -93 272.349609375 -93 346.549804688 -193 c 1,10,-1
 246.450195312 -193 l 1,0,1
EndSplineSet
Validated: 524289
Substitution2: "'rtla' Right to Left Alternates lookup 0 subtable" parenright
EndChar

StartChar: parenright
Encoding: 41 41 13
Width: 349
GlyphClass: 1
Flags: W
LayerCount: 2
Fore
SplineSet
71.4501953125 -193 m 1,0,1
 145.650390625 -93 145.650390625 -93 186.599609375 20 c 128,-1,2
 227.549804688 133 227.549804688 133 227.549804688 274 c 128,-1,3
 227.549804688 415 227.549804688 415 186.599609375 529 c 128,-1,4
 145.650390625 643 145.650390625 643 71.4501953125 743 c 1,5,-1
 171.549804688 743 l 1,6,7
 311.549804688 532 311.549804688 532 311.549804688 274 c 0,8,9
 311.549804688 19 311.549804688 19 171.549804688 -193 c 1,10,-1
 71.4501953125 -193 l 1,0,1
EndSplineSet
Validated: 524289
Substitution2: "'rtla' Right to Left Alternates lookup 0 subtable" parenleft
EndChar

StartChar: asterisk
Encoding: 42 42 14
Width: 377
GlyphClass: 1
Flags: W
LayerCount: 2
Fore
SplineSet
336.950195312 407 m 1,0,-1
 248.75 485 l 1,1,-1
 252.25 358 l 1,2,-1
 192.75 358 l 1,3,-1
 196.950195312 485 l 1,4,-1
 108.049804688 407 l 1,5,-1
 77.25 480 l 1,6,-1
 173.849609375 549 l 1,7,-1
 77.25 620 l 1,8,-1
 108.049804688 693 l 1,9,-1
 196.25 615 l 1,10,-1
 192.75 742 l 1,11,-1
 252.25 742 l 1,12,-1
 248.049804688 615 l 1,13,-1
 336.950195312 693 l 1,14,-1
 367.75 619 l 1,15,-1
 271.150390625 550 l 1,16,-1
 367.75 480 l 1,17,-1
 336.950195312 407 l 1,0,-1
EndSplineSet
Validated: 524289
EndChar

StartChar: plus
Encoding: 43 43 15
Width: 591
GlyphClass: 1
Flags: W
LayerCount: 2
Fore
SplineSet
383.849609375 234 m 1,0,-1
 383.849609375 1 l 1,1,-1
 313.849609375 1 l 1,2,-1
 313.849609375 234 l 1,3,-1
 150.049804688 234 l 1,4,-1
 150.049804688 334 l 1,5,-1
 313.849609375 334 l 1,6,-1
 313.849609375 568 l 1,7,-1
 383.849609375 568 l 1,8,-1
 383.849609375 334 l 1,9,-1
 546.950195312 334 l 1,10,-1
 546.950195312 234 l 1,11,-1
 383.849609375 234 l 1,0,-1
EndSplineSet
Validated: 524289
EndChar

StartChar: comma
Encoding: 44 44 16
Width: 242
GlyphClass: 1
Flags: W
LayerCount: 2
Fore
SplineSet
198.150390625 61 m 0,0,1
 198.150390625 6 198.150390625 6 184.849609375 -49 c 128,-1,2
 171.549804688 -104 171.549804688 -104 152.650390625 -143 c 1,3,-1
 92.4501953125 -143 l 1,4,5
 126.049804688 -61 126.049804688 -61 129.549804688 -5 c 1,6,7
 86.849609375 -1 86.849609375 -1 86.849609375 71 c 0,8,9
 86.849609375 112 86.849609375 112 100.150390625 130.5 c 128,-1,10
 113.450195312 149 113.450195312 149 143.549804688 149 c 0,11,12
 198.150390625 149 198.150390625 149 198.150390625 61 c 0,0,1
EndSplineSet
Validated: 524289
EndChar

StartChar: hyphen
Encoding: 45 45 17
Width: 325
GlyphClass: 1
Flags: W
LayerCount: 2
Fore
SplineSet
85.599609375 195 m 1,0,-1
 85.599609375 319 l 1,1,-1
 298.400390625 319 l 1,2,-1
 298.400390625 195 l 1,3,-1
 85.599609375 195 l 1,0,-1
EndSplineSet
Validated: 524289
EndChar

StartChar: period
Encoding: 46 46 18
Width: 242
GlyphClass: 1
Flags: W
LayerCount: 2
Fore
SplineSet
142.150390625 149 m 0,0,1
 172.950195312 149 172.950195312 149 185.549804688 131.5 c 128,-1,2
 198.150390625 114 198.150390625 114 198.150390625 71 c 0,3,4
 198.150390625 29 198.150390625 29 184.849609375 11 c 128,-1,5
 171.549804688 -7 171.549804688 -7 142.150390625 -7 c 0,6,7
 112.049804688 -7 112.049804688 -7 99.4501953125 11 c 128,-1,8
 86.849609375 29 86.849609375 29 86.849609375 71 c 128,-1,9
 86.849609375 113 86.849609375 113 99.4501953125 131 c 128,-1,10
 112.049804688 149 112.049804688 149 142.150390625 149 c 0,0,1
EndSplineSet
Validated: 524289
EndChar

StartChar: slash
Encoding: 47 47 19
Width: 421
GlyphClass: 1
Flags: W
LayerCount: 2
Fore
SplineSet
150.099609375 -146 m 1,0,-1
 63.2998046875 -146 l 1,1,-1
 299.200195312 742 l 1,2,-1
 386.700195312 742 l 1,3,-1
 150.099609375 -146 l 1,0,-1
EndSplineSet
Validated: 524289
EndChar

StartChar: zero
Encoding: 48 48 20
Width: 531
GlyphClass: 1
Flags: W
LayerCount: 2
Fore
SplineSet
312.150390625 690 m 0,0,1
 412.950195312 690 412.950195312 690 454.950195312 600.5 c 128,-1,2
 496.950195312 511 496.950195312 511 496.950195312 338 c 128,-1,3
 496.950195312 165 496.950195312 165 454.950195312 75 c 128,-1,4
 412.950195312 -15 412.950195312 -15 312.150390625 -15 c 0,5,6
 212.049804688 -15 212.049804688 -15 170.049804688 75 c 128,-1,7
 128.049804688 165 128.049804688 165 128.049804688 337 c 128,-1,8
 128.049804688 509 128.049804688 509 170.049804688 599.5 c 128,-1,9
 212.049804688 690 212.049804688 690 312.150390625 690 c 0,0,1
397.549804688 338 m 128,-1,11
 397.549804688 459 397.549804688 459 376.900390625 515.5 c 128,-1,12
 356.25 572 356.25 572 312.150390625 572 c 128,-1,13
 268.049804688 572 268.049804688 572 247.75 515 c 128,-1,14
 227.450195312 458 227.450195312 458 227.450195312 337 c 128,-1,15
 227.450195312 216 227.450195312 216 247.75 159.5 c 128,-1,16
 268.049804688 103 268.049804688 103 312.150390625 103 c 128,-1,17
 356.25 103 356.25 103 376.900390625 160 c 128,-1,10
 397.549804688 217 397.549804688 217 397.549804688 338 c 128,-1,11
EndSplineSet
Validated: 524289
EndChar

StartChar: one
Encoding: 49 49 21
Width: 519
GlyphClass: 1
Flags: W
LayerCount: 2
Fore
SplineSet
166.299804688 546 m 1,0,1
 231.400390625 551 231.400390625 551 261.5 577.5 c 128,-1,2
 291.599609375 604 291.599609375 604 304.200195312 676 c 1,3,-1
 377.700195312 676 l 1,4,-1
 377.700195312 0 l 1,5,-1
 281.099609375 0 l 1,6,-1
 281.099609375 453 l 1,7,-1
 166.299804688 453 l 1,8,-1
 166.299804688 546 l 1,0,1
EndSplineSet
Validated: 524289
EndChar

StartChar: two
Encoding: 50 50 22
Width: 498
GlyphClass: 1
Flags: W
LayerCount: 2
Fore
SplineSet
291.049804688 690 m 0,0,1
 361.75 690 361.75 690 405.150390625 642 c 128,-1,2
 448.549804688 594 448.549804688 594 448.549804688 504 c 0,3,4
 448.549804688 439 448.549804688 439 432.099609375 390 c 128,-1,5
 415.650390625 341 415.650390625 341 384.849609375 295 c 0,6,7
 365.25 266 365.25 266 318.700195312 206 c 128,-1,8
 272.150390625 146 272.150390625 146 252.549804688 126 c 1,9,-1
 463.950195312 126 l 1,10,-1
 463.950195312 0 l 1,11,-1
 124.450195312 0 l 1,12,-1
 124.450195312 115 l 1,13,14
 241.349609375 255 241.349609375 255 295.950195312 345 c 0,15,16
 321.150390625 385 321.150390625 385 335.150390625 421.5 c 128,-1,17
 349.150390625 458 349.150390625 458 349.150390625 499 c 0,18,19
 349.150390625 533 349.150390625 533 331.650390625 550.5 c 128,-1,20
 314.150390625 568 314.150390625 568 286.150390625 568 c 0,21,22
 233.650390625 568 233.650390625 568 200.75 497 c 1,23,-1
 123.049804688 575 l 1,24,25
 151.75 635 151.75 635 189.900390625 662.5 c 128,-1,26
 228.049804688 690 228.049804688 690 291.049804688 690 c 0,0,1
EndSplineSet
Validated: 524289
EndChar

StartChar: three
Encoding: 51 51 23
Width: 492
GlyphClass: 1
Flags: W
LayerCount: 2
Fore
SplineSet
338.25 358 m 1,0,1
 385.150390625 354 385.150390625 354 413.849609375 307.5 c 128,-1,2
 442.549804688 261 442.549804688 261 442.549804688 190 c 0,3,4
 442.549804688 85 442.549804688 85 394.599609375 35.5 c 128,-1,5
 346.650390625 -14 346.650390625 -14 264.049804688 -14 c 0,6,7
 208.75 -14 208.75 -14 166.049804688 15.5 c 128,-1,8
 123.349609375 45 123.349609375 45 104.450195312 95 c 1,9,-1
 182.150390625 171 l 1,10,11
 196.150390625 141 196.150390625 141 215.049804688 125 c 128,-1,12
 233.950195312 109 233.950195312 109 264.75 109 c 0,13,14
 303.950195312 109 303.950195312 109 323.549804688 130 c 128,-1,15
 343.150390625 151 343.150390625 151 343.150390625 200 c 0,16,17
 343.150390625 294 343.150390625 294 256.349609375 294 c 2,18,-1
 214.349609375 294 l 1,19,-1
 214.349609375 412 l 1,20,-1
 250.75 412 l 2,21,22
 289.25 412 289.25 412 311.650390625 433.5 c 128,-1,23
 334.049804688 455 334.049804688 455 334.049804688 500 c 0,24,25
 334.049804688 567 334.049804688 567 272.450195312 567 c 0,26,27
 240.25 567 240.25 567 220.650390625 552.5 c 128,-1,28
 201.049804688 538 201.049804688 538 186.349609375 507 c 1,29,-1
 109.349609375 584 l 1,30,31
 138.049804688 639 138.049804688 639 177.599609375 664.5 c 128,-1,32
 217.150390625 690 217.150390625 690 279.450195312 690 c 0,33,34
 325.650390625 690 325.650390625 690 361.349609375 669 c 128,-1,35
 397.049804688 648 397.049804688 648 415.950195312 610 c 0,36,37
 434.150390625 572 434.150390625 572 434.150390625 524 c 0,38,39
 434.150390625 392 434.150390625 392 338.25 358 c 1,0,1
EndSplineSet
Validated: 524289
EndChar

StartChar: four
Encoding: 52 52 24
Width: 529
GlyphClass: 1
Flags: W
LayerCount: 2
Fore
SplineSet
443.799804688 112 m 1,0,-1
 443.799804688 0 l 1,1,-1
 351.400390625 0 l 1,2,-1
 351.400390625 112 l 1,3,-1
 114.099609375 112 l 1,4,-1
 114.099609375 239 l 1,5,-1
 345.099609375 676 l 1,6,-1
 443.799804688 676 l 1,7,-1
 443.799804688 230 l 1,8,-1
 501.900390625 230 l 1,9,-1
 501.900390625 112 l 1,10,-1
 443.799804688 112 l 1,0,-1
351.400390625 495 m 1,11,-1
 207.900390625 230 l 1,12,-1
 351.400390625 230 l 1,13,-1
 351.400390625 495 l 1,11,-1
EndSplineSet
Validated: 524289
EndChar

StartChar: five
Encoding: 53 53 25
Width: 495
GlyphClass: 1
Flags: W
LayerCount: 2
Fore
SplineSet
296.25 450 m 0,0,1
 373.25 450 373.25 450 416.650390625 390.5 c 128,-1,2
 460.049804688 331 460.049804688 331 460.049804688 222 c 0,3,4
 460.049804688 107 460.049804688 107 408.599609375 46.5 c 128,-1,5
 357.150390625 -14 357.150390625 -14 268.25 -14 c 0,6,7
 152.049804688 -14 152.049804688 -14 100.950195312 97 c 1,8,-1
 177.950195312 175 l 1,9,10
 204.549804688 109 204.549804688 109 266.849609375 109 c 0,11,12
 361.349609375 109 361.349609375 109 361.349609375 225 c 0,13,14
 361.349609375 277 361.349609375 277 335.450195312 303.5 c 128,-1,15
 309.549804688 330 309.549804688 330 267.549804688 330 c 0,16,17
 220.650390625 330 220.650390625 330 196.150390625 294 c 1,18,-1
 128.950195312 294 l 1,19,-1
 156.950195312 676 l 1,20,-1
 433.450195312 676 l 1,21,-1
 433.450195312 550 l 1,22,-1
 233.950195312 550 l 1,23,-1
 224.150390625 431 l 1,24,25
 256.349609375 450 256.349609375 450 296.25 450 c 0,0,1
EndSplineSet
Validated: 524289
EndChar

StartChar: six
Encoding: 54 54 26
Width: 500
GlyphClass: 1
Flags: W
LayerCount: 2
Fore
SplineSet
472.299804688 219 m 0,0,1
 472.299804688 111 472.299804688 111 426.099609375 48.5 c 128,-1,2
 379.900390625 -14 379.900390625 -14 302.200195312 -14 c 0,3,4
 213.299804688 -14 213.299804688 -14 168.5 69.5 c 128,-1,5
 123.700195312 153 123.700195312 153 123.700195312 297 c 0,6,7
 123.700195312 414 123.700195312 414 141.900390625 499 c 128,-1,8
 160.099609375 584 160.099609375 584 205.25 637 c 128,-1,9
 250.400390625 690 250.400390625 690 320.400390625 690 c 0,10,11
 411.400390625 690 411.400390625 690 455.5 635 c 1,12,-1
 400.900390625 529 l 1,13,14
 366.599609375 572 366.599609375 572 320.400390625 572 c 128,-1,15
 274.200195312 572 274.200195312 572 253.200195312 527 c 128,-1,16
 232.200195312 482 232.200195312 482 226.599609375 399 c 1,17,18
 253.900390625 425 253.900390625 425 274.200195312 435.5 c 128,-1,19
 294.5 446 294.5 446 327.400390625 446 c 0,20,21
 396.700195312 446 396.700195312 446 434.5 385 c 128,-1,22
 472.299804688 324 472.299804688 324 472.299804688 219 c 0,0,1
301.5 329 m 0,23,24
 256 329 256 329 223.799804688 292 c 1,25,26
 223.799804688 222 223.799804688 222 230.099609375 186.5 c 128,-1,27
 236.400390625 151 236.400390625 151 256 126 c 0,28,29
 273.5 104 273.5 104 302.900390625 104 c 0,30,31
 375.700195312 104 375.700195312 104 375.700195312 216 c 0,32,33
 375.700195312 267 375.700195312 267 355.75 298 c 128,-1,34
 335.799804688 329 335.799804688 329 301.5 329 c 0,23,24
EndSplineSet
Validated: 524289
EndChar

StartChar: seven
Encoding: 55 55 27
Width: 530
GlyphClass: 1
Flags: W
LayerCount: 2
Fore
SplineSet
308.150390625 0 m 1,0,-1
 200.349609375 0 l 1,1,-1
 374.650390625 550 l 1,2,-1
 131.049804688 550 l 1,3,-1
 131.049804688 676 l 1,4,-1
 485.950195312 676 l 1,5,-1
 485.950195312 592 l 1,6,-1
 308.150390625 0 l 1,0,-1
EndSplineSet
Validated: 524289
EndChar

StartChar: eight
Encoding: 56 56 28
Width: 498
GlyphClass: 1
Flags: W
LayerCount: 2
Fore
SplineSet
293.849609375 690 m 0,0,1
 368.75 690 368.75 690 413.900390625 645.5 c 128,-1,2
 459.049804688 601 459.049804688 601 459.049804688 508 c 0,3,4
 459.049804688 452 459.049804688 452 422.650390625 405 c 0,5,6
 406.549804688 384 406.549804688 384 373.650390625 358 c 1,7,8
 412.849609375 331 412.849609375 331 431.75 307 c 0,9,10
 470.25 258 470.25 258 470.25 183 c 0,11,12
 470.25 84 470.25 84 422.650390625 35 c 128,-1,13
 375.049804688 -14 375.049804688 -14 293.849609375 -14 c 0,14,15
 211.950195312 -14 211.950195312 -14 164.349609375 34 c 128,-1,16
 116.75 82 116.75 82 116.75 183 c 0,17,18
 116.75 302 116.75 302 204.25 359 c 1,19,20
 127.950195312 413 127.950195312 413 127.950195312 507 c 0,21,22
 127.950195312 599 127.950195312 599 173.099609375 644.5 c 128,-1,23
 218.25 690 218.25 690 293.849609375 690 c 0,0,1
364.549804688 506 m 0,24,25
 364.549804688 544 364.549804688 544 345.650390625 563 c 128,-1,26
 326.75 582 326.75 582 293.849609375 582 c 0,27,28
 253.25 582 253.25 582 237.849609375 560 c 128,-1,29
 222.450195312 538 222.450195312 538 222.450195312 509 c 0,30,31
 222.450195312 484 222.450195312 484 229.450195312 470.5 c 128,-1,32
 236.450195312 457 236.450195312 457 251.849609375 440 c 0,33,34
 267.950195312 423 267.950195312 423 293.849609375 408 c 1,35,36
 333.75 433 333.75 433 349.150390625 457 c 128,-1,37
 364.549804688 481 364.549804688 481 364.549804688 506 c 0,24,25
293.849609375 95 m 0,38,39
 330.25 95 330.25 95 351.950195312 117 c 128,-1,40
 373.650390625 139 373.650390625 139 373.650390625 183 c 0,41,42
 373.650390625 225 373.650390625 225 354.049804688 253 c 128,-1,43
 334.450195312 281 334.450195312 281 293.849609375 308 c 1,44,45
 250.450195312 281 250.450195312 281 231.900390625 253 c 128,-1,46
 213.349609375 225 213.349609375 225 213.349609375 182 c 0,47,48
 213.349609375 138 213.349609375 138 235.049804688 116.5 c 128,-1,49
 256.75 95 256.75 95 293.849609375 95 c 0,38,39
EndSplineSet
Validated: 524289
EndChar

StartChar: nine
Encoding: 57 57 29
Width: 497
GlyphClass: 1
Flags: W
LayerCount: 2
Fore
SplineSet
464.299804688 379 m 0,0,1
 464.299804688 294 464.299804688 294 453.450195312 224.5 c 128,-1,2
 442.599609375 155 442.599609375 155 420.200195312 100.5 c 128,-1,3
 397.799804688 46 397.799804688 46 359.299804688 16 c 128,-1,4
 320.799804688 -14 320.799804688 -14 268.299804688 -14 c 0,5,6
 173.099609375 -14 173.099609375 -14 126.900390625 42 c 1,7,-1
 180.799804688 147 l 1,8,9
 215.099609375 104 215.099609375 104 268.299804688 104 c 0,10,11
 348.099609375 104 348.099609375 104 361.400390625 277 c 1,12,13
 313.799804688 230 313.799804688 230 268.299804688 230 c 0,14,15
 194.799804688 230 194.799804688 230 155.25 289.5 c 128,-1,16
 115.700195312 349 115.700195312 349 115.700195312 457 c 0,17,18
 115.700195312 562 115.700195312 562 161.549804688 626 c 128,-1,19
 207.400390625 690 207.400390625 690 282.299804688 690 c 0,20,21
 374.700195312 690 374.700195312 690 419.5 607.5 c 128,-1,22
 464.299804688 525 464.299804688 525 464.299804688 379 c 0,0,1
211.599609375 460 m 0,23,24
 211.599609375 409 211.599609375 409 231.549804688 378 c 128,-1,25
 251.5 347 251.5 347 286.5 347 c 0,26,27
 308.900390625 347 308.900390625 347 329.900390625 358 c 128,-1,28
 350.900390625 369 350.900390625 369 364.200195312 384 c 1,29,30
 364.200195312 487 364.200195312 487 345.299804688 529.5 c 128,-1,31
 326.400390625 572 326.400390625 572 283.700195312 572 c 0,32,33
 249.400390625 572 249.400390625 572 230.5 542 c 128,-1,34
 211.599609375 512 211.599609375 512 211.599609375 460 c 0,23,24
EndSplineSet
Validated: 524289
EndChar

StartChar: colon
Encoding: 58 58 30
Width: 242
GlyphClass: 1
Flags: W
LayerCount: 2
Fore
SplineSet
142.150390625 512 m 0,0,1
 172.950195312 512 172.950195312 512 185.549804688 494.5 c 128,-1,2
 198.150390625 477 198.150390625 477 198.150390625 434 c 0,3,4
 198.150390625 392 198.150390625 392 184.849609375 374 c 128,-1,5
 171.549804688 356 171.549804688 356 142.150390625 356 c 0,6,7
 112.049804688 356 112.049804688 356 99.4501953125 374 c 128,-1,8
 86.849609375 392 86.849609375 392 86.849609375 434 c 128,-1,9
 86.849609375 476 86.849609375 476 99.4501953125 494 c 128,-1,10
 112.049804688 512 112.049804688 512 142.150390625 512 c 0,0,1
142.150390625 149 m 0,11,12
 172.950195312 149 172.950195312 149 185.549804688 131.5 c 128,-1,13
 198.150390625 114 198.150390625 114 198.150390625 71 c 0,14,15
 198.150390625 29 198.150390625 29 184.849609375 11 c 128,-1,16
 171.549804688 -7 171.549804688 -7 142.150390625 -7 c 0,17,18
 112.049804688 -7 112.049804688 -7 99.4501953125 11 c 128,-1,19
 86.849609375 29 86.849609375 29 86.849609375 71 c 128,-1,20
 86.849609375 113 86.849609375 113 99.4501953125 131 c 128,-1,21
 112.049804688 149 112.049804688 149 142.150390625 149 c 0,11,12
EndSplineSet
Validated: 524289
EndChar

StartChar: semicolon
Encoding: 59 59 31
Width: 242
GlyphClass: 1
Flags: W
LayerCount: 2
Fore
SplineSet
142.150390625 512 m 0,0,1
 172.950195312 512 172.950195312 512 185.549804688 494.5 c 128,-1,2
 198.150390625 477 198.150390625 477 198.150390625 434 c 0,3,4
 198.150390625 392 198.150390625 392 184.849609375 374 c 128,-1,5
 171.549804688 356 171.549804688 356 142.150390625 356 c 0,6,7
 112.049804688 356 112.049804688 356 99.4501953125 374 c 128,-1,8
 86.849609375 392 86.849609375 392 86.849609375 434 c 128,-1,9
 86.849609375 476 86.849609375 476 99.4501953125 494 c 128,-1,10
 112.049804688 512 112.049804688 512 142.150390625 512 c 0,0,1
86.849609375 71 m 0,11,12
 86.849609375 112 86.849609375 112 100.150390625 130.5 c 128,-1,13
 113.450195312 149 113.450195312 149 143.549804688 149 c 0,14,15
 198.150390625 149 198.150390625 149 198.150390625 61 c 0,16,17
 198.150390625 6 198.150390625 6 184.849609375 -49 c 128,-1,18
 171.549804688 -104 171.549804688 -104 152.650390625 -143 c 1,19,-1
 92.4501953125 -143 l 1,20,21
 126.049804688 -61 126.049804688 -61 129.549804688 -5 c 1,22,23
 86.849609375 -1 86.849609375 -1 86.849609375 71 c 0,11,12
EndSplineSet
Validated: 524289
EndChar

StartChar: less
Encoding: 60 60 32
Width: 591
GlyphClass: 1
Flags: W
LayerCount: 2
Fore
SplineSet
149.200195312 235 m 1,0,-1
 149.200195312 334 l 1,1,-1
 546.799804688 568 l 1,2,-1
 546.799804688 458 l 1,3,-1
 250.700195312 285 l 1,4,-1
 546.799804688 112 l 1,5,-1
 546.799804688 2 l 1,6,-1
 149.200195312 235 l 1,0,-1
EndSplineSet
Validated: 524289
Substitution2: "'rtla' Right to Left Alternates lookup 0 subtable" greater
EndChar

StartChar: equal
Encoding: 61 61 33
Width: 591
GlyphClass: 1
Flags: W
LayerCount: 2
Fore
SplineSet
150.049804688 354 m 1,0,-1
 150.049804688 454 l 1,1,-1
 546.950195312 454 l 1,2,-1
 546.950195312 354 l 1,3,-1
 150.049804688 354 l 1,0,-1
150.049804688 114 m 1,4,-1
 150.049804688 214 l 1,5,-1
 546.950195312 214 l 1,6,-1
 546.950195312 114 l 1,7,-1
 150.049804688 114 l 1,4,-1
EndSplineSet
Validated: 524289
EndChar

StartChar: greater
Encoding: 62 62 34
Width: 591
GlyphClass: 1
Flags: W
LayerCount: 2
Fore
SplineSet
149.200195312 2 m 1,0,-1
 149.200195312 112 l 1,1,-1
 445.299804688 285 l 1,2,-1
 149.200195312 458 l 1,3,-1
 149.200195312 568 l 1,4,-1
 546.799804688 334 l 1,5,-1
 546.799804688 235 l 1,6,-1
 149.200195312 2 l 1,0,-1
EndSplineSet
Validated: 524289
Substitution2: "'rtla' Right to Left Alternates lookup 0 subtable" less
EndChar

StartChar: question
Encoding: 63 63 35
Width: 441
GlyphClass: 1
Flags: W
LayerCount: 2
Fore
SplineSet
250.049804688 690 m 0,0,1
 326.349609375 690 326.349609375 690 371.849609375 645 c 128,-1,2
 417.349609375 600 417.349609375 600 417.349609375 507 c 0,3,4
 417.349609375 417 417.349609375 417 364.150390625 352 c 0,5,6
 338.950195312 322 338.950195312 322 282.25 282 c 1,7,-1
 282.25 195 l 1,8,-1
 189.150390625 195 l 1,9,-1
 189.150390625 342 l 1,10,11
 245.150390625 375 245.150390625 375 269.650390625 396.5 c 128,-1,12
 294.150390625 418 294.150390625 418 306.049804688 442 c 128,-1,13
 317.950195312 466 317.950195312 466 317.950195312 497 c 0,14,15
 317.950195312 572 317.950195312 572 250.75 572 c 0,16,17
 219.25 572 219.25 572 201.049804688 554.5 c 128,-1,18
 182.849609375 537 182.849609375 537 167.450195312 501 c 1,19,-1
 87.650390625 569 l 1,20,21
 135.950195312 690 135.950195312 690 250.049804688 690 c 0,0,1
236.75 143 m 0,22,23
 267.549804688 143 267.549804688 143 280.150390625 126.5 c 128,-1,24
 292.75 110 292.75 110 292.75 68.5 c 128,-1,25
 292.75 27 292.75 27 279.799804688 10 c 128,-1,26
 266.849609375 -7 266.849609375 -7 236.75 -7 c 256,27,28
 206.650390625 -7 206.650390625 -7 194.049804688 10 c 128,-1,29
 181.450195312 27 181.450195312 27 181.450195312 68 c 256,30,31
 181.450195312 109 181.450195312 109 194.049804688 126 c 128,-1,32
 206.650390625 143 206.650390625 143 236.75 143 c 0,22,23
EndSplineSet
Validated: 524289
EndChar

StartChar: at
Encoding: 64 64 36
Width: 809
GlyphClass: 1
Flags: W
LayerCount: 2
Fore
SplineSet
480.900390625 690 m 0,0,1
 617.400390625 690 617.400390625 690 695.450195312 581 c 128,-1,2
 773.5 472 773.5 472 773.5 278 c 0,3,4
 773.5 108 773.5 108 711.900390625 41 c 0,5,6
 681.099609375 8 681.099609375 8 634.900390625 8 c 0,7,8
 599.200195312 8 599.200195312 8 577.5 22 c 128,-1,9
 555.799804688 36 555.799804688 36 546.700195312 69 c 1,10,11
 498.400390625 21 498.400390625 21 450.099609375 21 c 0,12,13
 383.599609375 21 383.599609375 21 349.299804688 85 c 128,-1,14
 315 149 315 149 315 253 c 0,15,16
 315 364 315 364 352.799804688 431.5 c 128,-1,17
 390.599609375 499 390.599609375 499 461.299804688 499 c 0,18,19
 499.799804688 499 499.799804688 499 540.400390625 465 c 1,20,-1
 540.400390625 485 l 1,21,-1
 613.900390625 485 l 1,22,-1
 613.900390625 145 l 2,23,24
 613.900390625 119 613.900390625 119 619.5 108.5 c 128,-1,25
 625.099609375 98 625.099609375 98 639.099609375 98 c 0,26,27
 681.099609375 98 681.099609375 98 697.200195312 183 c 0,28,29
 704.900390625 223 704.900390625 223 704.900390625 274 c 0,30,31
 704.900390625 433 704.900390625 433 647.849609375 517 c 128,-1,32
 590.799804688 601 590.799804688 601 481.599609375 601 c 0,33,34
 412.299804688 601 412.299804688 601 358.75 556 c 128,-1,35
 305.200195312 511 305.200195312 511 276.5 438 c 0,36,37
 247.099609375 362 247.099609375 362 247.099609375 269 c 0,38,39
 247.099609375 166 247.099609375 166 276.5 91.5 c 128,-1,40
 305.900390625 17 305.900390625 17 357 -22 c 0,41,42
 409.5 -62 409.5 -62 480.200195312 -62 c 0,43,44
 567 -62 567 -62 633.5 -40 c 1,45,-1
 646.799804688 -128 l 1,46,47
 581.700195312 -151 581.700195312 -151 479.5 -151 c 0,48,49
 387.099609375 -151 387.099609375 -151 319.900390625 -98 c 128,-1,50
 252.700195312 -45 252.700195312 -45 216.299804688 47 c 0,51,52
 178.5 144 178.5 144 178.5 270 c 0,53,54
 178.5 394 178.5 394 219.450195312 488.5 c 128,-1,55
 260.400390625 583 260.400390625 583 326.200195312 635 c 0,56,57
 396.200195312 690 396.200195312 690 480.900390625 690 c 0,0,1
390.599609375 254 m 0,58,59
 390.599609375 119 390.599609375 119 463.400390625 119 c 0,60,61
 493.5 119 493.5 119 539.700195312 164 c 1,62,-1
 539.700195312 370 l 1,63,64
 500.5 404 500.5 404 471.799804688 404 c 0,65,66
 428.400390625 404 428.400390625 404 409.5 365.5 c 128,-1,67
 390.599609375 327 390.599609375 327 390.599609375 254 c 0,58,59
EndSplineSet
Validated: 524289
EndChar

StartChar: A
Encoding: 65 65 37
Width: 554
GlyphClass: 1
Flags: W
LayerCount: 2
Fore
SplineSet
107.049804688 0 m 1,0,-1
 263.849609375 676 l 1,1,-1
 389.150390625 676 l 1,2,-1
 545.950195312 0 l 1,3,-1
 447.25 0 l 1,4,-1
 415.75 137 l 1,5,-1
 233.75 137 l 1,6,-1
 202.950195312 0 l 1,7,-1
 107.049804688 0 l 1,0,-1
261.049804688 258 m 1,8,-1
 388.450195312 258 l 1,9,-1
 324.75 537 l 1,10,-1
 261.049804688 258 l 1,8,-1
EndSplineSet
Validated: 524289
EndChar

StartChar: B
Encoding: 66 66 38
Width: 542
GlyphClass: 1
Flags: W
LayerCount: 2
Fore
SplineSet
399.200195312 364 m 1,0,1
 455.200195312 353 455.200195312 353 484.25 313 c 128,-1,2
 513.299804688 273 513.299804688 273 513.299804688 196 c 0,3,4
 513.299804688 0 513.299804688 0 328.5 0 c 2,5,-1
 150.700195312 0 l 1,6,-1
 150.700195312 676 l 1,7,-1
 318 676 l 2,8,9
 409 676 409 676 448.200195312 638 c 128,-1,10
 487.400390625 600 487.400390625 600 487.400390625 518 c 0,11,12
 487.400390625 389 487.400390625 389 399.200195312 364 c 1,0,1
306.099609375 411 m 2,13,14
 347.400390625 411 347.400390625 411 368.75 427.5 c 128,-1,15
 390.099609375 444 390.099609375 444 390.099609375 488 c 0,16,17
 390.099609375 529 390.099609375 529 369.450195312 542.5 c 128,-1,18
 348.799804688 556 348.799804688 556 308.900390625 556 c 2,19,-1
 247.299804688 556 l 1,20,-1
 247.299804688 411 l 1,21,-1
 306.099609375 411 l 2,13,14
414.599609375 208 m 0,22,23
 414.599609375 253 414.599609375 253 393.25 272 c 128,-1,24
 371.900390625 291 371.900390625 291 312.400390625 291 c 2,25,-1
 247.299804688 291 l 1,26,-1
 247.299804688 122 l 1,27,-1
 296.299804688 122 l 2,28,29
 353 122 353 122 374 130 c 0,30,31
 414.599609375 145 414.599609375 145 414.599609375 208 c 0,22,23
EndSplineSet
Validated: 524289
EndChar

StartChar: C
Encoding: 67 67 39
Width: 555
GlyphClass: 1
Flags: W
LayerCount: 2
Fore
SplineSet
232.799804688 338 m 0,0,1
 232.799804688 226 232.799804688 226 260.099609375 167 c 128,-1,2
 287.400390625 108 287.400390625 108 352.5 108 c 0,3,4
 394.5 108 394.5 108 417.950195312 131 c 128,-1,5
 441.400390625 154 441.400390625 154 460.299804688 192 c 1,6,-1
 536.599609375 112 l 1,7,8
 507.200195312 49 507.200195312 49 463.450195312 17.5 c 128,-1,9
 419.700195312 -14 419.700195312 -14 353.200195312 -14 c 0,10,11
 133.400390625 -14 133.400390625 -14 133.400390625 338 c 128,-1,12
 133.400390625 690 133.400390625 690 349.700195312 690 c 0,13,14
 477.799804688 690 477.799804688 690 529.599609375 569 c 1,15,-1
 454.700195312 486 l 1,16,17
 435.099609375 529 435.099609375 529 413.049804688 548.5 c 128,-1,18
 391 568 391 568 351.799804688 568 c 0,19,20
 293.700195312 568 293.700195312 568 263.25 515 c 128,-1,21
 232.799804688 462 232.799804688 462 232.799804688 338 c 0,0,1
EndSplineSet
Validated: 524289
EndChar

StartChar: D
Encoding: 68 68 40
Width: 548
GlyphClass: 1
Flags: W
LayerCount: 2
Fore
SplineSet
289.599609375 676 m 2,0,1
 412.099609375 676 412.099609375 676 465.650390625 596 c 128,-1,2
 519.200195312 516 519.200195312 516 519.200195312 338 c 0,3,4
 519.200195312 220 519.200195312 220 496.799804688 144.5 c 128,-1,5
 474.400390625 69 474.400390625 69 424.700195312 34 c 0,6,7
 377.099609375 0 377.099609375 0 291 0 c 2,8,-1
 146.799804688 0 l 1,9,-1
 146.799804688 676 l 1,10,-1
 289.599609375 676 l 2,0,1
419.799804688 339 m 0,11,12
 419.799804688 422 419.799804688 422 408.950195312 466.5 c 128,-1,13
 398.099609375 511 398.099609375 511 366.599609375 532 c 0,14,15
 337.200195312 550 337.200195312 550 280.5 550 c 2,16,-1
 243.400390625 550 l 1,17,-1
 243.400390625 126 l 1,18,-1
 280.5 126 l 2,19,20
 335.099609375 126 335.099609375 126 364.849609375 143.5 c 128,-1,21
 394.599609375 161 394.599609375 161 407.900390625 208 c 0,22,23
 419.799804688 252 419.799804688 252 419.799804688 339 c 0,11,12
EndSplineSet
Validated: 524289
EndChar

StartChar: E
Encoding: 69 69 41
Width: 480
GlyphClass: 1
Flags: W
LayerCount: 2
Fore
SplineSet
138.849609375 0 m 1,0,-1
 138.849609375 676 l 1,1,-1
 446.150390625 676 l 1,2,-1
 446.150390625 554 l 1,3,-1
 235.450195312 554 l 1,4,-1
 235.450195312 410 l 1,5,-1
 413.25 410 l 1,6,-1
 413.25 288 l 1,7,-1
 235.450195312 288 l 1,8,-1
 235.450195312 126 l 1,9,-1
 446.150390625 126 l 1,10,-1
 446.150390625 0 l 1,11,-1
 138.849609375 0 l 1,0,-1
EndSplineSet
Validated: 524289
EndChar

StartChar: F
Encoding: 70 70 42
Width: 464
GlyphClass: 1
Flags: W
LayerCount: 2
Fore
SplineSet
234.849609375 550 m 1,0,-1
 234.849609375 404 l 1,1,-1
 409.150390625 404 l 1,2,-1
 409.150390625 282 l 1,3,-1
 234.849609375 282 l 1,4,-1
 234.849609375 0 l 1,5,-1
 138.25 0 l 1,6,-1
 138.25 676 l 1,7,-1
 442.75 676 l 1,8,-1
 442.75 550 l 1,9,-1
 234.849609375 550 l 1,0,-1
EndSplineSet
Validated: 524289
EndChar

StartChar: G
Encoding: 71 71 43
Width: 583
GlyphClass: 1
Flags: W
LayerCount: 2
Fore
SplineSet
356.450195312 -14 m 0,0,1
 241.650390625 -14 241.650390625 -14 187.75 71.5 c 128,-1,2
 133.849609375 157 133.849609375 157 133.849609375 332 c 0,3,4
 133.849609375 690 133.849609375 690 354.349609375 690 c 0,5,6
 419.450195312 690 419.450195312 690 466.700195312 658.5 c 128,-1,7
 513.950195312 627 513.950195312 627 539.150390625 569 c 1,8,-1
 464.950195312 486 l 1,9,10
 446.75 527 446.75 527 421.549804688 547.5 c 128,-1,11
 396.349609375 568 396.349609375 568 355.75 568 c 0,12,13
 289.25 568 289.25 568 261.25 507 c 128,-1,14
 233.25 446 233.25 446 233.25 332 c 0,15,16
 233.25 220 233.25 220 260.549804688 164 c 128,-1,17
 287.849609375 108 287.849609375 108 353.650390625 108 c 0,18,19
 401.25 108 401.25 108 441.849609375 136 c 1,20,-1
 441.849609375 241 l 1,21,-1
 349.450195312 241 l 1,22,-1
 349.450195312 363 l 1,23,-1
 538.450195312 363 l 1,24,-1
 538.450195312 64 l 1,25,26
 506.25 30 506.25 30 457.25 8 c 128,-1,27
 408.25 -14 408.25 -14 356.450195312 -14 c 0,0,1
EndSplineSet
Validated: 524289
EndChar

StartChar: H
Encoding: 72 72 44
Width: 584
GlyphClass: 1
Flags: W
LayerCount: 2
Fore
SplineSet
437.099609375 0 m 1,0,-1
 437.099609375 287 l 1,1,-1
 250.900390625 287 l 1,2,-1
 250.900390625 0 l 1,3,-1
 154.299804688 0 l 1,4,-1
 154.299804688 676 l 1,5,-1
 250.900390625 676 l 1,6,-1
 250.900390625 413 l 1,7,-1
 437.099609375 413 l 1,8,-1
 437.099609375 676 l 1,9,-1
 533.700195312 676 l 1,10,-1
 533.700195312 0 l 1,11,-1
 437.099609375 0 l 1,0,-1
EndSplineSet
Validated: 524289
EndChar

StartChar: I
Encoding: 73 73 45
Width: 361
GlyphClass: 1
Flags: W
LayerCount: 2
Fore
SplineSet
327.099609375 0 m 1,0,-1
 98.900390625 0 l 1,1,-1
 98.900390625 106 l 1,2,-1
 164.700195312 106 l 1,3,-1
 164.700195312 570 l 1,4,-1
 98.900390625 570 l 1,5,-1
 98.900390625 676 l 1,6,-1
 327.099609375 676 l 1,7,-1
 327.099609375 570 l 1,8,-1
 261.299804688 570 l 1,9,-1
 261.299804688 106 l 1,10,-1
 327.099609375 106 l 1,11,-1
 327.099609375 0 l 1,0,-1
EndSplineSet
Validated: 524289
EndChar

StartChar: J
Encoding: 74 74 46
Width: 373
GlyphClass: 1
Flags: W
LayerCount: 2
Fore
SplineSet
94.2998046875 134 m 1,0,1
 104.799804688 127 104.799804688 127 129.650390625 117 c 128,-1,2
 154.5 107 154.5 107 167.099609375 107 c 0,3,4
 191.599609375 107 191.599609375 107 203.150390625 116 c 128,-1,5
 214.700195312 125 214.700195312 125 219.599609375 150 c 256,6,7
 224.5 175 224.5 175 224.5 221 c 2,8,-1
 224.5 676 l 1,9,-1
 321.099609375 676 l 1,10,-1
 321.099609375 184 l 2,11,12
 321.099609375 76 321.099609375 76 283.299804688 30.5 c 128,-1,13
 245.5 -15 245.5 -15 165 -15 c 0,14,15
 145.400390625 -15 145.400390625 -15 113.200195312 -6.5 c 128,-1,16
 81 2 81 2 64.900390625 11 c 1,17,-1
 94.2998046875 134 l 1,0,1
EndSplineSet
Validated: 524289
EndChar

StartChar: K
Encoding: 75 75 47
Width: 540
GlyphClass: 1
Flags: W
LayerCount: 2
Fore
SplineSet
409.900390625 0 m 1,0,-1
 279 282 l 1,1,-1
 250.299804688 235 l 1,2,-1
 250.299804688 0 l 1,3,-1
 153.700195312 0 l 1,4,-1
 153.700195312 676 l 1,5,-1
 250.299804688 676 l 1,6,-1
 250.299804688 412 l 1,7,-1
 405 676 l 1,8,-1
 517.700195312 676 l 1,9,-1
 341.299804688 385 l 1,10,-1
 530.299804688 0 l 1,11,-1
 409.900390625 0 l 1,0,-1
EndSplineSet
Validated: 524289
EndChar

StartChar: L
Encoding: 76 76 48
Width: 439
GlyphClass: 1
Flags: W
LayerCount: 2
Fore
SplineSet
136.299804688 0 m 1,0,-1
 136.299804688 676 l 1,1,-1
 232.900390625 676 l 1,2,-1
 232.900390625 126 l 1,3,-1
 431.700195312 126 l 1,4,-1
 431.700195312 0 l 1,5,-1
 136.299804688 0 l 1,0,-1
EndSplineSet
Validated: 524289
EndChar

StartChar: M
Encoding: 77 77 49
Width: 691
GlyphClass: 1
Flags: W
LayerCount: 2
Fore
SplineSet
547.700195312 0 m 1,0,-1
 547.700195312 454 l 1,1,-1
 434.299804688 172 l 1,2,-1
 378.299804688 172 l 1,3,-1
 266.299804688 454 l 1,4,-1
 266.299804688 0 l 1,5,-1
 173.200195312 0 l 1,6,-1
 173.200195312 676 l 1,7,-1
 284.5 676 l 1,8,-1
 407.700195312 355 l 1,9,-1
 532.299804688 676 l 1,10,-1
 640.799804688 676 l 1,11,-1
 640.799804688 0 l 1,12,-1
 547.700195312 0 l 1,0,-1
EndSplineSet
Validated: 524289
EndChar

StartChar: N
Encoding: 78 78 50
Width: 584
GlyphClass: 1
Flags: W
LayerCount: 2
Fore
SplineSet
421.150390625 0 m 1,0,-1
 248.950195312 483 l 1,1,-1
 248.950195312 0 l 1,2,-1
 154.450195312 0 l 1,3,-1
 154.450195312 676 l 1,4,-1
 279.75 676 l 1,5,-1
 440.049804688 220 l 1,6,-1
 440.049804688 676 l 1,7,-1
 534.549804688 676 l 1,8,-1
 534.549804688 0 l 1,9,-1
 421.150390625 0 l 1,0,-1
EndSplineSet
Validated: 524289
EndChar

StartChar: O
Encoding: 79 79 51
Width: 566
GlyphClass: 1
Flags: W
LayerCount: 2
Fore
SplineSet
333 690 m 128,-1,1
 536.700195312 690 536.700195312 690 536.700195312 338 c 0,2,3
 536.700195312 170 536.700195312 170 487 78 c 128,-1,4
 437.299804688 -14 437.299804688 -14 333 -14 c 0,5,6
 228 -14 228 -14 178.650390625 78.5 c 128,-1,7
 129.299804688 171 129.299804688 171 129.299804688 338 c 0,8,0
 129.299804688 690 129.299804688 690 333 690 c 128,-1,1
437.299804688 338 m 128,-1,10
 437.299804688 458 437.299804688 458 413.5 513 c 128,-1,11
 389.700195312 568 389.700195312 568 333 568 c 128,-1,12
 276.299804688 568 276.299804688 568 252.5 513 c 128,-1,13
 228.700195312 458 228.700195312 458 228.700195312 338 c 128,-1,14
 228.700195312 218 228.700195312 218 252.849609375 163 c 128,-1,15
 277 108 277 108 333 108 c 0,16,17
 389.700195312 108 389.700195312 108 413.5 163 c 128,-1,9
 437.299804688 218 437.299804688 218 437.299804688 338 c 128,-1,10
EndSplineSet
Validated: 524289
EndChar

StartChar: P
Encoding: 80 80 52
Width: 518
GlyphClass: 1
Flags: W
LayerCount: 2
Fore
SplineSet
324.900390625 676 m 2,0,1
 492.900390625 676 492.900390625 676 492.900390625 449 c 0,2,3
 492.900390625 324 492.900390625 324 451.950195312 266.5 c 128,-1,4
 411 209 411 209 322.099609375 209 c 2,5,-1
 243.700195312 209 l 1,6,-1
 243.700195312 0 l 1,7,-1
 147.099609375 0 l 1,8,-1
 147.099609375 676 l 1,9,-1
 324.900390625 676 l 2,0,1
282.900390625 329 m 2,10,11
 347.299804688 329 347.299804688 329 370.400390625 350.5 c 128,-1,12
 393.5 372 393.5 372 393.5 448 c 0,13,14
 393.5 510 393.5 510 369.349609375 533 c 128,-1,15
 345.200195312 556 345.200195312 556 292 556 c 2,16,-1
 243.700195312 556 l 1,17,-1
 243.700195312 329 l 1,18,-1
 282.900390625 329 l 2,10,11
EndSplineSet
Validated: 524289
EndChar

StartChar: Q
Encoding: 81 81 53
Width: 566
GlyphClass: 1
Flags: W
LayerCount: 2
Fore
SplineSet
446 -57 m 0,0,1
 481 -57 481 -57 516 -42 c 1,2,-1
 538.400390625 -153 l 1,3,4
 497.799804688 -170 497.799804688 -170 443.200195312 -170 c 0,5,6
 306.700195312 -170 306.700195312 -170 285.700195312 -9 c 1,7,8
 212.900390625 7 212.900390625 7 171.25 91.5 c 128,-1,9
 129.599609375 176 129.599609375 176 129.599609375 338 c 0,10,11
 129.599609375 690 129.599609375 690 334 690 c 0,12,13
 537 690 537 690 537 338 c 0,14,15
 537 40 537 40 390.700195312 -7 c 1,16,17
 394.900390625 -36 394.900390625 -36 406.799804688 -46.5 c 128,-1,18
 418.700195312 -57 418.700195312 -57 446 -57 c 0,0,1
437.599609375 338 m 0,19,20
 437.599609375 458 437.599609375 458 413.799804688 513 c 128,-1,21
 390 568 390 568 334 568 c 0,22,23
 275.900390625 568 275.900390625 568 252.450195312 513 c 128,-1,24
 229 458 229 458 229 338 c 128,-1,25
 229 218 229 218 252.799804688 163 c 128,-1,26
 276.599609375 108 276.599609375 108 334 108 c 128,-1,27
 391.400390625 108 391.400390625 108 414.5 163.5 c 128,-1,28
 437.599609375 219 437.599609375 219 437.599609375 338 c 0,19,20
EndSplineSet
Validated: 524289
EndChar

StartChar: R
Encoding: 82 82 54
Width: 540
GlyphClass: 1
Flags: W
LayerCount: 2
Fore
SplineSet
501.599609375 475 m 0,0,1
 501.599609375 391 501.599609375 391 476.400390625 338.5 c 128,-1,2
 451.200195312 286 451.200195312 286 403.599609375 272 c 1,3,-1
 530.299804688 0 l 1,4,-1
 419.700195312 0 l 1,5,-1
 299.299804688 256 l 1,6,-1
 250.299804688 256 l 1,7,-1
 250.299804688 0 l 1,8,-1
 153.700195312 0 l 1,9,-1
 153.700195312 676 l 1,10,-1
 325.900390625 676 l 2,11,12
 414.799804688 676 414.799804688 676 458.200195312 630.5 c 128,-1,13
 501.599609375 585 501.599609375 585 501.599609375 475 c 0,0,1
403.599609375 469 m 0,14,15
 403.599609375 521 403.599609375 521 385.75 538.5 c 128,-1,16
 367.900390625 556 367.900390625 556 325.200195312 556 c 2,17,-1
 250.299804688 556 l 1,18,-1
 250.299804688 376 l 1,19,-1
 321 376 l 2,20,21
 365.799804688 376 365.799804688 376 384.700195312 394.5 c 128,-1,22
 403.599609375 413 403.599609375 413 403.599609375 469 c 0,14,15
EndSplineSet
Validated: 524289
EndChar

StartChar: S
Encoding: 83 83 55
Width: 508
GlyphClass: 1
Flags: W
LayerCount: 2
Fore
SplineSet
294.450195312 568 m 0,0,1
 261.549804688 568 261.549804688 568 240.200195312 551 c 128,-1,2
 218.849609375 534 218.849609375 534 218.849609375 496 c 0,3,4
 218.849609375 463 218.849609375 463 241.25 446 c 0,5,6
 251.75 438 251.75 438 276.25 427 c 128,-1,7
 300.75 416 300.75 416 332.25 404 c 128,-1,8
 363.75 392 363.75 392 376.349609375 387 c 0,9,10
 425.349609375 365 425.349609375 365 452.650390625 320 c 128,-1,11
 479.950195312 275 479.950195312 275 479.950195312 196 c 0,12,13
 479.950195312 89 479.950195312 89 431.299804688 37.5 c 128,-1,14
 382.650390625 -14 382.650390625 -14 295.849609375 -14 c 0,15,16
 166.349609375 -14 166.349609375 -14 111.049804688 112 c 1,17,-1
 185.25 193 l 1,18,19
 206.25 150 206.25 150 231.099609375 129 c 128,-1,20
 255.950195312 108 255.950195312 108 297.950195312 108 c 0,21,22
 381.25 108 381.25 108 381.25 186 c 0,23,24
 381.25 228 381.25 228 350.450195312 250 c 0,25,26
 335.049804688 261 335.049804688 261 297.25 275 c 0,27,28
 293.049804688 277 293.049804688 277 285.349609375 280 c 0,29,30
 261.549804688 288 261.549804688 288 249.650390625 293 c 128,-1,31
 237.75 298 237.75 298 217.099609375 308.5 c 128,-1,32
 196.450195312 319 196.450195312 319 185.25 328 c 128,-1,33
 174.049804688 337 174.049804688 337 159.700195312 353 c 128,-1,34
 145.349609375 369 145.349609375 369 138 387 c 128,-1,35
 130.650390625 405 130.650390625 405 125.400390625 430.5 c 128,-1,36
 120.150390625 456 120.150390625 456 120.150390625 486 c 0,37,38
 120.150390625 587 120.150390625 587 167.75 638.5 c 128,-1,39
 215.349609375 690 215.349609375 690 295.849609375 690 c 0,40,41
 418.349609375 690 418.349609375 690 469.450195312 570 c 1,42,-1
 395.950195312 488 l 1,43,44
 377.75 528 377.75 528 354.650390625 548 c 128,-1,45
 331.549804688 568 331.549804688 568 294.450195312 568 c 0,0,1
EndSplineSet
Validated: 524289
EndChar

StartChar: T
Encoding: 84 84 56
Width: 499
GlyphClass: 1
Flags: W
LayerCount: 2
Fore
SplineSet
342.299804688 550 m 1,0,-1
 342.299804688 0 l 1,1,-1
 245.700195312 0 l 1,2,-1
 245.700195312 550 l 1,3,-1
 100.099609375 550 l 1,4,-1
 100.099609375 676 l 1,5,-1
 487.900390625 676 l 1,6,-1
 487.900390625 550 l 1,7,-1
 342.299804688 550 l 1,0,-1
EndSplineSet
Validated: 524289
EndChar

StartChar: U
Encoding: 85 85 57
Width: 596
GlyphClass: 1
Flags: W
LayerCount: 2
Fore
SplineSet
350.299804688 107 m 128,-1,1
 407.700195312 107 407.700195312 107 428.349609375 150 c 128,-1,2
 449 193 449 193 449 290 c 2,3,-1
 449 676 l 1,4,-1
 545.599609375 676 l 1,5,-1
 545.599609375 282 l 2,6,7
 545.599609375 124 545.599609375 124 501.150390625 54.5 c 128,-1,8
 456.700195312 -15 456.700195312 -15 351 -15 c 0,9,10
 246 -15 246 -15 201.200195312 55 c 128,-1,11
 156.400390625 125 156.400390625 125 156.400390625 282 c 2,12,-1
 156.400390625 676 l 1,13,-1
 253 676 l 1,14,-1
 253 292 l 2,15,16
 253 196 253 196 272.950195312 151.5 c 128,-1,0
 292.900390625 107 292.900390625 107 350.299804688 107 c 128,-1,1
EndSplineSet
Validated: 524289
EndChar

StartChar: V
Encoding: 86 86 58
Width: 515
GlyphClass: 1
Flags: W
LayerCount: 2
Fore
SplineSet
359.849609375 0 m 1,0,-1
 245.75 0 l 1,1,-1
 100.150390625 676 l 1,2,-1
 198.150390625 676 l 1,3,-1
 304.549804688 172 l 1,4,-1
 410.950195312 676 l 1,5,-1
 506.849609375 676 l 1,6,-1
 359.849609375 0 l 1,0,-1
EndSplineSet
Validated: 524289
EndChar

StartChar: W
Encoding: 87 87 59
Width: 760
GlyphClass: 1
Flags: W
LayerCount: 2
Fore
SplineSet
623.549804688 0 m 1,0,-1
 524.849609375 0 l 1,1,-1
 445.75 447 l 1,2,-1
 365.950195312 0 l 1,3,-1
 268.650390625 0 l 1,4,-1
 148.950195312 676 l 1,5,-1
 244.849609375 676 l 1,6,-1
 320.450195312 235 l 1,7,-1
 398.849609375 676 l 1,8,-1
 494.049804688 676 l 1,9,-1
 573.150390625 232 l 1,10,-1
 650.849609375 676 l 1,11,-1
 746.049804688 676 l 1,12,-1
 623.549804688 0 l 1,0,-1
EndSplineSet
Validated: 524289
EndChar

StartChar: X
Encoding: 88 88 60
Width: 533
GlyphClass: 1
Flags: W
LayerCount: 2
Fore
SplineSet
104 0 m 1,0,-1
 262.200195312 339 l 1,1,-1
 108.200195312 676 l 1,2,-1
 218.099609375 676 l 1,3,-1
 316.099609375 448 l 1,4,-1
 417.599609375 676 l 1,5,-1
 524 676 l 1,6,-1
 368.599609375 342 l 1,7,-1
 523.299804688 0 l 1,8,-1
 414.799804688 0 l 1,9,-1
 313.299804688 233 l 1,10,-1
 210.400390625 0 l 1,11,-1
 104 0 l 1,0,-1
EndSplineSet
Validated: 524289
EndChar

StartChar: Y
Encoding: 89 89 61
Width: 493
GlyphClass: 1
Flags: W
LayerCount: 2
Fore
SplineSet
338.299804688 258 m 1,0,-1
 338.299804688 0 l 1,1,-1
 241 0 l 1,2,-1
 241 255 l 1,3,-1
 93.2998046875 676 l 1,4,-1
 198.299804688 676 l 1,5,-1
 290.700195312 393 l 1,6,-1
 385.200195312 676 l 1,7,-1
 486.700195312 676 l 1,8,-1
 338.299804688 258 l 1,0,-1
EndSplineSet
Validated: 524289
EndChar

StartChar: Z
Encoding: 90 90 62
Width: 474
GlyphClass: 1
Flags: W
LayerCount: 2
Fore
SplineSet
107.450195312 0 m 1,0,-1
 107.450195312 116 l 1,1,-1
 324.450195312 550 l 1,2,-1
 117.950195312 550 l 1,3,-1
 117.950195312 676 l 1,4,-1
 439.950195312 676 l 1,5,-1
 439.950195312 565 l 1,6,-1
 220.849609375 126 l 1,7,-1
 445.549804688 126 l 1,8,-1
 445.549804688 0 l 1,9,-1
 107.450195312 0 l 1,0,-1
EndSplineSet
Validated: 524289
EndChar

StartChar: bracketleft
Encoding: 91 91 63
Width: 323
GlyphClass: 1
Flags: W
LayerCount: 2
Fore
SplineSet
115.200195312 -193 m 1,0,-1
 115.200195312 727 l 1,1,-1
 302.799804688 727 l 1,2,-1
 302.799804688 626 l 1,3,-1
 197.099609375 626 l 1,4,-1
 197.099609375 -92 l 1,5,-1
 302.799804688 -92 l 1,6,-1
 302.799804688 -193 l 1,7,-1
 115.200195312 -193 l 1,0,-1
EndSplineSet
Validated: 524289
Substitution2: "'rtla' Right to Left Alternates lookup 0 subtable" bracketright
EndChar

StartChar: backslash
Encoding: 92 92 64
Width: 437
GlyphClass: 1
Flags: W
LayerCount: 2
Fore
SplineSet
355.900390625 -146 m 1,0,-1
 119.299804688 742 l 1,1,-1
 206.799804688 742 l 1,2,-1
 442.700195312 -146 l 1,3,-1
 355.900390625 -146 l 1,0,-1
EndSplineSet
Validated: 524289
EndChar

StartChar: bracketright
Encoding: 93 93 65
Width: 310
GlyphClass: 1
Flags: W
LayerCount: 2
Fore
SplineSet
70.2001953125 -193 m 1,0,-1
 70.2001953125 -92 l 1,1,-1
 175.900390625 -92 l 1,2,-1
 175.900390625 626 l 1,3,-1
 70.2001953125 626 l 1,4,-1
 70.2001953125 727 l 1,5,-1
 257.799804688 727 l 1,6,-1
 257.799804688 -193 l 1,7,-1
 70.2001953125 -193 l 1,0,-1
EndSplineSet
Validated: 524289
Substitution2: "'rtla' Right to Left Alternates lookup 0 subtable" bracketleft
EndChar

StartChar: asciicircum
Encoding: 94 94 66
Width: 539
GlyphClass: 1
Flags: W
LayerCount: 2
Fore
SplineSet
422.849609375 290 m 1,0,-1
 317.849609375 562 l 1,1,-1
 212.150390625 290 l 1,2,-1
 137.25 290 l 1,3,-1
 285.650390625 676 l 1,4,-1
 349.349609375 676 l 1,5,-1
 497.75 290 l 1,6,-1
 422.849609375 290 l 1,0,-1
EndSplineSet
Validated: 524289
EndChar

StartChar: underscore
Encoding: 95 95 67
Width: 425
GlyphClass: 1
Flags: W
LayerCount: 2
Fore
SplineSet
71.5 -125 m 1,0,-1
 71.5 -75 l 1,1,-1
 428.5 -75 l 1,2,-1
 428.5 -125 l 1,3,-1
 71.5 -125 l 1,0,-1
EndSplineSet
Validated: 524289
EndChar

StartChar: grave
Encoding: 96 96 68
Width: 421
GlyphClass: 1
Flags: W
LayerCount: 2
Fore
SplineSet
234.099609375 590 m 1,0,-1
 131.900390625 766 l 1,1,-1
 239.700195312 766 l 1,2,-1
 304.099609375 590 l 1,3,-1
 234.099609375 590 l 1,0,-1
EndSplineSet
Validated: 524289
EndChar

StartChar: a
Encoding: 97 97 69
Width: 468
GlyphClass: 1
Flags: W
LayerCount: 2
Fore
SplineSet
263.599609375 527 m 0,0,1
 344.799804688 527 344.799804688 527 383.299804688 487.5 c 128,-1,2
 421.799804688 448 421.799804688 448 421.799804688 348 c 2,3,-1
 421.799804688 0 l 1,4,-1
 340.599609375 0 l 1,5,-1
 340.599609375 53 l 1,6,7
 288.099609375 -15 288.099609375 -15 228.599609375 -15 c 0,8,9
 172.599609375 -15 172.599609375 -15 140.400390625 27 c 128,-1,10
 108.200195312 69 108.200195312 69 108.200195312 144 c 0,11,12
 108.200195312 191 108.200195312 191 118.700195312 224 c 128,-1,13
 129.200195312 257 129.200195312 257 150.549804688 276 c 128,-1,14
 171.900390625 295 171.900390625 295 197.099609375 304.5 c 128,-1,15
 222.299804688 314 222.299804688 314 258 319 c 2,16,-1
 333.599609375 329 l 1,17,-1
 333.599609375 352 l 2,18,19
 333.599609375 395 333.599609375 395 315.75 411 c 128,-1,20
 297.900390625 427 297.900390625 427 262.200195312 427 c 0,21,22
 203.400390625 427 203.400390625 427 182.400390625 374 c 1,23,-1
 113.799804688 437 l 1,24,25
 151.599609375 527 151.599609375 527 263.599609375 527 c 0,0,1
199.200195312 146 m 0,26,27
 199.200195312 85 199.200195312 85 248.900390625 85 c 0,28,29
 265 85 265 85 288.099609375 99.5 c 128,-1,30
 311.200195312 114 311.200195312 114 333.599609375 140 c 1,31,-1
 333.599609375 238 l 1,32,-1
 288.799804688 232 l 2,33,34
 267.799804688 229 267.799804688 229 253.450195312 225 c 128,-1,35
 239.099609375 221 239.099609375 221 225.799804688 211.5 c 128,-1,36
 212.5 202 212.5 202 205.849609375 186 c 128,-1,37
 199.200195312 170 199.200195312 170 199.200195312 146 c 0,26,27
EndSplineSet
Validated: 524289
EndChar

StartChar: b
Encoding: 98 98 70
Width: 508
GlyphClass: 1
Flags: W
LayerCount: 2
Fore
SplineSet
338 527 m 0,0,1
 477.299804688 527 477.299804688 527 477.299804688 260 c 0,2,3
 477.299804688 138 477.299804688 138 441.25 61.5 c 128,-1,4
 405.200195312 -15 405.200195312 -15 333.099609375 -15 c 0,5,6
 303.700195312 -15 303.700195312 -15 271.150390625 4.5 c 128,-1,7
 238.599609375 24 238.599609375 24 221.799804688 48 c 1,8,-1
 209.900390625 0 l 1,9,-1
 142.700195312 0 l 1,10,-1
 142.700195312 727 l 1,11,-1
 230.900390625 727 l 1,12,-1
 230.900390625 471 l 1,13,14
 279.200195312 527 279.200195312 527 338 527 c 0,0,1
307.200195312 96 m 0,15,16
 348.5 96 348.5 96 367.400390625 140.5 c 128,-1,17
 386.299804688 185 386.299804688 185 386.299804688 258 c 0,18,19
 386.299804688 333 386.299804688 333 369.849609375 374.5 c 128,-1,20
 353.400390625 416 353.400390625 416 312.799804688 416 c 0,21,22
 269.400390625 416 269.400390625 416 230.900390625 366 c 1,23,-1
 230.900390625 142 l 1,24,25
 268.700195312 96 268.700195312 96 307.200195312 96 c 0,15,16
EndSplineSet
Validated: 524289
EndChar

StartChar: c
Encoding: 99 99 71
Width: 442
GlyphClass: 1
Flags: W
LayerCount: 2
Fore
SplineSet
290.150390625 95 m 0,0,1
 315.349609375 95 315.349609375 95 331.099609375 105.5 c 128,-1,2
 346.849609375 116 346.849609375 116 360.150390625 140 c 1,3,-1
 426.650390625 73 l 1,4,5
 385.349609375 -15 385.349609375 -15 288.049804688 -15 c 0,6,7
 112.349609375 -15 112.349609375 -15 112.349609375 253 c 0,8,9
 112.349609375 383 112.349609375 383 155.75 455 c 128,-1,10
 199.150390625 527 199.150390625 527 284.549804688 527 c 0,11,12
 384.650390625 527 384.650390625 527 421.75 439 c 1,13,-1
 355.950195312 372 l 1,14,15
 332.849609375 417 332.849609375 417 286.650390625 417 c 0,16,17
 239.75 417 239.75 417 221.549804688 376.5 c 128,-1,18
 203.349609375 336 203.349609375 336 203.349609375 255 c 0,19,20
 203.349609375 173 203.349609375 173 222.25 134 c 128,-1,21
 241.150390625 95 241.150390625 95 290.150390625 95 c 0,0,1
EndSplineSet
Validated: 524289
EndChar

StartChar: d
Encoding: 100 100 72
Width: 501
GlyphClass: 1
Flags: W
LayerCount: 2
Fore
SplineSet
267.200195312 527 m 0,0,1
 293.799804688 527 293.799804688 527 320.400390625 511.5 c 128,-1,2
 347 496 347 496 363.099609375 474 c 1,3,-1
 363.099609375 727 l 1,4,-1
 451.299804688 727 l 1,5,-1
 451.299804688 0 l 1,6,-1
 370.099609375 0 l 1,7,-1
 370.099609375 50 l 1,8,9
 316.900390625 -15 316.900390625 -15 256 -15 c 0,10,11
 184.599609375 -15 184.599609375 -15 150.650390625 58 c 128,-1,12
 116.700195312 131 116.700195312 131 116.700195312 252 c 0,13,14
 116.700195312 376 116.700195312 376 154.5 451.5 c 128,-1,15
 192.299804688 527 192.299804688 527 267.200195312 527 c 0,0,1
279.799804688 96 m 0,16,17
 302.200195312 96 302.200195312 96 324.950195312 111 c 128,-1,18
 347.700195312 126 347.700195312 126 363.099609375 146 c 1,19,-1
 363.099609375 370 l 1,20,21
 327.400390625 416 327.400390625 416 286.099609375 416 c 0,22,23
 247.599609375 416 247.599609375 416 227.650390625 369.5 c 128,-1,24
 207.700195312 323 207.700195312 323 207.700195312 254 c 0,25,26
 207.700195312 96 207.700195312 96 279.799804688 96 c 0,16,17
EndSplineSet
Validated: 524289
EndChar

StartChar: e
Encoding: 101 101 73
Width: 474
GlyphClass: 1
Flags: W
LayerCount: 2
Fore
SplineSet
287.700195312 527 m 0,0,1
 365.400390625 527 365.400390625 527 404.950195312 464 c 128,-1,2
 444.5 401 444.5 401 444.5 285 c 2,3,-1
 444.5 223 l 1,4,-1
 206.5 223 l 1,5,6
 208.599609375 156 208.599609375 156 228.900390625 125.5 c 128,-1,7
 249.200195312 95 249.200195312 95 295.400390625 95 c 0,8,9
 350 95 350 95 375.200195312 140 c 1,10,-1
 441 73 l 1,11,12
 417.900390625 26 417.900390625 26 382.900390625 5.5 c 128,-1,13
 347.900390625 -15 347.900390625 -15 291.200195312 -15 c 0,14,15
 115.5 -15 115.5 -15 115.5 252 c 0,16,17
 115.5 527 115.5 527 287.700195312 527 c 0,0,1
357 310 m 1,18,19
 357 427 357 427 285.599609375 427 c 0,20,21
 247.099609375 427 247.099609375 427 231.349609375 399 c 128,-1,22
 215.599609375 371 215.599609375 371 208.599609375 310 c 1,23,-1
 357 310 l 1,18,19
EndSplineSet
Validated: 524289
EndChar

StartChar: f
Encoding: 102 102 74
Width: 282
GlyphClass: 1
Flags: W
LayerCount: 2
Fore
SplineSet
114.700195312 562 m 2,0,1
 114.700195312 656 114.700195312 656 147.25 699 c 128,-1,2
 179.799804688 742 179.799804688 742 247 742 c 0,3,4
 277.799804688 742 277.799804688 742 312.799804688 730 c 1,5,-1
 296 620 l 1,6,7
 271.5 632 271.5 632 248.400390625 632 c 0,8,9
 222.5 632 222.5 632 212.700195312 616.5 c 128,-1,10
 202.900390625 601 202.900390625 601 202.900390625 562 c 2,11,-1
 202.900390625 512 l 1,12,-1
 275.700195312 512 l 1,13,-1
 275.700195312 412 l 1,14,-1
 202.900390625 412 l 1,15,-1
 202.900390625 0 l 1,16,-1
 114.700195312 0 l 1,17,-1
 114.700195312 412 l 1,18,-1
 69.2001953125 412 l 1,19,-1
 69.2001953125 512 l 1,20,-1
 114.700195312 512 l 1,21,-1
 114.700195312 562 l 2,0,1
EndSplineSet
Validated: 524289
EndChar

StartChar: g
Encoding: 103 103 75
Width: 501
GlyphClass: 1
Flags: W
LayerCount: 2
Fore
SplineSet
267.900390625 527 m 0,0,1
 297.299804688 527 297.299804688 527 325.650390625 508.5 c 128,-1,2
 354 490 354 490 372.200195312 464 c 1,3,-1
 384.099609375 512 l 1,4,-1
 451.299804688 512 l 1,5,-1
 451.299804688 10 l 2,6,7
 451.299804688 -100 451.299804688 -100 404.400390625 -146.5 c 128,-1,8
 357.5 -193 357.5 -193 265.799804688 -193 c 0,9,10
 185.299804688 -193 185.299804688 -193 125.099609375 -149 c 1,11,-1
 151 -46 l 1,12,13
 207 -83 207 -83 265.799804688 -83 c 0,14,15
 316.900390625 -83 316.900390625 -83 340 -63 c 128,-1,16
 363.099609375 -43 363.099609375 -43 363.099609375 15 c 2,17,-1
 363.099609375 57 l 1,18,19
 319.700195312 0 319.700195312 0 257.400390625 0 c 0,20,21
 187.400390625 0 187.400390625 0 152.049804688 71.5 c 128,-1,22
 116.700195312 143 116.700195312 143 116.700195312 261 c 0,23,24
 116.700195312 341 116.700195312 341 134.549804688 401.5 c 128,-1,25
 152.400390625 462 152.400390625 462 186 494 c 0,26,27
 219.599609375 527 219.599609375 527 267.900390625 527 c 0,0,1
284 416 m 0,28,29
 248.299804688 416 248.299804688 416 228 370.5 c 128,-1,30
 207.700195312 325 207.700195312 325 207.700195312 263 c 0,31,32
 207.700195312 185 207.700195312 185 227.299804688 148 c 128,-1,33
 246.900390625 111 246.900390625 111 278.400390625 111 c 0,34,35
 321.799804688 111 321.799804688 111 363.099609375 161 c 1,36,-1
 363.099609375 370 l 1,37,38
 326.700195312 416 326.700195312 416 284 416 c 0,28,29
EndSplineSet
Validated: 524289
EndChar

StartChar: h
Encoding: 104 104 76
Width: 505
GlyphClass: 1
Flags: W
LayerCount: 2
Fore
SplineSet
349.400390625 527 m 0,0,1
 408.200195312 527 408.200195312 527 433.400390625 480 c 128,-1,2
 458.599609375 433 458.599609375 433 458.599609375 342 c 2,3,-1
 458.599609375 0 l 1,4,-1
 370.400390625 0 l 1,5,-1
 370.400390625 282 l 2,6,7
 370.400390625 363 370.400390625 363 359.900390625 389.5 c 128,-1,8
 349.400390625 416 349.400390625 416 322.099609375 416 c 0,9,10
 282.900390625 416 282.900390625 416 227.599609375 342 c 1,11,-1
 227.599609375 0 l 1,12,-1
 139.400390625 0 l 1,13,-1
 139.400390625 727 l 1,14,-1
 227.599609375 727 l 1,15,-1
 227.599609375 446 l 1,16,17
 284.299804688 527 284.299804688 527 349.400390625 527 c 0,0,1
EndSplineSet
Validated: 524289
EndChar

StartChar: i
Encoding: 105 105 77
Width: 227
GlyphClass: 1
Flags: W
LayerCount: 2
Fore
SplineSet
133.299804688 716 m 0,0,1
 159.900390625 716 159.900390625 716 171.450195312 701.5 c 128,-1,2
 183 687 183 687 183 652 c 128,-1,3
 183 617 183 617 171.099609375 602.5 c 128,-1,4
 159.200195312 588 159.200195312 588 133.299804688 588 c 128,-1,5
 107.400390625 588 107.400390625 588 96.2001953125 603 c 128,-1,6
 85 618 85 618 85 652 c 0,7,8
 85 687 85 687 96.2001953125 701.5 c 128,-1,9
 107.400390625 716 107.400390625 716 133.299804688 716 c 0,0,1
89.900390625 0 m 1,10,-1
 89.900390625 512 l 1,11,-1
 178.099609375 512 l 1,12,-1
 178.099609375 0 l 1,13,-1
 89.900390625 0 l 1,10,-1
EndSplineSet
Validated: 524289
EndChar

StartChar: j
Encoding: 106 106 78
Width: 211
GlyphClass: 1
Flags: W
LayerCount: 2
Fore
SplineSet
117.799804688 716 m 0,0,1
 144.400390625 716 144.400390625 716 155.950195312 701.5 c 128,-1,2
 167.5 687 167.5 687 167.5 652 c 128,-1,3
 167.5 617 167.5 617 155.599609375 602.5 c 128,-1,4
 143.700195312 588 143.700195312 588 117.799804688 588 c 128,-1,5
 91.900390625 588 91.900390625 588 80.7001953125 603 c 128,-1,6
 69.5 618 69.5 618 69.5 652 c 0,7,8
 69.5 687 69.5 687 80.7001953125 701.5 c 128,-1,9
 91.900390625 716 91.900390625 716 117.799804688 716 c 0,0,1
162.599609375 -22 m 2,10,11
 162.599609375 -114 162.599609375 -114 133.900390625 -153.5 c 128,-1,12
 105.200195312 -193 105.200195312 -193 40.099609375 -193 c 0,13,14
 26.099609375 -193 26.099609375 -193 0.5498046875 -188 c 128,-1,15
 -25 -183 -25 -183 -35.5 -178 c 1,16,-1
 -16.599609375 -69 l 1,17,18
 8.599609375 -83 8.599609375 -83 35.2001953125 -83 c 128,-1,19
 61.7998046875 -83 61.7998046875 -83 68.099609375 -59.5 c 128,-1,20
 74.400390625 -36 74.400390625 -36 74.400390625 18 c 2,21,-1
 74.400390625 512 l 1,22,-1
 162.599609375 512 l 1,23,-1
 162.599609375 -22 l 2,10,11
EndSplineSet
Validated: 524289
EndChar

StartChar: k
Encoding: 107 107 79
Width: 465
GlyphClass: 1
Flags: W
LayerCount: 2
Fore
SplineSet
357.650390625 0 m 1,0,-1
 261.75 212 l 1,1,-1
 227.450195312 159 l 1,2,-1
 227.450195312 0 l 1,3,-1
 139.25 0 l 1,4,-1
 139.25 727 l 1,5,-1
 227.450195312 727 l 1,6,-1
 227.450195312 311 l 1,7,-1
 347.849609375 512 l 1,8,-1
 450.049804688 512 l 1,9,-1
 314.950195312 297 l 1,10,-1
 457.75 0 l 1,11,-1
 357.650390625 0 l 1,0,-1
EndSplineSet
Validated: 524289
EndChar

StartChar: l
Encoding: 108 108 80
Width: 238
GlyphClass: 1
Flags: W
LayerCount: 2
Fore
SplineSet
100.549804688 75 m 2,0,-1
 100.549804688 727 l 1,1,-1
 188.75 727 l 1,2,-1
 188.75 75 l 2,3,4
 188.75 54 188.75 54 198.549804688 46 c 128,-1,5
 208.349609375 38 208.349609375 38 238.450195312 33 c 1,6,-1
 183.849609375 -66 l 1,7,8
 137.650390625 -66 137.650390625 -66 119.450195312 -33 c 128,-1,9
 101.25 0 101.25 0 100.549804688 75 c 2,0,-1
EndSplineSet
Validated: 524289
EndChar

StartChar: m
Encoding: 109 109 81
Width: 743
GlyphClass: 1
Flags: W
LayerCount: 2
Fore
SplineSet
596.5 527 m 0,0,1
 652.5 527 652.5 527 674.549804688 482 c 128,-1,2
 696.599609375 437 696.599609375 437 696.599609375 342 c 2,3,-1
 696.599609375 0 l 1,4,-1
 608.400390625 0 l 1,5,-1
 608.400390625 302 l 2,6,7
 608.400390625 344 608.400390625 344 605.599609375 370 c 128,-1,8
 602.799804688 396 602.799804688 396 593 407 c 0,9,10
 585.299804688 416 585.299804688 416 567.799804688 416 c 0,11,12
 547.5 416 547.5 416 525.099609375 394.5 c 128,-1,13
 502.700195312 373 502.700195312 373 483.099609375 342 c 1,14,-1
 483.099609375 0 l 1,15,-1
 394.900390625 0 l 1,16,-1
 394.900390625 302 l 2,17,18
 394.900390625 352 394.900390625 352 391.400390625 374 c 0,19,20
 388.599609375 397 388.599609375 397 380.549804688 406.5 c 128,-1,21
 372.5 416 372.5 416 354.299804688 416 c 0,22,23
 338.200195312 416 338.200195312 416 316.5 398 c 128,-1,24
 294.799804688 380 294.799804688 380 269.599609375 342 c 1,25,-1
 269.599609375 0 l 1,26,-1
 181.400390625 0 l 1,27,-1
 181.400390625 512 l 1,28,-1
 269.599609375 512 l 1,29,-1
 269.599609375 446 l 1,30,31
 294.099609375 484 294.099609375 484 321.049804688 505.5 c 128,-1,32
 348 527 348 527 380.900390625 527 c 0,33,34
 422.900390625 527 422.900390625 527 445.299804688 506.5 c 128,-1,35
 467.700195312 486 467.700195312 486 476.099609375 440 c 1,36,37
 506.900390625 484 506.900390625 484 533.849609375 505.5 c 128,-1,38
 560.799804688 527 560.799804688 527 596.5 527 c 0,0,1
EndSplineSet
Validated: 524289
EndChar

StartChar: n
Encoding: 110 110 82
Width: 505
GlyphClass: 1
Flags: W
LayerCount: 2
Fore
SplineSet
349.400390625 527 m 0,0,1
 408.200195312 527 408.200195312 527 433.400390625 481.5 c 128,-1,2
 458.599609375 436 458.599609375 436 458.599609375 342 c 2,3,-1
 458.599609375 0 l 1,4,-1
 370.400390625 0 l 1,5,-1
 370.400390625 282 l 2,6,7
 370.400390625 362 370.400390625 362 360.25 389 c 128,-1,8
 350.099609375 416 350.099609375 416 322.099609375 416 c 0,9,10
 282.900390625 416 282.900390625 416 227.599609375 342 c 1,11,-1
 227.599609375 0 l 1,12,-1
 139.400390625 0 l 1,13,-1
 139.400390625 512 l 1,14,-1
 227.599609375 512 l 1,15,-1
 227.599609375 446 l 1,16,17
 284.299804688 527 284.299804688 527 349.400390625 527 c 0,0,1
EndSplineSet
Validated: 524289
EndChar

StartChar: o
Encoding: 111 111 83
Width: 493
GlyphClass: 1
Flags: W
LayerCount: 2
Fore
SplineSet
290.849609375 527 m 0,0,1
 462.349609375 527 462.349609375 527 462.349609375 255 c 0,2,3
 462.349609375 -15 462.349609375 -15 290.849609375 -15 c 0,4,5
 118.650390625 -15 118.650390625 -15 118.650390625 255 c 0,6,7
 118.650390625 527 118.650390625 527 290.849609375 527 c 0,0,1
290.849609375 95 m 0,8,9
 335.650390625 95 335.650390625 95 353.5 135.5 c 128,-1,10
 371.349609375 176 371.349609375 176 371.349609375 255 c 0,11,12
 371.349609375 336 371.349609375 336 353.849609375 376.5 c 128,-1,13
 336.349609375 417 336.349609375 417 290.849609375 417 c 128,-1,14
 245.349609375 417 245.349609375 417 227.5 375.5 c 128,-1,15
 209.650390625 334 209.650390625 334 209.650390625 255 c 128,-1,16
 209.650390625 176 209.650390625 176 227.5 135.5 c 128,-1,17
 245.349609375 95 245.349609375 95 290.849609375 95 c 0,8,9
EndSplineSet
Validated: 524289
EndChar

StartChar: p
Encoding: 112 112 84
Width: 508
GlyphClass: 1
Flags: W
LayerCount: 2
Fore
SplineSet
338 527 m 0,0,1
 410.099609375 527 410.099609375 527 443.700195312 455 c 128,-1,2
 477.299804688 383 477.299804688 383 477.299804688 260 c 0,3,4
 477.299804688 178 477.299804688 178 459.799804688 114.5 c 128,-1,5
 442.299804688 51 442.299804688 51 409.75 18 c 128,-1,6
 377.200195312 -15 377.200195312 -15 332.400390625 -15 c 0,7,8
 272.900390625 -15 272.900390625 -15 230.900390625 38 c 1,9,-1
 230.900390625 -193 l 1,10,-1
 142.700195312 -193 l 1,11,-1
 142.700195312 512 l 1,12,-1
 223.900390625 512 l 1,13,-1
 223.900390625 462 l 1,14,15
 277.099609375 527 277.099609375 527 338 527 c 0,0,1
307.900390625 96 m 0,16,17
 346.400390625 96 346.400390625 96 366.349609375 142.5 c 128,-1,18
 386.299804688 189 386.299804688 189 386.299804688 258 c 0,19,20
 386.299804688 329 386.299804688 329 369.5 372.5 c 128,-1,21
 352.700195312 416 352.700195312 416 314.200195312 416 c 0,22,23
 291.799804688 416 291.799804688 416 269.049804688 401 c 128,-1,24
 246.299804688 386 246.299804688 386 230.900390625 366 c 1,25,-1
 230.900390625 142 l 1,26,27
 266.599609375 96 266.599609375 96 307.900390625 96 c 0,16,17
EndSplineSet
Validated: 524289
EndChar

StartChar: q
Encoding: 113 113 85
Width: 501
GlyphClass: 1
Flags: W
LayerCount: 2
Fore
SplineSet
266.5 527 m 0,0,1
 296.599609375 527 296.599609375 527 325.299804688 508.5 c 128,-1,2
 354 490 354 490 372.200195312 464 c 1,3,-1
 384.099609375 512 l 1,4,-1
 451.299804688 512 l 1,5,-1
 451.299804688 -193 l 1,6,-1
 363.099609375 -193 l 1,7,-1
 363.099609375 41 l 1,8,9
 314.799804688 -15 314.799804688 -15 256 -15 c 0,10,11
 183.900390625 -15 183.900390625 -15 150.299804688 57 c 128,-1,12
 116.700195312 129 116.700195312 129 116.700195312 252 c 0,13,14
 116.700195312 377 116.700195312 377 154.150390625 452 c 128,-1,15
 191.599609375 527 191.599609375 527 266.5 527 c 0,0,1
279.799804688 96 m 0,16,17
 302.200195312 96 302.200195312 96 324.950195312 111 c 128,-1,18
 347.700195312 126 347.700195312 126 363.099609375 146 c 1,19,-1
 363.099609375 370 l 1,20,21
 328.099609375 416 328.099609375 416 286.099609375 416 c 0,22,23
 247.599609375 416 247.599609375 416 227.650390625 369.5 c 128,-1,24
 207.700195312 323 207.700195312 323 207.700195312 254 c 0,25,26
 207.700195312 96 207.700195312 96 279.799804688 96 c 0,16,17
EndSplineSet
Validated: 524289
EndChar

StartChar: r
Encoding: 114 114 86
Width: 358
GlyphClass: 1
Flags: W
LayerCount: 2
Fore
SplineSet
337.400390625 389 m 1,0,1
 323.400390625 399 323.400390625 399 301 399 c 0,2,3
 276.5 399 276.5 399 254.450195312 382 c 128,-1,4
 232.400390625 365 232.400390625 365 209.299804688 333 c 1,5,-1
 209.299804688 0 l 1,6,-1
 121.099609375 0 l 1,7,-1
 121.099609375 512 l 1,8,-1
 209.299804688 512 l 1,9,-1
 209.299804688 439 l 1,10,11
 231.700195312 474 231.700195312 474 257.599609375 497 c 128,-1,12
 283.5 520 283.5 520 315.700195312 520 c 0,13,14
 343 520 343 520 354.900390625 510 c 1,15,-1
 337.400390625 389 l 1,0,1
EndSplineSet
Validated: 524289
EndChar

StartChar: s
Encoding: 115 115 87
Width: 424
GlyphClass: 1
Flags: W
LayerCount: 2
Fore
SplineSet
250.549804688 424 m 0,0,1
 226.75 424 226.75 424 211 412.5 c 128,-1,2
 195.25 401 195.25 401 195.25 376 c 0,3,4
 195.25 356 195.25 356 207.849609375 344 c 128,-1,5
 220.450195312 332 220.450195312 332 257.549804688 319 c 0,6,7
 318.450195312 298 318.450195312 298 344.349609375 276 c 0,8,9
 398.25 233 398.25 233 398.25 146 c 0,10,11
 398.25 66 398.25 66 358 25.5 c 128,-1,12
 317.75 -15 317.75 -15 254.049804688 -15 c 0,13,14
 141.349609375 -15 141.349609375 -15 100.75 74 c 1,15,-1
 166.549804688 140 l 1,16,17
 193.849609375 88 193.849609375 88 248.450195312 88 c 0,18,19
 311.450195312 88 311.450195312 88 311.450195312 140 c 0,20,21
 311.450195312 163 311.450195312 163 293.599609375 175.5 c 128,-1,22
 275.75 188 275.75 188 237.950195312 201 c 0,23,24
 166.549804688 223 166.549804688 223 137.5 264.5 c 128,-1,25
 108.450195312 306 108.450195312 306 108.450195312 371 c 0,26,27
 108.450195312 447 108.450195312 447 148.349609375 487 c 128,-1,28
 188.25 527 188.25 527 251.950195312 527 c 0,29,30
 300.950195312 527 300.950195312 527 337.700195312 504.5 c 128,-1,31
 374.450195312 482 374.450195312 482 393.349609375 439 c 1,32,-1
 327.549804688 372 l 1,33,34
 303.75 424 303.75 424 250.549804688 424 c 0,0,1
EndSplineSet
Validated: 524289
EndChar

StartChar: t
Encoding: 116 116 88
Width: 307
GlyphClass: 1
Flags: W
LayerCount: 2
Fore
SplineSet
199.549804688 171 m 2,0,1
 199.549804688 129 199.549804688 129 208.299804688 109 c 128,-1,2
 217.049804688 89 217.049804688 89 239.450195312 89 c 0,3,4
 263.950195312 89 263.950195312 89 287.75 103 c 1,5,-1
 303.150390625 0 l 1,6,7
 267.450195312 -15 267.450195312 -15 228.25 -15 c 0,8,9
 165.950195312 -15 165.950195312 -15 138.650390625 25 c 128,-1,10
 111.349609375 65 111.349609375 65 111.349609375 155 c 2,11,-1
 111.349609375 412 l 1,12,-1
 65.849609375 412 l 1,13,-1
 65.849609375 512 l 1,14,-1
 111.349609375 512 l 1,15,-1
 111.349609375 655 l 1,16,-1
 199.549804688 655 l 1,17,-1
 199.549804688 512 l 1,18,-1
 282.849609375 512 l 1,19,-1
 282.849609375 412 l 1,20,-1
 199.549804688 412 l 1,21,-1
 199.549804688 171 l 2,0,1
EndSplineSet
Validated: 524289
EndChar

StartChar: u
Encoding: 117 117 89
Width: 504
GlyphClass: 1
Flags: W
LayerCount: 2
Fore
SplineSet
244.599609375 -15 m 0,0,1
 185.099609375 -15 185.099609375 -15 160.25 31.5 c 128,-1,2
 135.400390625 78 135.400390625 78 135.400390625 170 c 2,3,-1
 135.400390625 512 l 1,4,-1
 223.599609375 512 l 1,5,-1
 223.599609375 230 l 2,6,7
 223.599609375 205 223.599609375 205 223.950195312 193.5 c 128,-1,8
 224.299804688 182 224.299804688 182 225.349609375 162.5 c 128,-1,9
 226.400390625 143 226.400390625 143 229.549804688 134 c 128,-1,10
 232.700195312 125 232.700195312 125 237.950195312 114.5 c 128,-1,11
 243.200195312 104 243.200195312 104 251.599609375 100 c 128,-1,12
 260 96 260 96 271.900390625 96 c 0,13,14
 311.099609375 96 311.099609375 96 366.400390625 170 c 1,15,-1
 366.400390625 512 l 1,16,-1
 454.599609375 512 l 1,17,-1
 454.599609375 0 l 1,18,-1
 366.400390625 0 l 1,19,-1
 366.400390625 66 l 1,20,21
 345.400390625 33 345.400390625 33 312.150390625 9 c 128,-1,22
 278.900390625 -15 278.900390625 -15 244.599609375 -15 c 0,0,1
EndSplineSet
Validated: 524289
EndChar

StartChar: v
Encoding: 118 118 90
Width: 431
GlyphClass: 1
Flags: W
LayerCount: 2
Fore
SplineSet
293.900390625 0 m 1,0,-1
 212.700195312 0 l 1,1,-1
 85.2998046875 512 l 1,2,-1
 175.599609375 512 l 1,3,-1
 255.400390625 175 l 1,4,-1
 334.5 512 l 1,5,-1
 422.700195312 512 l 1,6,-1
 293.900390625 0 l 1,0,-1
EndSplineSet
Validated: 524289
EndChar

StartChar: w
Encoding: 119 119 91
Width: 649
GlyphClass: 1
Flags: W
LayerCount: 2
Fore
SplineSet
544.400390625 0 m 1,0,-1
 463.900390625 0 l 1,1,-1
 383.400390625 326 l 1,2,-1
 302.200195312 0 l 1,3,-1
 221.700195312 0 l 1,4,-1
 123.700195312 512 l 1,5,-1
 215.400390625 512 l 1,6,-1
 270.700195312 182 l 1,7,-1
 351.200195312 512 l 1,8,-1
 417.700195312 512 l 1,9,-1
 498.900390625 185 l 1,10,-1
 552.099609375 512 l 1,11,-1
 640.299804688 512 l 1,12,-1
 544.400390625 0 l 1,0,-1
EndSplineSet
Validated: 524289
EndChar

StartChar: x
Encoding: 120 120 92
Width: 447
GlyphClass: 1
Flags: W
LayerCount: 2
Fore
SplineSet
333.150390625 0 m 1,0,-1
 261.75 163 l 1,1,-1
 187.549804688 0 l 1,2,-1
 89.5498046875 0 l 1,3,-1
 213.450195312 253 l 1,4,-1
 91.650390625 512 l 1,5,-1
 194.549804688 512 l 1,6,-1
 265.950195312 350 l 1,7,-1
 339.450195312 512 l 1,8,-1
 436.75 512 l 1,9,-1
 313.549804688 260 l 1,10,-1
 437.450195312 0 l 1,11,-1
 333.150390625 0 l 1,0,-1
EndSplineSet
Validated: 524289
EndChar

StartChar: y
Encoding: 121 121 93
Width: 446
GlyphClass: 1
Flags: W
LayerCount: 2
Fore
SplineSet
87.9501953125 -69 m 1,0,1
 116.650390625 -83 116.650390625 -83 139.75 -83 c 0,2,3
 159.349609375 -83 159.349609375 -83 174.400390625 -66 c 128,-1,4
 189.450195312 -49 189.450195312 -49 205.549804688 5 c 2,5,-1
 214.650390625 35 l 1,6,-1
 85.150390625 512 l 1,7,-1
 176.849609375 512 l 1,8,-1
 261.549804688 185 l 1,9,-1
 348.349609375 512 l 1,10,-1
 437.950195312 512 l 1,11,-1
 283.950195312 -35 l 2,12,13
 265.049804688 -101 265.049804688 -101 246.849609375 -133 c 0,14,15
 229.349609375 -164 229.349609375 -164 206.25 -178.5 c 128,-1,16
 183.150390625 -193 183.150390625 -193 146.049804688 -193 c 0,17,18
 106.849609375 -193 106.849609375 -193 69.0498046875 -178 c 1,19,-1
 87.9501953125 -69 l 1,0,1
EndSplineSet
Validated: 524289
EndChar

StartChar: z
Encoding: 122 122 94
Width: 385
GlyphClass: 1
Flags: W
LayerCount: 2
Fore
SplineSet
87.7001953125 0 m 1,0,-1
 87.7001953125 92 l 1,1,-1
 255 412 l 1,2,-1
 91.900390625 412 l 1,3,-1
 91.900390625 512 l 1,4,-1
 360.700195312 512 l 1,5,-1
 360.700195312 421 l 1,6,-1
 192.700195312 100 l 1,7,-1
 366.299804688 100 l 1,8,-1
 366.299804688 0 l 1,9,-1
 87.7001953125 0 l 1,0,-1
EndSplineSet
Validated: 524289
EndChar

StartChar: braceleft
Encoding: 123 123 95
Width: 382
GlyphClass: 1
Flags: W
LayerCount: 2
Fore
SplineSet
278.650390625 12 m 2,0,1
 278.650390625 -46 278.650390625 -46 293.349609375 -69 c 128,-1,2
 308.049804688 -92 308.049804688 -92 347.950195312 -92 c 2,3,-1
 361.950195312 -92 l 1,4,-1
 361.950195312 -193 l 1,5,-1
 338.150390625 -193 l 2,6,7
 265.349609375 -193 265.349609375 -193 231.049804688 -144.5 c 128,-1,8
 196.75 -96 196.75 -96 196.75 5 c 2,9,-1
 196.75 74 l 2,10,11
 196.75 140 196.75 140 177.150390625 180.5 c 128,-1,12
 157.549804688 221 157.549804688 221 118.349609375 221 c 2,13,-1
 105.049804688 221 l 1,14,-1
 105.049804688 329 l 1,15,-1
 118.349609375 329 l 2,16,17
 158.25 329 158.25 329 177.5 369 c 128,-1,18
 196.75 409 196.75 409 196.75 476 c 2,19,-1
 196.75 544 l 2,20,21
 196.75 645 196.75 645 231.049804688 693.5 c 128,-1,22
 265.349609375 742 265.349609375 742 338.150390625 742 c 2,23,-1
 361.950195312 742 l 1,24,-1
 361.950195312 641 l 1,25,-1
 347.950195312 641 l 2,26,27
 308.049804688 641 308.049804688 641 293.349609375 618 c 128,-1,28
 278.650390625 595 278.650390625 595 278.650390625 537 c 2,29,-1
 278.650390625 456 l 2,30,31
 278.650390625 389 278.650390625 389 256.599609375 343 c 128,-1,32
 234.549804688 297 234.549804688 297 196.75 274 c 1,33,34
 233.150390625 255 233.150390625 255 255.900390625 207 c 128,-1,35
 278.650390625 159 278.650390625 159 278.650390625 93 c 2,36,-1
 278.650390625 12 l 2,0,1
EndSplineSet
Validated: 524289
Substitution2: "'rtla' Right to Left Alternates lookup 0 subtable" braceright
EndChar

StartChar: bar
Encoding: 124 124 96
Width: 332
GlyphClass: 1
Flags: W
LayerCount: 2
Fore
SplineSet
154.549804688 -193 m 1,0,-1
 154.549804688 742 l 1,1,-1
 236.450195312 742 l 1,2,-1
 236.450195312 -193 l 1,3,-1
 154.549804688 -193 l 1,0,-1
EndSplineSet
Validated: 524289
EndChar

StartChar: braceright
Encoding: 125 125 97
Width: 376
GlyphClass: 1
Flags: W
LayerCount: 2
Fore
SplineSet
250.25 5 m 2,0,1
 250.25 -96 250.25 -96 215.950195312 -144.5 c 128,-1,2
 181.650390625 -193 181.650390625 -193 108.849609375 -193 c 2,3,-1
 85.0498046875 -193 l 1,4,-1
 85.0498046875 -92 l 1,5,-1
 99.0498046875 -92 l 2,6,7
 138.950195312 -92 138.950195312 -92 153.650390625 -69 c 128,-1,8
 168.349609375 -46 168.349609375 -46 168.349609375 12 c 2,9,-1
 168.349609375 93 l 2,10,11
 168.349609375 159 168.349609375 159 191.099609375 207 c 128,-1,12
 213.849609375 255 213.849609375 255 250.25 274 c 1,13,14
 212.450195312 297 212.450195312 297 190.400390625 343 c 128,-1,15
 168.349609375 389 168.349609375 389 168.349609375 456 c 2,16,-1
 168.349609375 537 l 2,17,18
 168.349609375 595 168.349609375 595 153.650390625 618 c 128,-1,19
 138.950195312 641 138.950195312 641 99.0498046875 641 c 2,20,-1
 85.0498046875 641 l 1,21,-1
 85.0498046875 742 l 1,22,-1
 108.849609375 742 l 2,23,24
 181.650390625 742 181.650390625 742 215.950195312 693.5 c 128,-1,25
 250.25 645 250.25 645 250.25 544 c 2,26,-1
 250.25 476 l 2,27,28
 250.25 409 250.25 409 269.5 369 c 128,-1,29
 288.75 329 288.75 329 328.650390625 329 c 2,30,-1
 341.950195312 329 l 1,31,-1
 341.950195312 221 l 1,32,-1
 328.650390625 221 l 2,33,34
 289.450195312 221 289.450195312 221 269.849609375 180.5 c 128,-1,35
 250.25 140 250.25 140 250.25 74 c 2,36,-1
 250.25 5 l 2,0,1
EndSplineSet
Validated: 524289
Substitution2: "'rtla' Right to Left Alternates lookup 0 subtable" braceleft
EndChar

StartChar: asciitilde
Encoding: 126 126 98
Width: 574
GlyphClass: 1
Flags: W
LayerCount: 2
Fore
SplineSet
150.549804688 395 m 1,0,1
 183.450195312 435 183.450195312 435 219.150390625 449 c 0,2,3
 234.549804688 455 234.549804688 455 259.049804688 455 c 0,4,5
 291.950195312 455 291.950195312 455 345.150390625 417 c 0,6,7
 364.75 402 364.75 402 383.650390625 390 c 128,-1,8
 402.549804688 378 402.549804688 378 420.049804688 378 c 0,9,10
 447.349609375 378 447.349609375 378 472.900390625 396.5 c 128,-1,11
 498.450195312 415 498.450195312 415 526.450195312 450 c 1,12,-1
 526.450195312 342 l 1,13,14
 503.349609375 316 503.349609375 316 478.150390625 297 c 128,-1,15
 452.950195312 278 452.950195312 278 421.450195312 278 c 0,16,17
 386.450195312 278 386.450195312 278 331.150390625 317 c 0,18,19
 310.849609375 331 310.849609375 331 292.299804688 343 c 128,-1,20
 273.75 355 273.75 355 257.650390625 355 c 0,21,22
 226.150390625 355 226.150390625 355 199.549804688 333 c 128,-1,23
 172.950195312 311 172.950195312 311 150.549804688 283 c 1,24,-1
 150.549804688 395 l 1,0,1
EndSplineSet
Validated: 524289
EndChar

StartChar: exclamdown
Encoding: 161 161 100
Width: 242
GlyphClass: 1
Flags: W
LayerCount: 2
Fore
SplineSet
142.150390625 541 m 128,-1,1
 172.25 541 172.25 541 185.200195312 524 c 128,-1,2
 198.150390625 507 198.150390625 507 198.150390625 466 c 0,3,4
 198.150390625 424 198.150390625 424 185.549804688 407.5 c 128,-1,5
 172.950195312 391 172.950195312 391 142.150390625 391 c 0,6,7
 112.049804688 391 112.049804688 391 99.4501953125 408 c 128,-1,8
 86.849609375 425 86.849609375 425 86.849609375 466 c 128,-1,9
 86.849609375 507 86.849609375 507 99.4501953125 524 c 128,-1,0
 112.049804688 541 112.049804688 541 142.150390625 541 c 128,-1,1
94.5498046875 -193 m 1,10,-1
 106.450195312 324 l 1,11,-1
 179.950195312 324 l 1,12,-1
 190.450195312 -193 l 1,13,-1
 94.5498046875 -193 l 1,10,-1
EndSplineSet
Validated: 524289
EndChar

StartChar: cent
Encoding: 162 162 101
Width: 442
GlyphClass: 1
Flags: W
LayerCount: 2
Fore
SplineSet
426.650390625 73 m 1,0,1
 385.349609375 -15 385.349609375 -15 288.049804688 -15 c 1,2,-1
 269.150390625 -14 l 1,3,-1
 251.650390625 -127 l 1,4,-1
 189.349609375 -127 l 1,5,-1
 209.650390625 3 l 1,6,7
 112.349609375 56 112.349609375 56 112.349609375 253 c 0,8,9
 112.349609375 383 112.349609375 383 155.75 455 c 128,-1,10
 199.150390625 527 199.150390625 527 284.549804688 527 c 2,11,-1
 290.849609375 527 l 1,12,-1
 306.950195312 629 l 1,13,-1
 368.549804688 629 l 1,14,-1
 350.349609375 513 l 1,15,16
 400.049804688 489 400.049804688 489 421.75 439 c 1,17,-1
 355.950195312 372 l 1,18,19
 346.849609375 389 346.849609375 389 333.549804688 402 c 1,20,-1
 285.950195312 95 l 1,21,-1
 290.150390625 95 l 2,22,23
 335.650390625 95 335.650390625 95 360.150390625 140 c 1,24,-1
 426.650390625 73 l 1,0,1
274.049804688 416 m 1,25,26
 234.150390625 412 234.150390625 412 218.75 371.5 c 128,-1,27
 203.349609375 331 203.349609375 331 203.349609375 255 c 0,28,29
 203.349609375 159 203.349609375 159 228.549804688 123 c 1,30,-1
 274.049804688 416 l 1,25,26
EndSplineSet
Validated: 524289
EndChar

StartChar: sterling
Encoding: 163 163 102
Width: 533
GlyphClass: 1
Flags: W
LayerCount: 2
Fore
SplineSet
338.75 584 m 0,0,1
 300.950195312 584 300.950195312 584 279.950195312 559.5 c 128,-1,2
 258.950195312 535 258.950195312 535 258.950195312 487 c 0,3,4
 258.950195312 451 258.950195312 451 273.650390625 388 c 2,5,-1
 277.849609375 368 l 1,6,-1
 407.349609375 368 l 1,7,-1
 407.349609375 276 l 1,8,-1
 280.650390625 276 l 1,9,10
 280.650390625 167 280.650390625 167 240.75 117 c 1,11,-1
 508.849609375 117 l 1,12,-1
 508.849609375 0 l 1,13,-1
 130.150390625 0 l 1,14,-1
 130.150390625 104 l 1,15,16
 170.75 115 170.75 115 184.049804688 186 c 0,17,18
 190.349609375 218 190.349609375 218 190.349609375 276 c 1,19,-1
 138.549804688 276 l 1,20,-1
 138.549804688 368 l 1,21,-1
 185.450195312 368 l 1,22,-1
 181.950195312 390 l 1,23,24
 167.25 452 167.25 452 167.25 501 c 0,25,26
 167.25 595 167.25 595 214.849609375 642.5 c 128,-1,27
 262.450195312 690 262.450195312 690 338.75 690 c 0,28,29
 456.349609375 690 456.349609375 690 503.25 578 c 1,30,-1
 429.049804688 514 l 1,31,32
 415.75 544 415.75 544 391.950195312 564 c 128,-1,33
 368.150390625 584 368.150390625 584 338.75 584 c 0,0,1
EndSplineSet
Validated: 524289
EndChar

StartChar: currency
Encoding: 164 164 103
Width: 531
GlyphClass: 1
Flags: W
LayerCount: 2
Fore
SplineSet
312.150390625 524 m 256,0,1
 356.950195312 524 356.950195312 524 392.650390625 489 c 1,2,-1
 440.950195312 557 l 1,3,-1
 483.650390625 496 l 1,4,-1
 434.650390625 429 l 1,5,6
 459.150390625 376 459.150390625 376 459.150390625 316 c 128,-1,7
 459.150390625 256 459.150390625 256 434.650390625 203 c 1,8,-1
 483.650390625 137 l 1,9,-1
 440.950195312 76 l 1,10,-1
 392.650390625 144 l 1,11,12
 357.650390625 109 357.650390625 109 312.150390625 109 c 0,13,14
 267.349609375 109 267.349609375 109 231.650390625 144 c 1,15,-1
 183.349609375 76 l 1,16,-1
 141.349609375 137 l 1,17,-1
 189.650390625 203 l 1,18,19
 165.150390625 259 165.150390625 259 165.150390625 316 c 0,20,21
 165.150390625 377 165.150390625 377 189.650390625 429 c 1,22,-1
 141.349609375 496 l 1,23,-1
 183.349609375 557 l 1,24,-1
 231.650390625 489 l 1,25,26
 267.349609375 524 267.349609375 524 312.150390625 524 c 256,0,1
225.349609375 317 m 256,27,28
 225.349609375 267 225.349609375 267 251.25 230.5 c 128,-1,29
 277.150390625 194 277.150390625 194 312.150390625 194 c 0,30,31
 336.650390625 194 336.650390625 194 356.25 211.5 c 128,-1,32
 375.849609375 229 375.849609375 229 387.049804688 256 c 0,33,34
 398.950195312 285 398.950195312 285 398.950195312 317 c 0,35,36
 398.950195312 366 398.950195312 366 373.049804688 402.5 c 128,-1,37
 347.150390625 439 347.150390625 439 312.849609375 439 c 0,38,39
 277.150390625 439 277.150390625 439 251.25 403 c 128,-1,40
 225.349609375 367 225.349609375 367 225.349609375 317 c 256,27,28
EndSplineSet
Validated: 524289
EndChar

StartChar: yen
Encoding: 165 165 104
Width: 531
GlyphClass: 1
Flags: W
LayerCount: 2
Fore
SplineSet
410.849609375 413 m 1,0,-1
 482.950195312 413 l 1,1,-1
 482.950195312 326 l 1,2,-1
 375.849609375 326 l 1,3,-1
 360.450195312 287 l 1,4,-1
 360.450195312 272 l 1,5,-1
 482.950195312 272 l 1,6,-1
 482.950195312 186 l 1,7,-1
 360.450195312 186 l 1,8,-1
 360.450195312 0 l 1,9,-1
 263.849609375 0 l 1,10,-1
 263.849609375 186 l 1,11,-1
 140.650390625 186 l 1,12,-1
 140.650390625 272 l 1,13,-1
 263.849609375 272 l 1,14,-1
 263.849609375 285 l 1,15,-1
 247.75 326 l 1,16,-1
 140.650390625 326 l 1,17,-1
 140.650390625 413 l 1,18,-1
 213.450195312 413 l 1,19,-1
 109.150390625 676 l 1,20,-1
 214.150390625 676 l 1,21,-1
 313.549804688 413 l 1,22,-1
 414.349609375 676 l 1,23,-1
 515.849609375 676 l 1,24,-1
 410.849609375 413 l 1,0,-1
EndSplineSet
Validated: 524289
EndChar

StartChar: brokenbar
Encoding: 166 166 105
Width: 332
GlyphClass: 1
Flags: W
LayerCount: 2
Fore
SplineSet
154.549804688 411 m 1,0,-1
 154.549804688 742 l 1,1,-1
 236.450195312 742 l 1,2,-1
 236.450195312 411 l 1,3,-1
 154.549804688 411 l 1,0,-1
154.549804688 -193 m 1,4,-1
 154.549804688 138 l 1,5,-1
 236.450195312 138 l 1,6,-1
 236.450195312 -193 l 1,7,-1
 154.549804688 -193 l 1,4,-1
EndSplineSet
Validated: 524289
EndChar

StartChar: section
Encoding: 167 167 106
Width: 460
GlyphClass: 1
Flags: W
LayerCount: 2
Fore
SplineSet
133.799804688 533 m 0,0,1
 133.799804688 614 133.799804688 614 173 652 c 128,-1,2
 212.200195312 690 212.200195312 690 280.099609375 690 c 0,3,4
 376.700195312 690 376.700195312 690 419.400390625 612 c 1,5,-1
 359.200195312 548 l 1,6,7
 330.5 589 330.5 589 281.5 589 c 0,8,9
 250 589 250 589 236 575.5 c 128,-1,10
 222 562 222 562 222 542 c 0,11,12
 222 527 222 527 237.400390625 508 c 128,-1,13
 252.799804688 489 252.799804688 489 323.5 427 c 0,14,15
 366.900390625 388 366.900390625 388 387.200195312 362 c 0,16,17
 429.200195312 307 429.200195312 307 429.200195312 245 c 0,18,19
 429.200195312 152 429.200195312 152 357.099609375 95 c 1,20,21
 383.700195312 66 383.700195312 66 395.950195312 38 c 128,-1,22
 408.200195312 10 408.200195312 10 408.200195312 -21 c 0,23,24
 408.200195312 -102 408.200195312 -102 369 -140.5 c 128,-1,25
 329.799804688 -179 329.799804688 -179 264 -179 c 0,26,27
 166.700195312 -179 166.700195312 -179 122.599609375 -101 c 1,28,-1
 182.799804688 -37 l 1,29,30
 208.700195312 -78 208.700195312 -78 262.599609375 -78 c 0,31,32
 285.700195312 -78 285.700195312 -78 302.849609375 -67 c 128,-1,33
 320 -56 320 -56 320 -33 c 0,34,35
 320 -11 320 -11 294.450195312 14.5 c 128,-1,36
 268.900390625 40 268.900390625 40 218.5 84 c 0,37,38
 166 129 166 129 139.400390625 170 c 128,-1,39
 112.799804688 211 112.799804688 211 112.799804688 266 c 0,40,41
 112.799804688 358 112.799804688 358 184.900390625 416 c 1,42,43
 160.400390625 442 160.400390625 442 147.099609375 470 c 128,-1,44
 133.799804688 498 133.799804688 498 133.799804688 533 c 0,0,1
345.900390625 241 m 0,45,46
 345.900390625 251 345.900390625 251 342.400390625 260.5 c 128,-1,47
 338.900390625 270 338.900390625 270 335.049804688 275 c 128,-1,48
 331.200195312 280 331.200195312 280 324.200195312 288 c 0,49,50
 316.5 297 316.5 297 307.049804688 306 c 128,-1,51
 297.599609375 315 297.599609375 315 290.950195312 321.5 c 128,-1,52
 284.299804688 328 284.299804688 328 271.349609375 339 c 128,-1,53
 258.400390625 350 258.400390625 350 251.400390625 356 c 1,54,55
 224.099609375 332 224.099609375 332 210.099609375 311.5 c 128,-1,56
 196.099609375 291 196.099609375 291 196.099609375 268 c 0,57,58
 196.099609375 248 196.099609375 248 219.200195312 222 c 128,-1,59
 242.299804688 196 242.299804688 196 290.599609375 154 c 1,60,61
 313.700195312 174 313.700195312 174 329.799804688 197 c 128,-1,62
 345.900390625 220 345.900390625 220 345.900390625 241 c 0,45,46
EndSplineSet
Validated: 524289
EndChar

StartChar: dieresis
Encoding: 168 168 107
Width: 432
GlyphClass: 1
Flags: W
LayerCount: 2
Fore
SplineSet
327.75 716 m 0,0,1
 354.349609375 716 354.349609375 716 365.900390625 701.5 c 128,-1,2
 377.450195312 687 377.450195312 687 377.450195312 652 c 128,-1,3
 377.450195312 617 377.450195312 617 365.549804688 602.5 c 128,-1,4
 353.650390625 588 353.650390625 588 327.75 588 c 128,-1,5
 301.849609375 588 301.849609375 588 290.650390625 603 c 128,-1,6
 279.450195312 618 279.450195312 618 279.450195312 652 c 0,7,8
 279.450195312 687 279.450195312 687 290.650390625 701.5 c 128,-1,9
 301.849609375 716 301.849609375 716 327.75 716 c 0,0,1
175.849609375 716 m 0,10,11
 202.450195312 716 202.450195312 716 214 701.5 c 128,-1,12
 225.549804688 687 225.549804688 687 225.549804688 652 c 128,-1,13
 225.549804688 617 225.549804688 617 213.650390625 602.5 c 128,-1,14
 201.75 588 201.75 588 175.849609375 588 c 128,-1,15
 149.950195312 588 149.950195312 588 138.75 603 c 128,-1,16
 127.549804688 618 127.549804688 618 127.549804688 652 c 0,17,18
 127.549804688 687 127.549804688 687 138.75 701.5 c 128,-1,19
 149.950195312 716 149.950195312 716 175.849609375 716 c 0,10,11
EndSplineSet
Validated: 524289
EndChar

StartChar: copyright
Encoding: 169 169 108
Width: 747
GlyphClass: 1
Flags: W
LayerCount: 2
Fore
SplineSet
439.849609375 -96 m 0,0,1
 360.75 -96 360.75 -96 297.75 -40.5 c 128,-1,2
 234.75 15 234.75 15 200.450195312 101 c 0,3,4
 164.75 192 164.75 192 164.75 298 c 0,5,6
 164.75 411 164.75 411 202.900390625 499.5 c 128,-1,7
 241.049804688 588 241.049804688 588 301.25 638 c 0,8,9
 364.950195312 690 364.950195312 690 439.849609375 690 c 0,10,11
 518.950195312 690 518.950195312 690 581.25 635 c 128,-1,12
 643.549804688 580 643.549804688 580 677.849609375 495 c 0,13,14
 714.25 404 714.25 404 714.25 298 c 0,15,16
 714.25 185 714.25 185 676.099609375 96 c 128,-1,17
 637.950195312 7 637.950195312 7 578.450195312 -43 c 0,18,19
 514.049804688 -96 514.049804688 -96 439.849609375 -96 c 0,0,1
439.849609375 -20 m 0,20,21
 502.849609375 -20 502.849609375 -20 552.200195312 24 c 128,-1,22
 601.549804688 68 601.549804688 68 629.549804688 137 c 0,23,24
 659.650390625 211 659.650390625 211 659.650390625 298 c 0,25,26
 659.650390625 388 659.650390625 388 628.5 460 c 128,-1,27
 597.349609375 532 597.349609375 532 549.75 572 c 0,28,29
 498.650390625 614 498.650390625 614 439.849609375 614 c 0,30,31
 376.849609375 614 376.849609375 614 326.450195312 569.5 c 128,-1,32
 276.049804688 525 276.049804688 525 249.450195312 456 c 0,33,34
 220.049804688 382 220.049804688 382 220.049804688 298 c 0,35,36
 220.049804688 207 220.049804688 207 251.200195312 134 c 128,-1,37
 282.349609375 61 282.349609375 61 330.650390625 22 c 0,38,39
 381.049804688 -20 381.049804688 -20 439.849609375 -20 c 0,20,21
377.549804688 299 m 256,40,41
 377.549804688 233 377.549804688 233 392.599609375 203 c 128,-1,42
 407.650390625 173 407.650390625 173 446.849609375 173 c 0,43,44
 469.25 173 469.25 173 482.549804688 187 c 128,-1,45
 495.849609375 201 495.849609375 201 508.450195312 225 c 1,46,-1
 570.049804688 178 l 1,47,48
 545.549804688 135 545.549804688 135 529.450195312 118 c 0,49,50
 496.549804688 83 496.549804688 83 448.25 83 c 0,51,52
 304.049804688 83 304.049804688 83 304.049804688 299 c 0,53,54
 304.049804688 407 304.049804688 407 338.700195312 461.5 c 128,-1,55
 373.349609375 516 373.349609375 516 446.849609375 516 c 0,56,57
 492.349609375 516 492.349609375 516 518.599609375 491 c 128,-1,58
 544.849609375 466 544.849609375 466 564.450195312 421 c 1,59,-1
 504.25 372 l 1,60,61
 493.049804688 395 493.049804688 395 481.5 410.5 c 128,-1,62
 469.950195312 426 469.950195312 426 446.150390625 426 c 0,63,64
 406.950195312 426 406.950195312 426 392.25 395.5 c 128,-1,65
 377.549804688 365 377.549804688 365 377.549804688 299 c 256,40,41
EndSplineSet
Validated: 524289
EndChar

StartChar: ordfeminine
Encoding: 170 170 109
Width: 342
GlyphClass: 1
Flags: W
LayerCount: 2
Fore
SplineSet
191.299804688 742 m 0,0,1
 243.799804688 742 243.799804688 742 269.349609375 716.5 c 128,-1,2
 294.900390625 691 294.900390625 691 294.900390625 624 c 2,3,-1
 294.900390625 399 l 1,4,-1
 235.400390625 399 l 1,5,-1
 235.400390625 427 l 1,6,7
 203.200195312 390 203.200195312 390 168.200195312 390 c 0,8,9
 131.099609375 390 131.099609375 390 110.099609375 417.5 c 128,-1,10
 89.099609375 445 89.099609375 445 89.099609375 495 c 0,11,12
 89.099609375 553 89.099609375 553 113.950195312 579 c 128,-1,13
 138.799804688 605 138.799804688 605 187.099609375 611 c 2,14,-1
 231.200195312 617 l 1,15,-1
 231.200195312 627 l 2,16,17
 231.200195312 652 231.200195312 652 221.400390625 660.5 c 128,-1,18
 211.599609375 669 211.599609375 669 189.900390625 669 c 0,19,20
 155.599609375 669 155.599609375 669 141.599609375 634 c 1,21,-1
 91.2001953125 679 l 1,22,23
 116.400390625 742 116.400390625 742 191.299804688 742 c 0,0,1
154.900390625 497 m 0,24,25
 154.900390625 478 154.900390625 478 161.200195312 470.5 c 128,-1,26
 167.5 463 167.5 463 181.5 463 c 0,27,28
 203.200195312 463 203.200195312 463 231.200195312 495 c 1,29,-1
 231.200195312 549 l 1,30,-1
 208.099609375 546 l 2,31,32
 189.900390625 544 189.900390625 544 179.75 540.5 c 128,-1,33
 169.599609375 537 169.599609375 537 162.25 526 c 128,-1,34
 154.900390625 515 154.900390625 515 154.900390625 497 c 0,24,25
EndSplineSet
Validated: 524289
EndChar

StartChar: guillemotleft
Encoding: 171 171 110
Width: 594
GlyphClass: 1
Flags: W
LayerCount: 2
Fore
SplineSet
464.150390625 26 m 1,0,-1
 320.650390625 256 l 1,1,-1
 464.150390625 486 l 1,2,-1
 566.349609375 486 l 1,3,-1
 422.849609375 256 l 1,4,-1
 566.349609375 26 l 1,5,-1
 464.150390625 26 l 1,0,-1
268.150390625 26 m 1,6,-1
 124.650390625 256 l 1,7,-1
 268.150390625 486 l 1,8,-1
 370.349609375 486 l 1,9,-1
 226.849609375 256 l 1,10,-1
 370.349609375 26 l 1,11,-1
 268.150390625 26 l 1,6,-1
EndSplineSet
Validated: 524289
EndChar

StartChar: logicalnot
Encoding: 172 172 111
Width: 591
GlyphClass: 1
Flags: W
LayerCount: 2
Fore
SplineSet
476.25 158 m 1,0,-1
 476.25 391 l 1,1,-1
 150.049804688 391 l 1,2,-1
 150.049804688 491 l 1,3,-1
 546.950195312 491 l 1,4,-1
 546.950195312 158 l 1,5,-1
 476.25 158 l 1,0,-1
EndSplineSet
Validated: 524289
EndChar

StartChar: uni00AD
Encoding: 173 173 112
Width: 325
GlyphClass: 1
Flags: W
LayerCount: 2
Fore
SplineSet
85.599609375 195 m 1,0,-1
 85.599609375 319 l 1,1,-1
 298.400390625 319 l 1,2,-1
 298.400390625 195 l 1,3,-1
 85.599609375 195 l 1,0,-1
EndSplineSet
Validated: 524289
EndChar

StartChar: registered
Encoding: 174 174 113
Width: 747
GlyphClass: 1
Flags: W
LayerCount: 2
Fore
SplineSet
439.849609375 -96 m 0,0,1
 360.75 -96 360.75 -96 297.75 -40.5 c 128,-1,2
 234.75 15 234.75 15 200.450195312 101 c 0,3,4
 164.75 192 164.75 192 164.75 298 c 0,5,6
 164.75 411 164.75 411 202.900390625 499.5 c 128,-1,7
 241.049804688 588 241.049804688 588 301.25 638 c 0,8,9
 364.950195312 690 364.950195312 690 439.849609375 690 c 0,10,11
 518.950195312 690 518.950195312 690 581.25 635 c 128,-1,12
 643.549804688 580 643.549804688 580 677.849609375 495 c 0,13,14
 714.25 404 714.25 404 714.25 298 c 0,15,16
 714.25 185 714.25 185 676.099609375 96 c 128,-1,17
 637.950195312 7 637.950195312 7 578.450195312 -43 c 0,18,19
 514.049804688 -96 514.049804688 -96 439.849609375 -96 c 0,0,1
439.849609375 -20 m 0,20,21
 502.849609375 -20 502.849609375 -20 552.200195312 24 c 128,-1,22
 601.549804688 68 601.549804688 68 629.549804688 137 c 0,23,24
 659.650390625 211 659.650390625 211 659.650390625 298 c 0,25,26
 659.650390625 388 659.650390625 388 628.5 460 c 128,-1,27
 597.349609375 532 597.349609375 532 549.75 572 c 0,28,29
 498.650390625 614 498.650390625 614 439.849609375 614 c 0,30,31
 376.849609375 614 376.849609375 614 326.450195312 569.5 c 128,-1,32
 276.049804688 525 276.049804688 525 249.450195312 456 c 0,33,34
 220.049804688 382 220.049804688 382 220.049804688 298 c 0,35,36
 220.049804688 207 220.049804688 207 251.200195312 134 c 128,-1,37
 282.349609375 61 282.349609375 61 330.650390625 22 c 0,38,39
 381.049804688 -20 381.049804688 -20 439.849609375 -20 c 0,20,21
437.049804688 513 m 2,40,41
 495.150390625 513 495.150390625 513 524.549804688 484.5 c 128,-1,42
 553.950195312 456 553.950195312 456 553.950195312 386 c 0,43,44
 553.950195312 296 553.950195312 296 504.25 266 c 1,45,-1
 586.150390625 98 l 1,46,-1
 500.75 98 l 1,47,-1
 428.650390625 248 l 1,48,-1
 402.75 248 l 1,49,-1
 402.75 98 l 1,50,-1
 332.75 98 l 1,51,-1
 332.75 513 l 1,52,-1
 437.049804688 513 l 2,40,41
481.150390625 381 m 0,53,54
 481.150390625 409 481.150390625 409 472.049804688 418 c 128,-1,55
 462.950195312 427 462.950195312 427 438.450195312 427 c 2,56,-1
 402.75 427 l 1,57,-1
 402.75 333 l 1,58,-1
 435.650390625 333 l 2,59,60
 461.549804688 333 461.549804688 333 471.349609375 341.5 c 128,-1,61
 481.150390625 350 481.150390625 350 481.150390625 381 c 0,53,54
EndSplineSet
Validated: 524289
EndChar

StartChar: macron
Encoding: 175 175 114
Width: 432
GlyphClass: 1
Flags: W
LayerCount: 2
Fore
SplineSet
140.200195312 613 m 1,0,-1
 140.200195312 703 l 1,1,-1
 369.799804688 703 l 1,2,-1
 369.799804688 613 l 1,3,-1
 140.200195312 613 l 1,0,-1
EndSplineSet
Validated: 524289
EndChar

StartChar: degree
Encoding: 176 176 115
Width: 359
GlyphClass: 1
Flags: W
LayerCount: 2
Fore
SplineSet
212 757 m 0,0,1
 255.400390625 757 255.400390625 757 286.900390625 712.5 c 128,-1,2
 318.400390625 668 318.400390625 668 318.400390625 606 c 0,3,4
 318.400390625 562 318.400390625 562 303.700195312 528.5 c 128,-1,5
 289 495 289 495 265.200195312 474 c 0,6,7
 240 453 240 453 212.700195312 453 c 0,8,9
 182.599609375 453 182.599609375 453 157.75 475 c 128,-1,10
 132.900390625 497 132.900390625 497 119.599609375 530 c 0,11,12
 105.599609375 564 105.599609375 564 105.599609375 606 c 0,13,14
 105.599609375 668 105.599609375 668 136.75 712.5 c 128,-1,15
 167.900390625 757 167.900390625 757 212 757 c 0,0,1
212.700195312 541 m 0,16,17
 230.900390625 541 230.900390625 541 243.849609375 560 c 128,-1,18
 256.799804688 579 256.799804688 579 256.799804688 605 c 256,19,20
 256.799804688 631 256.799804688 631 243.849609375 650 c 128,-1,21
 230.900390625 669 230.900390625 669 212.700195312 669 c 0,22,23
 193.799804688 669 193.799804688 669 180.5 650.5 c 128,-1,24
 167.200195312 632 167.200195312 632 167.200195312 606 c 0,25,26
 167.200195312 579 167.200195312 579 180.5 560 c 128,-1,27
 193.799804688 541 193.799804688 541 212.700195312 541 c 0,16,17
EndSplineSet
Validated: 524289
EndChar

StartChar: plusminus
Encoding: 177 177 116
Width: 591
GlyphClass: 1
Flags: W
LayerCount: 2
Fore
SplineSet
383.849609375 405 m 1,0,-1
 383.849609375 172 l 1,1,-1
 313.849609375 172 l 1,2,-1
 313.849609375 405 l 1,3,-1
 150.049804688 405 l 1,4,-1
 150.049804688 505 l 1,5,-1
 313.849609375 505 l 1,6,-1
 313.849609375 739 l 1,7,-1
 383.849609375 739 l 1,8,-1
 383.849609375 505 l 1,9,-1
 546.950195312 505 l 1,10,-1
 546.950195312 405 l 1,11,-1
 383.849609375 405 l 1,0,-1
150.049804688 0 m 1,12,-1
 150.049804688 100 l 1,13,-1
 546.950195312 100 l 1,14,-1
 546.950195312 0 l 1,15,-1
 150.049804688 0 l 1,12,-1
EndSplineSet
Validated: 524289
EndChar

StartChar: twosuperior
Encoding: 178 178 117
Width: 386
GlyphClass: 1
Flags: W
LayerCount: 2
Fore
SplineSet
97.7998046875 316 m 1,0,-1
 97.7998046875 405 l 1,1,-1
 134.900390625 443 l 2,2,3
 212.599609375 521 212.599609375 521 231.5 549 c 128,-1,4
 250.400390625 577 250.400390625 577 250.400390625 604 c 0,5,6
 250.400390625 642 250.400390625 642 217.5 642 c 0,7,8
 183.200195312 642 183.200195312 642 159.400390625 599 c 1,9,-1
 92.2001953125 658 l 1,10,11
 137.700195312 742 137.700195312 742 221 742 c 0,12,13
 282.599609375 742 282.599609375 742 310.599609375 707.5 c 128,-1,14
 338.599609375 673 338.599609375 673 338.599609375 620 c 0,15,16
 338.599609375 562 338.599609375 562 315.5 522 c 0,17,18
 303.599609375 501 303.599609375 501 270.349609375 466 c 128,-1,19
 237.099609375 431 237.099609375 431 214 412 c 1,20,-1
 349.799804688 412 l 1,21,-1
 349.799804688 316 l 1,22,-1
 97.7998046875 316 l 1,0,-1
EndSplineSet
Validated: 524289
EndChar

StartChar: threesuperior
Encoding: 179 179 118
Width: 383
GlyphClass: 1
Flags: W
LayerCount: 2
Fore
SplineSet
278.200195312 539 m 1,0,1
 338.400390625 518 338.400390625 518 338.400390625 440 c 0,2,3
 338.400390625 371 338.400390625 371 302.349609375 339.5 c 128,-1,4
 266.299804688 308 266.299804688 308 206.799804688 308 c 0,5,6
 166.200195312 308 166.200195312 308 132.950195312 331 c 128,-1,7
 99.7001953125 354 99.7001953125 354 83.599609375 391 c 1,8,-1
 151.5 441 l 1,9,10
 173.200195312 398 173.200195312 398 207.5 398 c 0,11,12
 227.799804688 398 227.799804688 398 239 410.5 c 128,-1,13
 250.200195312 423 250.200195312 423 250.200195312 446 c 0,14,15
 250.200195312 490 250.200195312 490 201.900390625 490 c 2,16,-1
 162.700195312 490 l 1,17,-1
 162.700195312 576 l 1,18,-1
 197.700195312 576 l 2,19,20
 224.299804688 576 224.299804688 576 237.599609375 584.5 c 128,-1,21
 250.900390625 593 250.900390625 593 250.900390625 618 c 0,22,23
 250.900390625 635 250.900390625 635 240.049804688 643.5 c 128,-1,24
 229.200195312 652 229.200195312 652 212.400390625 652 c 0,25,26
 177.400390625 652 177.400390625 652 155 614 c 1,27,-1
 92.7001953125 666 l 1,28,29
 115.799804688 705 115.799804688 705 143.799804688 723.5 c 128,-1,30
 171.799804688 742 171.799804688 742 218 742 c 0,31,32
 276.799804688 742 276.799804688 742 305.150390625 709.5 c 128,-1,33
 333.5 677 333.5 677 333.5 632 c 0,34,35
 333.5 593 333.5 593 319.5 572.5 c 128,-1,36
 305.5 552 305.5 552 278.200195312 539 c 1,0,1
EndSplineSet
Validated: 524289
EndChar

StartChar: acute
Encoding: 180 180 119
Width: 444
GlyphClass: 1
Flags: W
LayerCount: 2
Fore
SplineSet
276.900390625 590 m 1,0,-1
 206.900390625 590 l 1,1,-1
 271.299804688 766 l 1,2,-1
 379.099609375 766 l 1,3,-1
 276.900390625 590 l 1,0,-1
EndSplineSet
Validated: 524289
EndChar

StartChar: mu
Encoding: 181 181 120
Width: 498
GlyphClass: 1
Flags: W
LayerCount: 2
Fore
SplineSet
220.900390625 146 m 1,0,1
 230.700195312 127 230.700195312 127 249.599609375 112 c 128,-1,2
 268.5 97 268.5 97 288.099609375 97 c 0,3,4
 332.900390625 97 332.900390625 97 365.799804688 156 c 1,5,-1
 365.799804688 512 l 1,6,-1
 453.299804688 512 l 1,7,-1
 453.299804688 0 l 1,8,-1
 372.099609375 0 l 1,9,-1
 370.700195312 54 l 1,10,11
 353.900390625 20 353.900390625 20 336.049804688 2.5 c 128,-1,12
 318.200195312 -15 318.200195312 -15 289.5 -15 c 0,13,14
 251.700195312 -15 251.700195312 -15 220.900390625 19 c 1,15,-1
 220.900390625 -193 l 1,16,-1
 132.700195312 -193 l 1,17,-1
 132.700195312 512 l 1,18,-1
 220.900390625 512 l 1,19,-1
 220.900390625 146 l 1,0,1
EndSplineSet
Validated: 524289
EndChar

StartChar: paragraph
Encoding: 182 182 121
Width: 548
GlyphClass: 1
Flags: W
LayerCount: 2
Fore
SplineSet
110.75 511 m 0,0,1
 110.75 616 110.75 616 158.349609375 671.5 c 128,-1,2
 205.950195312 727 205.950195312 727 285.75 727 c 2,3,-1
 534.25 727 l 1,4,-1
 534.25 626 l 1,5,-1
 469.849609375 626 l 1,6,-1
 469.849609375 -193 l 1,7,-1
 390.049804688 -193 l 1,8,-1
 390.049804688 626 l 1,9,-1
 334.75 626 l 1,10,-1
 334.75 -193 l 1,11,-1
 254.950195312 -193 l 1,12,-1
 254.950195312 296 l 1,13,14
 188.450195312 307 188.450195312 307 149.599609375 361.5 c 128,-1,15
 110.75 416 110.75 416 110.75 511 c 0,0,1
EndSplineSet
Validated: 524289
EndChar

StartChar: periodcentered
Encoding: 183 183 122
Width: 242
GlyphClass: 1
Flags: W
LayerCount: 2
Fore
SplineSet
142.150390625 441 m 0,0,1
 172.950195312 441 172.950195312 441 185.549804688 423.5 c 128,-1,2
 198.150390625 406 198.150390625 406 198.150390625 363 c 0,3,4
 198.150390625 321 198.150390625 321 184.849609375 303 c 128,-1,5
 171.549804688 285 171.549804688 285 142.150390625 285 c 0,6,7
 112.049804688 285 112.049804688 285 99.4501953125 303 c 128,-1,8
 86.849609375 321 86.849609375 321 86.849609375 363 c 128,-1,9
 86.849609375 405 86.849609375 405 99.4501953125 423 c 128,-1,10
 112.049804688 441 112.049804688 441 142.150390625 441 c 0,0,1
EndSplineSet
Validated: 524289
EndChar

StartChar: cedilla
Encoding: 184 184 123
Width: 425
GlyphClass: 1
Flags: W
LayerCount: 2
Fore
SplineSet
275.950195312 -11 m 1,0,1
 297.650390625 -18 297.650390625 -18 311.650390625 -41.5 c 128,-1,2
 325.650390625 -65 325.650390625 -65 325.650390625 -100 c 0,3,4
 325.650390625 -193 325.650390625 -193 227.650390625 -193 c 0,5,6
 168.150390625 -193 168.150390625 -193 137.349609375 -171 c 1,7,-1
 161.150390625 -100 l 1,8,9
 197.549804688 -122 197.549804688 -122 226.950195312 -122 c 0,10,11
 243.049804688 -122 243.049804688 -122 251.450195312 -117.5 c 128,-1,12
 259.849609375 -113 259.849609375 -113 259.849609375 -99 c 0,13,14
 259.849609375 -68 259.849609375 -68 198.25 -64 c 1,15,-1
 228.349609375 19 l 1,16,-1
 286.450195312 19 l 1,17,-1
 275.950195312 -11 l 1,0,1
EndSplineSet
Validated: 524289
EndChar

StartChar: onesuperior
Encoding: 185 185 124
Width: 380
GlyphClass: 1
Flags: W
LayerCount: 2
Fore
SplineSet
196.650390625 316 m 1,0,-1
 196.650390625 586 l 1,1,-1
 118.25 586 l 1,2,-1
 118.25 660 l 1,3,4
 149.049804688 661 149.049804688 661 167.599609375 667 c 128,-1,5
 186.150390625 673 186.150390625 673 197.349609375 690 c 0,6,7
 207.150390625 704 207.150390625 704 214.150390625 734 c 1,8,-1
 282.75 734 l 1,9,-1
 282.75 316 l 1,10,-1
 196.650390625 316 l 1,0,-1
EndSplineSet
Validated: 524289
EndChar

StartChar: ordmasculine
Encoding: 186 186 125
Width: 349
GlyphClass: 1
Flags: W
LayerCount: 2
Fore
SplineSet
205.849609375 742 m 0,0,1
 317.849609375 742 317.849609375 742 317.849609375 565 c 0,2,3
 317.849609375 390 317.849609375 390 205.849609375 390 c 0,4,5
 93.150390625 390 93.150390625 390 93.150390625 565 c 0,6,7
 93.150390625 742 93.150390625 742 205.849609375 742 c 0,0,1
205.849609375 469 m 0,8,9
 231.75 469 231.75 469 241.900390625 493.5 c 128,-1,10
 252.049804688 518 252.049804688 518 252.049804688 565 c 0,11,12
 252.049804688 623 252.049804688 623 238.75 643 c 128,-1,13
 225.450195312 663 225.450195312 663 205.849609375 663 c 0,14,15
 185.549804688 663 185.549804688 663 172.25 643 c 128,-1,16
 158.950195312 623 158.950195312 623 158.950195312 565 c 0,17,18
 158.950195312 518 158.950195312 518 169.099609375 493.5 c 128,-1,19
 179.25 469 179.25 469 205.849609375 469 c 0,8,9
EndSplineSet
Validated: 524289
EndChar

StartChar: guillemotright
Encoding: 187 187 126
Width: 597
GlyphClass: 1
Flags: W
LayerCount: 2
Fore
SplineSet
432.849609375 26 m 1,0,-1
 330.650390625 26 l 1,1,-1
 474.150390625 256 l 1,2,-1
 330.650390625 486 l 1,3,-1
 432.849609375 486 l 1,4,-1
 576.349609375 256 l 1,5,-1
 432.849609375 26 l 1,0,-1
236.849609375 26 m 1,6,-1
 134.650390625 26 l 1,7,-1
 278.150390625 256 l 1,8,-1
 134.650390625 486 l 1,9,-1
 236.849609375 486 l 1,10,-1
 380.349609375 256 l 1,11,-1
 236.849609375 26 l 1,6,-1
EndSplineSet
Validated: 524289
EndChar

StartChar: onequarter
Encoding: 188 188 127
Width: 864
GlyphClass: 1
Flags: W
LayerCount: 2
Fore
SplineSet
389.75 -25 m 1,0,-1
 309.25 -25 l 1,1,-1
 564.75 702 l 1,2,-1
 645.950195312 702 l 1,3,-1
 389.75 -25 l 1,0,-1
242.75 260 m 1,4,-1
 242.75 530 l 1,5,-1
 164.349609375 530 l 1,6,-1
 164.349609375 604 l 1,7,8
 195.150390625 605 195.150390625 605 213.700195312 611 c 128,-1,9
 232.25 617 232.25 617 243.450195312 634 c 0,10,11
 253.25 648 253.25 648 260.25 678 c 1,12,-1
 328.849609375 678 l 1,13,-1
 328.849609375 260 l 1,14,-1
 242.75 260 l 1,4,-1
789.450195312 78 m 1,15,-1
 789.450195312 0 l 1,16,-1
 710.349609375 0 l 1,17,-1
 710.349609375 78 l 1,18,-1
 543.75 78 l 1,19,-1
 543.75 159 l 1,20,-1
 711.75 418 l 1,21,-1
 789.450195312 418 l 1,22,-1
 789.450195312 162 l 1,23,-1
 828.650390625 162 l 1,24,-1
 828.650390625 78 l 1,25,-1
 789.450195312 78 l 1,15,-1
710.349609375 297 m 1,26,-1
 622.849609375 162 l 1,27,-1
 710.349609375 162 l 1,28,-1
 710.349609375 297 l 1,26,-1
EndSplineSet
Validated: 524289
EndChar

StartChar: onehalf
Encoding: 189 189 128
Width: 862
GlyphClass: 1
Flags: W
LayerCount: 2
Fore
SplineSet
366.25 -25 m 1,0,-1
 285.75 -25 l 1,1,-1
 541.25 702 l 1,2,-1
 622.450195312 702 l 1,3,-1
 366.25 -25 l 1,0,-1
240.25 260 m 1,4,-1
 240.25 530 l 1,5,-1
 161.849609375 530 l 1,6,-1
 161.849609375 604 l 1,7,8
 192.650390625 605 192.650390625 605 211.200195312 611 c 128,-1,9
 229.75 617 229.75 617 240.950195312 634 c 0,10,11
 250.75 648 250.75 648 257.75 678 c 1,12,-1
 326.349609375 678 l 1,13,-1
 326.349609375 260 l 1,14,-1
 240.25 260 l 1,4,-1
567.150390625 0 m 1,15,-1
 567.150390625 89 l 1,16,-1
 604.25 127 l 2,17,18
 681.950195312 205 681.950195312 205 700.849609375 233 c 128,-1,19
 719.75 261 719.75 261 719.75 288 c 0,20,21
 719.75 326 719.75 326 686.849609375 326 c 0,22,23
 652.549804688 326 652.549804688 326 628.75 283 c 1,24,-1
 561.549804688 342 l 1,25,26
 607.049804688 426 607.049804688 426 690.349609375 426 c 0,27,28
 751.950195312 426 751.950195312 426 779.950195312 391.5 c 128,-1,29
 807.950195312 357 807.950195312 357 807.950195312 304 c 0,30,31
 807.950195312 246 807.950195312 246 784.849609375 206 c 0,32,33
 772.950195312 185 772.950195312 185 739.700195312 150 c 128,-1,34
 706.450195312 115 706.450195312 115 683.349609375 96 c 1,35,-1
 819.150390625 96 l 1,36,-1
 819.150390625 0 l 1,37,-1
 567.150390625 0 l 1,15,-1
EndSplineSet
Validated: 524289
EndChar

StartChar: threequarters
Encoding: 190 190 129
Width: 868
GlyphClass: 1
Flags: W
LayerCount: 2
Fore
SplineSet
436.25 -25 m 1,0,-1
 355.75 -25 l 1,1,-1
 611.25 702 l 1,2,-1
 692.450195312 702 l 1,3,-1
 436.25 -25 l 1,0,-1
810.049804688 78 m 1,4,-1
 810.049804688 0 l 1,5,-1
 730.950195312 0 l 1,6,-1
 730.950195312 78 l 1,7,-1
 564.349609375 78 l 1,8,-1
 564.349609375 159 l 1,9,-1
 732.349609375 418 l 1,10,-1
 810.049804688 418 l 1,11,-1
 810.049804688 162 l 1,12,-1
 849.25 162 l 1,13,-1
 849.25 78 l 1,14,-1
 810.049804688 78 l 1,4,-1
730.950195312 297 m 1,15,-1
 643.450195312 162 l 1,16,-1
 730.950195312 162 l 1,17,-1
 730.950195312 297 l 1,15,-1
368.349609375 483 m 1,18,19
 428.549804688 462 428.549804688 462 428.549804688 384 c 0,20,21
 428.549804688 252 428.549804688 252 296.950195312 252 c 0,22,23
 256.349609375 252 256.349609375 252 223.099609375 275 c 128,-1,24
 189.849609375 298 189.849609375 298 173.75 335 c 1,25,-1
 241.650390625 385 l 1,26,27
 263.349609375 342 263.349609375 342 297.650390625 342 c 0,28,29
 340.349609375 342 340.349609375 342 340.349609375 390 c 0,30,31
 340.349609375 434 340.349609375 434 292.049804688 434 c 2,32,-1
 252.849609375 434 l 1,33,-1
 252.849609375 520 l 1,34,-1
 287.849609375 520 l 2,35,36
 314.450195312 520 314.450195312 520 327.75 528.5 c 128,-1,37
 341.049804688 537 341.049804688 537 341.049804688 562 c 0,38,39
 341.049804688 596 341.049804688 596 302.549804688 596 c 0,40,41
 267.549804688 596 267.549804688 596 245.150390625 558 c 1,42,-1
 182.849609375 610 l 1,43,44
 205.950195312 649 205.950195312 649 233.950195312 667.5 c 128,-1,45
 261.950195312 686 261.950195312 686 308.150390625 686 c 0,46,47
 366.950195312 686 366.950195312 686 395.299804688 653.5 c 128,-1,48
 423.650390625 621 423.650390625 621 423.650390625 576 c 0,49,50
 423.650390625 537 423.650390625 537 409.650390625 516.5 c 128,-1,51
 395.650390625 496 395.650390625 496 368.349609375 483 c 1,18,19
EndSplineSet
Validated: 524289
EndChar

StartChar: questiondown
Encoding: 191 191 130
Width: 446
GlyphClass: 1
Flags: W
LayerCount: 2
Fore
SplineSet
286.25 541 m 128,-1,1
 316.349609375 541 316.349609375 541 328.950195312 524 c 128,-1,2
 341.549804688 507 341.549804688 507 341.549804688 466 c 128,-1,3
 341.549804688 425 341.549804688 425 328.950195312 408 c 128,-1,4
 316.349609375 391 316.349609375 391 286.25 391 c 0,5,6
 255.450195312 391 255.450195312 391 242.849609375 407.5 c 128,-1,7
 230.25 424 230.25 424 230.25 466 c 0,8,9
 230.25 507 230.25 507 243.200195312 524 c 128,-1,0
 256.150390625 541 256.150390625 541 286.25 541 c 128,-1,1
272.25 -75 m 0,10,11
 303.75 -75 303.75 -75 321.950195312 -57.5 c 128,-1,12
 340.150390625 -40 340.150390625 -40 355.549804688 -3 c 1,13,-1
 435.349609375 -71 l 1,14,15
 411.549804688 -131 411.549804688 -131 372.349609375 -162 c 128,-1,16
 333.150390625 -193 333.150390625 -193 272.950195312 -193 c 0,17,18
 195.950195312 -193 195.950195312 -193 150.799804688 -145 c 128,-1,19
 105.650390625 -97 105.650390625 -97 105.650390625 0 c 0,20,21
 105.650390625 95 105.650390625 95 157.450195312 161 c 0,22,23
 182.650390625 193 182.650390625 193 240.75 237 c 1,24,-1
 240.75 324 l 1,25,-1
 333.849609375 324 l 1,26,-1
 333.849609375 177 l 1,27,28
 329.650390625 174 329.650390625 174 316.349609375 164 c 128,-1,29
 303.049804688 154 303.049804688 154 297.099609375 150 c 128,-1,30
 291.150390625 146 291.150390625 146 279.599609375 136.5 c 128,-1,31
 268.049804688 127 268.049804688 127 261.400390625 120.5 c 128,-1,32
 254.75 114 254.75 114 246 104.5 c 128,-1,33
 237.25 95 237.25 95 230.599609375 85 c 128,-1,34
 223.950195312 75 223.950195312 75 218.349609375 64 c 0,35,36
 205.049804688 39 205.049804688 39 205.049804688 6 c 0,37,38
 205.049804688 -75 205.049804688 -75 272.25 -75 c 0,10,11
EndSplineSet
Validated: 524289
EndChar

StartChar: Agrave
Encoding: 192 192 131
Width: 554
GlyphClass: 1
Flags: W
LayerCount: 2
Fore
SplineSet
107.049804688 0 m 1,0,-1
 263.849609375 676 l 1,1,-1
 389.150390625 676 l 1,2,-1
 545.950195312 0 l 1,3,-1
 447.25 0 l 1,4,-1
 415.75 137 l 1,5,-1
 233.75 137 l 1,6,-1
 202.950195312 0 l 1,7,-1
 107.049804688 0 l 1,0,-1
261.049804688 258 m 1,8,-1
 388.450195312 258 l 1,9,-1
 324.75 537 l 1,10,-1
 261.049804688 258 l 1,8,-1
327.549804688 754 m 1,11,-1
 225.349609375 930 l 1,12,-1
 333.150390625 930 l 1,13,-1
 397.549804688 754 l 1,14,-1
 327.549804688 754 l 1,11,-1
EndSplineSet
Validated: 524289
EndChar

StartChar: Aacute
Encoding: 193 193 132
Width: 554
GlyphClass: 1
Flags: W
LayerCount: 2
Fore
SplineSet
107.049804688 0 m 1,0,-1
 263.849609375 676 l 1,1,-1
 389.150390625 676 l 1,2,-1
 545.950195312 0 l 1,3,-1
 447.25 0 l 1,4,-1
 415.75 137 l 1,5,-1
 233.75 137 l 1,6,-1
 202.950195312 0 l 1,7,-1
 107.049804688 0 l 1,0,-1
261.049804688 258 m 1,8,-1
 388.450195312 258 l 1,9,-1
 324.75 537 l 1,10,-1
 261.049804688 258 l 1,8,-1
335.950195312 754 m 1,11,-1
 265.950195312 754 l 1,12,-1
 330.349609375 930 l 1,13,-1
 438.150390625 930 l 1,14,-1
 335.950195312 754 l 1,11,-1
EndSplineSet
Validated: 524289
EndChar

StartChar: Acircumflex
Encoding: 194 194 133
Width: 554
GlyphClass: 1
Flags: W
LayerCount: 2
Fore
SplineSet
107.049804688 0 m 1,0,-1
 263.849609375 676 l 1,1,-1
 389.150390625 676 l 1,2,-1
 545.950195312 0 l 1,3,-1
 447.25 0 l 1,4,-1
 415.75 137 l 1,5,-1
 233.75 137 l 1,6,-1
 202.950195312 0 l 1,7,-1
 107.049804688 0 l 1,0,-1
261.049804688 258 m 1,8,-1
 388.450195312 258 l 1,9,-1
 324.75 537 l 1,10,-1
 261.049804688 258 l 1,8,-1
374.450195312 754 m 1,11,-1
 324.75 839 l 1,12,-1
 273.650390625 754 l 1,13,-1
 202.25 754 l 1,14,-1
 282.75 930 l 1,15,-1
 366.049804688 930 l 1,16,-1
 446.549804688 754 l 1,17,-1
 374.450195312 754 l 1,11,-1
EndSplineSet
Validated: 524289
EndChar

StartChar: Atilde
Encoding: 195 195 134
Width: 554
GlyphClass: 1
Flags: W
LayerCount: 2
Fore
SplineSet
107.049804688 0 m 1,0,-1
 263.849609375 676 l 1,1,-1
 389.150390625 676 l 1,2,-1
 545.950195312 0 l 1,3,-1
 447.25 0 l 1,4,-1
 415.75 137 l 1,5,-1
 233.75 137 l 1,6,-1
 202.950195312 0 l 1,7,-1
 107.049804688 0 l 1,0,-1
261.049804688 258 m 1,8,-1
 388.450195312 258 l 1,9,-1
 324.75 537 l 1,10,-1
 261.049804688 258 l 1,8,-1
464.049804688 913 m 1,11,12
 460.549804688 837 460.549804688 837 439.900390625 796.5 c 128,-1,13
 419.25 756 419.25 756 373.75 756 c 0,14,15
 363.950195312 756 363.950195312 756 354.5 759 c 128,-1,16
 345.049804688 762 345.049804688 762 338.75 765.5 c 128,-1,17
 332.450195312 769 332.450195312 769 324.400390625 776.5 c 128,-1,18
 316.349609375 784 316.349609375 784 312.849609375 788 c 128,-1,19
 309.349609375 792 309.349609375 792 300.950195312 802.5 c 128,-1,20
 292.549804688 813 292.549804688 813 290.450195312 816 c 0,21,22
 281.349609375 827 281.349609375 827 270.150390625 827 c 0,23,24
 247.049804688 827 247.049804688 827 247.049804688 765 c 1,25,-1
 184.75 765 l 1,26,27
 186.150390625 837 186.150390625 837 208.200195312 878.5 c 128,-1,28
 230.25 920 230.25 920 274.349609375 920 c 0,29,30
 304.450195312 920 304.450195312 920 335.950195312 886 c 0,31,32
 347.849609375 873 347.849609375 873 357.650390625 862 c 128,-1,33
 367.450195312 851 367.450195312 851 378.650390625 851 c 0,34,35
 401.75 851 401.75 851 401.75 913 c 1,36,-1
 464.049804688 913 l 1,11,12
EndSplineSet
Validated: 524289
EndChar

StartChar: Adieresis
Encoding: 196 196 135
Width: 554
GlyphClass: 1
Flags: W
LayerCount: 2
Fore
SplineSet
107.049804688 0 m 1,0,-1
 263.849609375 676 l 1,1,-1
 389.150390625 676 l 1,2,-1
 545.950195312 0 l 1,3,-1
 447.25 0 l 1,4,-1
 415.75 137 l 1,5,-1
 233.75 137 l 1,6,-1
 202.950195312 0 l 1,7,-1
 107.049804688 0 l 1,0,-1
261.049804688 258 m 1,8,-1
 388.450195312 258 l 1,9,-1
 324.75 537 l 1,10,-1
 261.049804688 258 l 1,8,-1
398.25 880 m 0,11,12
 424.849609375 880 424.849609375 880 436.400390625 865.5 c 128,-1,13
 447.950195312 851 447.950195312 851 447.950195312 816 c 128,-1,14
 447.950195312 781 447.950195312 781 436.049804688 766.5 c 128,-1,15
 424.150390625 752 424.150390625 752 398.25 752 c 128,-1,16
 372.349609375 752 372.349609375 752 361.150390625 767 c 128,-1,17
 349.950195312 782 349.950195312 782 349.950195312 816 c 0,18,19
 349.950195312 851 349.950195312 851 361.150390625 865.5 c 128,-1,20
 372.349609375 880 372.349609375 880 398.25 880 c 0,11,12
246.349609375 880 m 0,21,22
 272.950195312 880 272.950195312 880 284.5 865.5 c 128,-1,23
 296.049804688 851 296.049804688 851 296.049804688 816 c 128,-1,24
 296.049804688 781 296.049804688 781 284.150390625 766.5 c 128,-1,25
 272.25 752 272.25 752 246.349609375 752 c 128,-1,26
 220.450195312 752 220.450195312 752 209.25 767 c 128,-1,27
 198.049804688 782 198.049804688 782 198.049804688 816 c 0,28,29
 198.049804688 851 198.049804688 851 209.25 865.5 c 128,-1,30
 220.450195312 880 220.450195312 880 246.349609375 880 c 0,21,22
EndSplineSet
Validated: 524289
EndChar

StartChar: Aring
Encoding: 197 197 136
Width: 554
GlyphClass: 1
Flags: W
LayerCount: 2
Fore
SplineSet
107.049804688 0 m 1,0,-1
 263.849609375 676 l 1,1,-1
 389.150390625 676 l 1,2,-1
 545.950195312 0 l 1,3,-1
 447.25 0 l 1,4,-1
 415.75 137 l 1,5,-1
 233.75 137 l 1,6,-1
 202.950195312 0 l 1,7,-1
 107.049804688 0 l 1,0,-1
261.049804688 258 m 1,8,-1
 388.450195312 258 l 1,9,-1
 324.75 537 l 1,10,-1
 261.049804688 258 l 1,8,-1
324.75 948 m 0,11,12
 363.25 948 363.25 948 383.549804688 920 c 128,-1,13
 403.849609375 892 403.849609375 892 403.849609375 838 c 0,14,15
 403.849609375 728 403.849609375 728 324.75 728 c 0,16,17
 286.25 728 286.25 728 266.299804688 756.5 c 128,-1,18
 246.349609375 785 246.349609375 785 246.349609375 838 c 128,-1,19
 246.349609375 891 246.349609375 891 266.650390625 919.5 c 128,-1,20
 286.950195312 948 286.950195312 948 324.75 948 c 0,11,12
354.849609375 838 m 128,-1,22
 354.849609375 882 354.849609375 882 324.75 882 c 0,23,24
 295.349609375 882 295.349609375 882 295.349609375 838 c 128,-1,25
 295.349609375 794 295.349609375 794 324.75 794 c 0,26,21
 354.849609375 794 354.849609375 794 354.849609375 838 c 128,-1,22
EndSplineSet
Validated: 524289
EndChar

StartChar: AE
Encoding: 198 198 137
Width: 744
GlyphClass: 1
Flags: W
LayerCount: 2
Fore
SplineSet
420.75 0 m 1,0,-1
 420.75 176 l 1,1,-1
 280.75 176 l 1,2,-1
 231.75 0 l 1,3,-1
 133.75 0 l 1,4,-1
 323.450195312 676 l 1,5,-1
 711.25 676 l 1,6,-1
 711.25 554 l 1,7,-1
 517.349609375 554 l 1,8,-1
 517.349609375 407 l 1,9,-1
 677.650390625 407 l 1,10,-1
 677.650390625 285 l 1,11,-1
 517.349609375 285 l 1,12,-1
 517.349609375 126 l 1,13,-1
 711.25 126 l 1,14,-1
 711.25 0 l 1,15,-1
 420.75 0 l 1,0,-1
420.75 554 m 1,16,-1
 385.049804688 554 l 1,17,-1
 313.650390625 297 l 1,18,-1
 420.75 297 l 1,19,-1
 420.75 554 l 1,16,-1
EndSplineSet
Validated: 524289
EndChar

StartChar: Ccedilla
Encoding: 199 199 138
Width: 555
GlyphClass: 1
Flags: W
LayerCount: 2
Fore
SplineSet
390.299804688 -11 m 1,0,1
 412 -18 412 -18 426 -41.5 c 128,-1,2
 440 -65 440 -65 440 -100 c 0,3,4
 440 -193 440 -193 342 -193 c 0,5,6
 283.200195312 -193 283.200195312 -193 251.700195312 -171 c 1,7,-1
 275.5 -100 l 1,8,9
 311.900390625 -122 311.900390625 -122 341.299804688 -122 c 0,10,11
 374.200195312 -122 374.200195312 -122 374.200195312 -99 c 0,12,13
 374.200195312 -68 374.200195312 -68 312.599609375 -64 c 1,14,-1
 330.799804688 -13 l 1,15,16
 133.400390625 5 133.400390625 5 133.400390625 338 c 0,17,18
 133.400390625 690 133.400390625 690 349.700195312 690 c 0,19,20
 477.799804688 690 477.799804688 690 529.599609375 569 c 1,21,-1
 454.700195312 486 l 1,22,23
 435.099609375 529 435.099609375 529 413.049804688 548.5 c 128,-1,24
 391 568 391 568 351.799804688 568 c 0,25,26
 293.700195312 568 293.700195312 568 263.25 515 c 128,-1,27
 232.799804688 462 232.799804688 462 232.799804688 338 c 0,28,29
 232.799804688 226 232.799804688 226 260.099609375 167 c 128,-1,30
 287.400390625 108 287.400390625 108 352.5 108 c 0,31,32
 394.5 108 394.5 108 417.950195312 131 c 128,-1,33
 441.400390625 154 441.400390625 154 460.299804688 192 c 1,34,-1
 536.599609375 112 l 1,35,36
 485.5 4 485.5 4 390.299804688 -11 c 1,0,1
EndSplineSet
Validated: 524289
EndChar

StartChar: Egrave
Encoding: 200 200 139
Width: 480
GlyphClass: 1
Flags: W
LayerCount: 2
Fore
SplineSet
138.849609375 0 m 1,0,-1
 138.849609375 676 l 1,1,-1
 446.150390625 676 l 1,2,-1
 446.150390625 554 l 1,3,-1
 235.450195312 554 l 1,4,-1
 235.450195312 410 l 1,5,-1
 413.25 410 l 1,6,-1
 413.25 288 l 1,7,-1
 235.450195312 288 l 1,8,-1
 235.450195312 126 l 1,9,-1
 446.150390625 126 l 1,10,-1
 446.150390625 0 l 1,11,-1
 138.849609375 0 l 1,0,-1
280.950195312 754 m 1,12,-1
 178.75 930 l 1,13,-1
 286.549804688 930 l 1,14,-1
 350.950195312 754 l 1,15,-1
 280.950195312 754 l 1,12,-1
EndSplineSet
Validated: 524289
EndChar

StartChar: Eacute
Encoding: 201 201 140
Width: 480
GlyphClass: 1
Flags: W
LayerCount: 2
Fore
SplineSet
138.849609375 0 m 1,0,-1
 138.849609375 676 l 1,1,-1
 446.150390625 676 l 1,2,-1
 446.150390625 554 l 1,3,-1
 235.450195312 554 l 1,4,-1
 235.450195312 410 l 1,5,-1
 413.25 410 l 1,6,-1
 413.25 288 l 1,7,-1
 235.450195312 288 l 1,8,-1
 235.450195312 126 l 1,9,-1
 446.150390625 126 l 1,10,-1
 446.150390625 0 l 1,11,-1
 138.849609375 0 l 1,0,-1
303.349609375 754 m 1,12,-1
 233.349609375 754 l 1,13,-1
 297.75 930 l 1,14,-1
 405.549804688 930 l 1,15,-1
 303.349609375 754 l 1,12,-1
EndSplineSet
Validated: 524289
EndChar

StartChar: Ecircumflex
Encoding: 202 202 141
Width: 480
GlyphClass: 1
Flags: W
LayerCount: 2
Fore
SplineSet
138.849609375 0 m 1,0,-1
 138.849609375 676 l 1,1,-1
 446.150390625 676 l 1,2,-1
 446.150390625 554 l 1,3,-1
 235.450195312 554 l 1,4,-1
 235.450195312 410 l 1,5,-1
 413.25 410 l 1,6,-1
 413.25 288 l 1,7,-1
 235.450195312 288 l 1,8,-1
 235.450195312 126 l 1,9,-1
 446.150390625 126 l 1,10,-1
 446.150390625 0 l 1,11,-1
 138.849609375 0 l 1,0,-1
340.450195312 754 m 1,12,-1
 290.75 839 l 1,13,-1
 239.650390625 754 l 1,14,-1
 168.25 754 l 1,15,-1
 248.75 930 l 1,16,-1
 332.049804688 930 l 1,17,-1
 412.549804688 754 l 1,18,-1
 340.450195312 754 l 1,12,-1
EndSplineSet
Validated: 524289
EndChar

StartChar: Edieresis
Encoding: 203 203 142
Width: 480
GlyphClass: 1
Flags: W
LayerCount: 2
Fore
SplineSet
138.849609375 0 m 1,0,-1
 138.849609375 676 l 1,1,-1
 446.150390625 676 l 1,2,-1
 446.150390625 554 l 1,3,-1
 235.450195312 554 l 1,4,-1
 235.450195312 410 l 1,5,-1
 413.25 410 l 1,6,-1
 413.25 288 l 1,7,-1
 235.450195312 288 l 1,8,-1
 235.450195312 126 l 1,9,-1
 446.150390625 126 l 1,10,-1
 446.150390625 0 l 1,11,-1
 138.849609375 0 l 1,0,-1
365.650390625 880 m 0,12,13
 392.25 880 392.25 880 403.799804688 865.5 c 128,-1,14
 415.349609375 851 415.349609375 851 415.349609375 816 c 128,-1,15
 415.349609375 781 415.349609375 781 403.450195312 766.5 c 128,-1,16
 391.549804688 752 391.549804688 752 365.650390625 752 c 128,-1,17
 339.75 752 339.75 752 328.549804688 767 c 128,-1,18
 317.349609375 782 317.349609375 782 317.349609375 816 c 0,19,20
 317.349609375 851 317.349609375 851 328.549804688 865.5 c 128,-1,21
 339.75 880 339.75 880 365.650390625 880 c 0,12,13
213.75 880 m 0,22,23
 240.349609375 880 240.349609375 880 251.900390625 865.5 c 128,-1,24
 263.450195312 851 263.450195312 851 263.450195312 816 c 128,-1,25
 263.450195312 781 263.450195312 781 251.549804688 766.5 c 128,-1,26
 239.650390625 752 239.650390625 752 213.75 752 c 128,-1,27
 187.849609375 752 187.849609375 752 176.650390625 767 c 128,-1,28
 165.450195312 782 165.450195312 782 165.450195312 816 c 0,29,30
 165.450195312 851 165.450195312 851 176.650390625 865.5 c 128,-1,31
 187.849609375 880 187.849609375 880 213.75 880 c 0,22,23
EndSplineSet
Validated: 524289
EndChar

StartChar: Igrave
Encoding: 204 204 143
Width: 359
GlyphClass: 1
Flags: W
LayerCount: 2
Fore
SplineSet
325.450195312 0 m 1,0,-1
 97.25 0 l 1,1,-1
 97.25 106 l 1,2,-1
 163.049804688 106 l 1,3,-1
 163.049804688 570 l 1,4,-1
 97.25 570 l 1,5,-1
 97.25 676 l 1,6,-1
 325.450195312 676 l 1,7,-1
 325.450195312 570 l 1,8,-1
 259.650390625 570 l 1,9,-1
 259.650390625 106 l 1,10,-1
 325.450195312 106 l 1,11,-1
 325.450195312 0 l 1,0,-1
191.75 754 m 1,12,-1
 89.5498046875 930 l 1,13,-1
 197.349609375 930 l 1,14,-1
 261.75 754 l 1,15,-1
 191.75 754 l 1,12,-1
EndSplineSet
Validated: 524289
EndChar

StartChar: Iacute
Encoding: 205 205 144
Width: 361
GlyphClass: 1
Flags: W
LayerCount: 2
Fore
SplineSet
327.400390625 0 m 1,0,-1
 99.2001953125 0 l 1,1,-1
 99.2001953125 106 l 1,2,-1
 165 106 l 1,3,-1
 165 570 l 1,4,-1
 99.2001953125 570 l 1,5,-1
 99.2001953125 676 l 1,6,-1
 327.400390625 676 l 1,7,-1
 327.400390625 570 l 1,8,-1
 261.599609375 570 l 1,9,-1
 261.599609375 106 l 1,10,-1
 327.400390625 106 l 1,11,-1
 327.400390625 0 l 1,0,-1
226.599609375 754 m 1,12,-1
 156.599609375 754 l 1,13,-1
 221 930 l 1,14,-1
 328.799804688 930 l 1,15,-1
 226.599609375 754 l 1,12,-1
EndSplineSet
Validated: 524289
EndChar

StartChar: Icircumflex
Encoding: 206 206 145
Width: 361
GlyphClass: 1
Flags: W
LayerCount: 2
Fore
SplineSet
326.950195312 0 m 1,0,-1
 98.75 0 l 1,1,-1
 98.75 106 l 1,2,-1
 164.549804688 106 l 1,3,-1
 164.549804688 570 l 1,4,-1
 98.75 570 l 1,5,-1
 98.75 676 l 1,6,-1
 326.950195312 676 l 1,7,-1
 326.950195312 570 l 1,8,-1
 261.150390625 570 l 1,9,-1
 261.150390625 106 l 1,10,-1
 326.950195312 106 l 1,11,-1
 326.950195312 0 l 1,0,-1
262.549804688 754 m 1,12,-1
 212.849609375 839 l 1,13,-1
 161.75 754 l 1,14,-1
 90.349609375 754 l 1,15,-1
 170.849609375 930 l 1,16,-1
 254.150390625 930 l 1,17,-1
 334.650390625 754 l 1,18,-1
 262.549804688 754 l 1,12,-1
EndSplineSet
Validated: 524289
EndChar

StartChar: Idieresis
Encoding: 207 207 146
Width: 361
GlyphClass: 1
Flags: W
LayerCount: 2
Fore
SplineSet
327.25 0 m 1,0,-1
 99.0498046875 0 l 1,1,-1
 99.0498046875 106 l 1,2,-1
 164.849609375 106 l 1,3,-1
 164.849609375 570 l 1,4,-1
 99.0498046875 570 l 1,5,-1
 99.0498046875 676 l 1,6,-1
 327.25 676 l 1,7,-1
 327.25 570 l 1,8,-1
 261.450195312 570 l 1,9,-1
 261.450195312 106 l 1,10,-1
 327.25 106 l 1,11,-1
 327.25 0 l 1,0,-1
288.75 880 m 0,12,13
 315.349609375 880 315.349609375 880 326.900390625 865.5 c 128,-1,14
 338.450195312 851 338.450195312 851 338.450195312 816 c 128,-1,15
 338.450195312 781 338.450195312 781 326.549804688 766.5 c 128,-1,16
 314.650390625 752 314.650390625 752 288.75 752 c 128,-1,17
 262.849609375 752 262.849609375 752 251.650390625 767 c 128,-1,18
 240.450195312 782 240.450195312 782 240.450195312 816 c 0,19,20
 240.450195312 851 240.450195312 851 251.650390625 865.5 c 128,-1,21
 262.849609375 880 262.849609375 880 288.75 880 c 0,12,13
136.849609375 880 m 0,22,23
 163.450195312 880 163.450195312 880 175 865.5 c 128,-1,24
 186.549804688 851 186.549804688 851 186.549804688 816 c 128,-1,25
 186.549804688 781 186.549804688 781 174.650390625 766.5 c 128,-1,26
 162.75 752 162.75 752 136.849609375 752 c 128,-1,27
 110.950195312 752 110.950195312 752 99.75 767 c 128,-1,28
 88.5498046875 782 88.5498046875 782 88.5498046875 816 c 0,29,30
 88.5498046875 851 88.5498046875 851 99.75 865.5 c 128,-1,31
 110.950195312 880 110.950195312 880 136.849609375 880 c 0,22,23
EndSplineSet
Validated: 524289
EndChar

StartChar: Eth
Encoding: 208 208 147
Width: 573
GlyphClass: 1
Flags: W
LayerCount: 2
Fore
SplineSet
540.75 338 m 0,0,1
 540.75 101 540.75 101 438.549804688 34 c 0,2,3
 387.450195312 0 387.450195312 0 295.75 0 c 2,4,-1
 146.650390625 0 l 1,5,-1
 146.650390625 283 l 1,6,-1
 96.25 283 l 1,7,-1
 96.25 393 l 1,8,-1
 146.650390625 393 l 1,9,-1
 146.650390625 676 l 1,10,-1
 295.049804688 676 l 2,11,12
 382.549804688 676 382.549804688 676 435.75 643 c 128,-1,13
 488.950195312 610 488.950195312 610 515.549804688 533 c 0,14,15
 540.75 459 540.75 459 540.75 338 c 0,0,1
441.349609375 339 m 0,16,17
 441.349609375 422 441.349609375 422 429.099609375 466 c 128,-1,18
 416.849609375 510 416.849609375 510 382.549804688 531 c 0,19,20
 351.049804688 550 351.049804688 550 286.650390625 550 c 2,21,-1
 243.25 550 l 1,22,-1
 243.25 393 l 1,23,-1
 353.150390625 393 l 1,24,-1
 353.150390625 283 l 1,25,-1
 243.25 283 l 1,26,-1
 243.25 126 l 1,27,-1
 286.650390625 126 l 2,28,29
 346.150390625 126 346.150390625 126 379.400390625 143.5 c 128,-1,30
 412.650390625 161 412.650390625 161 427.349609375 209 c 0,31,32
 441.349609375 253 441.349609375 253 441.349609375 339 c 0,16,17
EndSplineSet
Validated: 524289
EndChar

StartChar: Ntilde
Encoding: 209 209 148
Width: 584
GlyphClass: 1
Flags: W
LayerCount: 2
Fore
SplineSet
421.150390625 0 m 1,0,-1
 248.950195312 483 l 1,1,-1
 248.950195312 0 l 1,2,-1
 154.450195312 0 l 1,3,-1
 154.450195312 676 l 1,4,-1
 279.75 676 l 1,5,-1
 440.049804688 220 l 1,6,-1
 440.049804688 676 l 1,7,-1
 534.549804688 676 l 1,8,-1
 534.549804688 0 l 1,9,-1
 421.150390625 0 l 1,0,-1
479.950195312 893 m 1,10,11
 476.450195312 817 476.450195312 817 455.799804688 776.5 c 128,-1,12
 435.150390625 736 435.150390625 736 389.650390625 736 c 0,13,14
 379.849609375 736 379.849609375 736 370.400390625 739 c 128,-1,15
 360.950195312 742 360.950195312 742 354.650390625 745.5 c 128,-1,16
 348.349609375 749 348.349609375 749 340.299804688 756.5 c 128,-1,17
 332.25 764 332.25 764 328.75 768 c 128,-1,18
 325.25 772 325.25 772 316.849609375 782.5 c 128,-1,19
 308.450195312 793 308.450195312 793 306.349609375 796 c 0,20,21
 297.25 807 297.25 807 286.049804688 807 c 0,22,23
 262.950195312 807 262.950195312 807 262.950195312 745 c 1,24,-1
 200.650390625 745 l 1,25,26
 202.049804688 817 202.049804688 817 224.099609375 858.5 c 128,-1,27
 246.150390625 900 246.150390625 900 290.25 900 c 0,28,29
 320.349609375 900 320.349609375 900 352.549804688 866 c 0,30,31
 363.75 853 363.75 853 373.549804688 842 c 128,-1,32
 383.349609375 831 383.349609375 831 394.549804688 831 c 0,33,34
 417.650390625 831 417.650390625 831 417.650390625 893 c 1,35,-1
 479.950195312 893 l 1,10,11
EndSplineSet
Validated: 524289
EndChar

StartChar: Ograve
Encoding: 210 210 149
Width: 566
GlyphClass: 1
Flags: W
LayerCount: 2
Fore
SplineSet
333 690 m 128,-1,1
 536.700195312 690 536.700195312 690 536.700195312 338 c 0,2,3
 536.700195312 170 536.700195312 170 487 78 c 128,-1,4
 437.299804688 -14 437.299804688 -14 333 -14 c 0,5,6
 228 -14 228 -14 178.650390625 78.5 c 128,-1,7
 129.299804688 171 129.299804688 171 129.299804688 338 c 0,8,0
 129.299804688 690 129.299804688 690 333 690 c 128,-1,1
437.299804688 338 m 128,-1,10
 437.299804688 458 437.299804688 458 413.5 513 c 128,-1,11
 389.700195312 568 389.700195312 568 333 568 c 128,-1,12
 276.299804688 568 276.299804688 568 252.5 513 c 128,-1,13
 228.700195312 458 228.700195312 458 228.700195312 338 c 128,-1,14
 228.700195312 218 228.700195312 218 252.849609375 163 c 128,-1,15
 277 108 277 108 333 108 c 0,16,17
 389.700195312 108 389.700195312 108 413.5 163 c 128,-1,9
 437.299804688 218 437.299804688 218 437.299804688 338 c 128,-1,10
328.799804688 754 m 1,18,-1
 226.599609375 930 l 1,19,-1
 334.400390625 930 l 1,20,-1
 398.799804688 754 l 1,21,-1
 328.799804688 754 l 1,18,-1
EndSplineSet
Validated: 524289
EndChar

StartChar: Oacute
Encoding: 211 211 150
Width: 566
GlyphClass: 1
Flags: W
LayerCount: 2
Fore
SplineSet
333 690 m 128,-1,1
 536.700195312 690 536.700195312 690 536.700195312 338 c 0,2,3
 536.700195312 170 536.700195312 170 487 78 c 128,-1,4
 437.299804688 -14 437.299804688 -14 333 -14 c 0,5,6
 228 -14 228 -14 178.650390625 78.5 c 128,-1,7
 129.299804688 171 129.299804688 171 129.299804688 338 c 0,8,0
 129.299804688 690 129.299804688 690 333 690 c 128,-1,1
437.299804688 338 m 128,-1,10
 437.299804688 458 437.299804688 458 413.5 513 c 128,-1,11
 389.700195312 568 389.700195312 568 333 568 c 128,-1,12
 276.299804688 568 276.299804688 568 252.5 513 c 128,-1,13
 228.700195312 458 228.700195312 458 228.700195312 338 c 128,-1,14
 228.700195312 218 228.700195312 218 252.849609375 163 c 128,-1,15
 277 108 277 108 333 108 c 0,16,17
 389.700195312 108 389.700195312 108 413.5 163 c 128,-1,9
 437.299804688 218 437.299804688 218 437.299804688 338 c 128,-1,10
351.200195312 754 m 1,18,-1
 281.200195312 754 l 1,19,-1
 345.599609375 930 l 1,20,-1
 453.400390625 930 l 1,21,-1
 351.200195312 754 l 1,18,-1
EndSplineSet
Validated: 524289
EndChar

StartChar: Ocircumflex
Encoding: 212 212 151
Width: 566
GlyphClass: 1
Flags: W
LayerCount: 2
Fore
SplineSet
333 690 m 128,-1,1
 536.700195312 690 536.700195312 690 536.700195312 338 c 0,2,3
 536.700195312 170 536.700195312 170 487 78 c 128,-1,4
 437.299804688 -14 437.299804688 -14 333 -14 c 0,5,6
 228 -14 228 -14 178.650390625 78.5 c 128,-1,7
 129.299804688 171 129.299804688 171 129.299804688 338 c 0,8,0
 129.299804688 690 129.299804688 690 333 690 c 128,-1,1
437.299804688 338 m 128,-1,10
 437.299804688 458 437.299804688 458 413.5 513 c 128,-1,11
 389.700195312 568 389.700195312 568 333 568 c 128,-1,12
 276.299804688 568 276.299804688 568 252.5 513 c 128,-1,13
 228.700195312 458 228.700195312 458 228.700195312 338 c 128,-1,14
 228.700195312 218 228.700195312 218 252.849609375 163 c 128,-1,15
 277 108 277 108 333 108 c 0,16,17
 389.700195312 108 389.700195312 108 413.5 163 c 128,-1,9
 437.299804688 218 437.299804688 218 437.299804688 338 c 128,-1,10
386.200195312 754 m 1,18,-1
 336.5 839 l 1,19,-1
 285.400390625 754 l 1,20,-1
 214 754 l 1,21,-1
 294.5 930 l 1,22,-1
 377.799804688 930 l 1,23,-1
 458.299804688 754 l 1,24,-1
 386.200195312 754 l 1,18,-1
EndSplineSet
Validated: 524289
EndChar

StartChar: Otilde
Encoding: 213 213 152
Width: 566
GlyphClass: 1
Flags: W
LayerCount: 2
Fore
SplineSet
333 690 m 128,-1,1
 536.700195312 690 536.700195312 690 536.700195312 338 c 0,2,3
 536.700195312 170 536.700195312 170 487 78 c 128,-1,4
 437.299804688 -14 437.299804688 -14 333 -14 c 0,5,6
 228 -14 228 -14 178.650390625 78.5 c 128,-1,7
 129.299804688 171 129.299804688 171 129.299804688 338 c 0,8,0
 129.299804688 690 129.299804688 690 333 690 c 128,-1,1
437.299804688 338 m 128,-1,10
 437.299804688 458 437.299804688 458 413.5 513 c 128,-1,11
 389.700195312 568 389.700195312 568 333 568 c 128,-1,12
 276.299804688 568 276.299804688 568 252.5 513 c 128,-1,13
 228.700195312 458 228.700195312 458 228.700195312 338 c 128,-1,14
 228.700195312 218 228.700195312 218 252.849609375 163 c 128,-1,15
 277 108 277 108 333 108 c 0,16,17
 389.700195312 108 389.700195312 108 413.5 163 c 128,-1,9
 437.299804688 218 437.299804688 218 437.299804688 338 c 128,-1,10
475.799804688 913 m 1,18,19
 472.299804688 837 472.299804688 837 451.650390625 796.5 c 128,-1,20
 431 756 431 756 385.5 756 c 0,21,22
 375.700195312 756 375.700195312 756 366.25 759 c 128,-1,23
 356.799804688 762 356.799804688 762 350.5 765.5 c 128,-1,24
 344.200195312 769 344.200195312 769 336.150390625 776.5 c 128,-1,25
 328.099609375 784 328.099609375 784 324.599609375 788 c 128,-1,26
 321.099609375 792 321.099609375 792 312.700195312 802.5 c 128,-1,27
 304.299804688 813 304.299804688 813 302.200195312 816 c 0,28,29
 293.099609375 827 293.099609375 827 281.900390625 827 c 0,30,31
 258.799804688 827 258.799804688 827 258.799804688 765 c 1,32,-1
 196.5 765 l 1,33,34
 197.900390625 837 197.900390625 837 219.950195312 878.5 c 128,-1,35
 242 920 242 920 286.099609375 920 c 0,36,37
 316.200195312 920 316.200195312 920 347.700195312 886 c 0,38,39
 359.599609375 873 359.599609375 873 369.400390625 862 c 128,-1,40
 379.200195312 851 379.200195312 851 390.400390625 851 c 0,41,42
 413.5 851 413.5 851 413.5 913 c 1,43,-1
 475.799804688 913 l 1,18,19
EndSplineSet
Validated: 524289
EndChar

StartChar: Odieresis
Encoding: 214 214 153
Width: 566
GlyphClass: 1
Flags: W
LayerCount: 2
Fore
SplineSet
333 690 m 128,-1,1
 536.700195312 690 536.700195312 690 536.700195312 338 c 0,2,3
 536.700195312 170 536.700195312 170 487 78 c 128,-1,4
 437.299804688 -14 437.299804688 -14 333 -14 c 0,5,6
 228 -14 228 -14 178.650390625 78.5 c 128,-1,7
 129.299804688 171 129.299804688 171 129.299804688 338 c 0,8,0
 129.299804688 690 129.299804688 690 333 690 c 128,-1,1
437.299804688 338 m 128,-1,10
 437.299804688 458 437.299804688 458 413.5 513 c 128,-1,11
 389.700195312 568 389.700195312 568 333 568 c 128,-1,12
 276.299804688 568 276.299804688 568 252.5 513 c 128,-1,13
 228.700195312 458 228.700195312 458 228.700195312 338 c 128,-1,14
 228.700195312 218 228.700195312 218 252.849609375 163 c 128,-1,15
 277 108 277 108 333 108 c 0,16,17
 389.700195312 108 389.700195312 108 413.5 163 c 128,-1,9
 437.299804688 218 437.299804688 218 437.299804688 338 c 128,-1,10
413.5 880 m 0,18,19
 440.099609375 880 440.099609375 880 451.650390625 865.5 c 128,-1,20
 463.200195312 851 463.200195312 851 463.200195312 816 c 128,-1,21
 463.200195312 781 463.200195312 781 451.299804688 766.5 c 128,-1,22
 439.400390625 752 439.400390625 752 413.5 752 c 128,-1,23
 387.599609375 752 387.599609375 752 376.400390625 767 c 128,-1,24
 365.200195312 782 365.200195312 782 365.200195312 816 c 0,25,26
 365.200195312 851 365.200195312 851 376.400390625 865.5 c 128,-1,27
 387.599609375 880 387.599609375 880 413.5 880 c 0,18,19
261.599609375 880 m 0,28,29
 288.200195312 880 288.200195312 880 299.75 865.5 c 128,-1,30
 311.299804688 851 311.299804688 851 311.299804688 816 c 128,-1,31
 311.299804688 781 311.299804688 781 299.400390625 766.5 c 128,-1,32
 287.5 752 287.5 752 261.599609375 752 c 128,-1,33
 235.700195312 752 235.700195312 752 224.5 767 c 128,-1,34
 213.299804688 782 213.299804688 782 213.299804688 816 c 0,35,36
 213.299804688 851 213.299804688 851 224.5 865.5 c 128,-1,37
 235.700195312 880 235.700195312 880 261.599609375 880 c 0,28,29
EndSplineSet
Validated: 524289
EndChar

StartChar: multiply
Encoding: 215 215 154
Width: 591
GlyphClass: 1
Flags: W
LayerCount: 2
Fore
SplineSet
497.799804688 0 m 1,0,-1
 348 214 l 1,1,-1
 198.200195312 0 l 1,2,-1
 148.5 71 l 1,3,-1
 298.299804688 284 l 1,4,-1
 148.5 497 l 1,5,-1
 198.200195312 568 l 1,6,-1
 348 355 l 1,7,-1
 497.799804688 568 l 1,8,-1
 547.5 497 l 1,9,-1
 397.700195312 284 l 1,10,-1
 547.5 71 l 1,11,-1
 497.799804688 0 l 1,0,-1
EndSplineSet
Validated: 524289
EndChar

StartChar: Oslash
Encoding: 216 216 155
Width: 565
GlyphClass: 1
Flags: W
LayerCount: 2
Fore
SplineSet
535.650390625 338 m 128,-1,1
 535.650390625 170 535.650390625 170 485.950195312 78 c 128,-1,2
 436.25 -14 436.25 -14 331.950195312 -14 c 0,3,4
 261.25 -14 261.25 -14 216.450195312 28 c 1,5,-1
 176.549804688 -56 l 1,6,-1
 107.950195312 -56 l 1,7,-1
 174.450195312 83 l 1,8,9
 128.25 171 128.25 171 128.25 338 c 0,10,11
 128.25 690 128.25 690 331.950195312 690 c 0,12,13
 400.549804688 690 400.549804688 690 446.049804688 649 c 1,14,-1
 483.150390625 727 l 1,15,-1
 551.049804688 727 l 1,16,-1
 488.049804688 595 l 1,17,0
 535.650390625 506 535.650390625 506 535.650390625 338 c 128,-1,1
436.25 338 m 0,18,19
 436.25 415 436.25 415 426.450195312 466 c 1,20,-1
 268.25 135 l 1,21,22
 291.349609375 108 291.349609375 108 331.950195312 108 c 0,23,24
 388.650390625 108 388.650390625 108 412.450195312 163 c 128,-1,25
 436.25 218 436.25 218 436.25 338 c 0,18,19
227.650390625 338 m 0,26,27
 227.650390625 261 227.650390625 261 236.75 213 c 1,28,-1
 394.25 542 l 1,29,30
 370.450195312 568 370.450195312 568 331.950195312 568 c 0,31,32
 275.25 568 275.25 568 251.450195312 513 c 128,-1,33
 227.650390625 458 227.650390625 458 227.650390625 338 c 0,26,27
EndSplineSet
Validated: 524289
EndChar

StartChar: Ugrave
Encoding: 217 217 156
Width: 596
GlyphClass: 1
Flags: W
LayerCount: 2
Fore
SplineSet
350.299804688 107 m 128,-1,1
 407.700195312 107 407.700195312 107 428.349609375 150 c 128,-1,2
 449 193 449 193 449 290 c 2,3,-1
 449 676 l 1,4,-1
 545.599609375 676 l 1,5,-1
 545.599609375 282 l 2,6,7
 545.599609375 124 545.599609375 124 501.150390625 54.5 c 128,-1,8
 456.700195312 -15 456.700195312 -15 351 -15 c 0,9,10
 246 -15 246 -15 201.200195312 55 c 128,-1,11
 156.400390625 125 156.400390625 125 156.400390625 282 c 2,12,-1
 156.400390625 676 l 1,13,-1
 253 676 l 1,14,-1
 253 292 l 2,15,16
 253 196 253 196 272.950195312 151.5 c 128,-1,0
 292.900390625 107 292.900390625 107 350.299804688 107 c 128,-1,1
341.200195312 754 m 1,17,-1
 239 930 l 1,18,-1
 346.799804688 930 l 1,19,-1
 411.200195312 754 l 1,20,-1
 341.200195312 754 l 1,17,-1
EndSplineSet
Validated: 524289
EndChar

StartChar: Uacute
Encoding: 218 218 157
Width: 596
GlyphClass: 1
Flags: W
LayerCount: 2
Fore
SplineSet
350.299804688 107 m 128,-1,1
 407.700195312 107 407.700195312 107 428.349609375 150 c 128,-1,2
 449 193 449 193 449 290 c 2,3,-1
 449 676 l 1,4,-1
 545.599609375 676 l 1,5,-1
 545.599609375 282 l 2,6,7
 545.599609375 124 545.599609375 124 501.150390625 54.5 c 128,-1,8
 456.700195312 -15 456.700195312 -15 351 -15 c 0,9,10
 246 -15 246 -15 201.200195312 55 c 128,-1,11
 156.400390625 125 156.400390625 125 156.400390625 282 c 2,12,-1
 156.400390625 676 l 1,13,-1
 253 676 l 1,14,-1
 253 292 l 2,15,16
 253 196 253 196 272.950195312 151.5 c 128,-1,0
 292.900390625 107 292.900390625 107 350.299804688 107 c 128,-1,1
363.599609375 754 m 1,17,-1
 293.599609375 754 l 1,18,-1
 358 930 l 1,19,-1
 465.799804688 930 l 1,20,-1
 363.599609375 754 l 1,17,-1
EndSplineSet
Validated: 524289
EndChar

StartChar: Ucircumflex
Encoding: 219 219 158
Width: 596
GlyphClass: 1
Flags: W
LayerCount: 2
Fore
SplineSet
350.299804688 107 m 128,-1,1
 407.700195312 107 407.700195312 107 428.349609375 150 c 128,-1,2
 449 193 449 193 449 290 c 2,3,-1
 449 676 l 1,4,-1
 545.599609375 676 l 1,5,-1
 545.599609375 282 l 2,6,7
 545.599609375 124 545.599609375 124 501.150390625 54.5 c 128,-1,8
 456.700195312 -15 456.700195312 -15 351 -15 c 0,9,10
 246 -15 246 -15 201.200195312 55 c 128,-1,11
 156.400390625 125 156.400390625 125 156.400390625 282 c 2,12,-1
 156.400390625 676 l 1,13,-1
 253 676 l 1,14,-1
 253 292 l 2,15,16
 253 196 253 196 272.950195312 151.5 c 128,-1,0
 292.900390625 107 292.900390625 107 350.299804688 107 c 128,-1,1
402.099609375 754 m 1,17,-1
 352.400390625 839 l 1,18,-1
 301.299804688 754 l 1,19,-1
 229.900390625 754 l 1,20,-1
 310.400390625 930 l 1,21,-1
 393.700195312 930 l 1,22,-1
 474.200195312 754 l 1,23,-1
 402.099609375 754 l 1,17,-1
EndSplineSet
Validated: 524289
EndChar

StartChar: Udieresis
Encoding: 220 220 159
Width: 596
GlyphClass: 1
Flags: W
LayerCount: 2
Fore
SplineSet
350.299804688 107 m 128,-1,1
 407.700195312 107 407.700195312 107 428.349609375 150 c 128,-1,2
 449 193 449 193 449 290 c 2,3,-1
 449 676 l 1,4,-1
 545.599609375 676 l 1,5,-1
 545.599609375 282 l 2,6,7
 545.599609375 124 545.599609375 124 501.150390625 54.5 c 128,-1,8
 456.700195312 -15 456.700195312 -15 351 -15 c 0,9,10
 246 -15 246 -15 201.200195312 55 c 128,-1,11
 156.400390625 125 156.400390625 125 156.400390625 282 c 2,12,-1
 156.400390625 676 l 1,13,-1
 253 676 l 1,14,-1
 253 292 l 2,15,16
 253 196 253 196 272.950195312 151.5 c 128,-1,0
 292.900390625 107 292.900390625 107 350.299804688 107 c 128,-1,1
425.900390625 880 m 0,17,18
 452.5 880 452.5 880 464.049804688 865.5 c 128,-1,19
 475.599609375 851 475.599609375 851 475.599609375 816 c 128,-1,20
 475.599609375 781 475.599609375 781 463.700195312 766.5 c 128,-1,21
 451.799804688 752 451.799804688 752 425.900390625 752 c 128,-1,22
 400 752 400 752 388.799804688 767 c 128,-1,23
 377.599609375 782 377.599609375 782 377.599609375 816 c 0,24,25
 377.599609375 851 377.599609375 851 388.799804688 865.5 c 128,-1,26
 400 880 400 880 425.900390625 880 c 0,17,18
274 880 m 0,27,28
 300.599609375 880 300.599609375 880 312.150390625 865.5 c 128,-1,29
 323.700195312 851 323.700195312 851 323.700195312 816 c 128,-1,30
 323.700195312 781 323.700195312 781 311.799804688 766.5 c 128,-1,31
 299.900390625 752 299.900390625 752 274 752 c 128,-1,32
 248.099609375 752 248.099609375 752 236.900390625 767 c 128,-1,33
 225.700195312 782 225.700195312 782 225.700195312 816 c 0,34,35
 225.700195312 851 225.700195312 851 236.900390625 865.5 c 128,-1,36
 248.099609375 880 248.099609375 880 274 880 c 0,27,28
EndSplineSet
Validated: 524289
EndChar

StartChar: Yacute
Encoding: 221 221 160
Width: 493
GlyphClass: 1
Flags: W
LayerCount: 2
Fore
SplineSet
338.299804688 258 m 1,0,-1
 338.299804688 0 l 1,1,-1
 241 0 l 1,2,-1
 241 255 l 1,3,-1
 93.2998046875 676 l 1,4,-1
 198.299804688 676 l 1,5,-1
 290.700195312 393 l 1,6,-1
 385.200195312 676 l 1,7,-1
 486.700195312 676 l 1,8,-1
 338.299804688 258 l 1,0,-1
301.900390625 754 m 1,9,-1
 231.900390625 754 l 1,10,-1
 296.299804688 930 l 1,11,-1
 404.099609375 930 l 1,12,-1
 301.900390625 754 l 1,9,-1
EndSplineSet
Validated: 524289
EndChar

StartChar: Thorn
Encoding: 222 222 161
Width: 518
GlyphClass: 1
Flags: W
LayerCount: 2
Fore
SplineSet
324.900390625 578 m 2,0,1
 492.900390625 578 492.900390625 578 492.900390625 351 c 0,2,3
 492.900390625 226 492.900390625 226 451.950195312 168.5 c 128,-1,4
 411 111 411 111 322.099609375 111 c 2,5,-1
 243.700195312 111 l 1,6,-1
 243.700195312 0 l 1,7,-1
 147.099609375 0 l 1,8,-1
 147.099609375 676 l 1,9,-1
 243.700195312 676 l 1,10,-1
 243.700195312 578 l 1,11,-1
 324.900390625 578 l 2,0,1
282.900390625 231 m 2,12,13
 347.299804688 231 347.299804688 231 370.400390625 252.5 c 128,-1,14
 393.5 274 393.5 274 393.5 350 c 0,15,16
 393.5 413 393.5 413 369 435.5 c 128,-1,17
 344.5 458 344.5 458 292 458 c 2,18,-1
 243.700195312 458 l 1,19,-1
 243.700195312 231 l 1,20,-1
 282.900390625 231 l 2,12,13
EndSplineSet
Validated: 524289
EndChar

StartChar: germandbls
Encoding: 223 223 162
Width: 508
GlyphClass: 1
Flags: W
LayerCount: 2
Fore
SplineSet
303 634 m 0,0,1
 263.099609375 634 263.099609375 634 247 602 c 128,-1,2
 230.900390625 570 230.900390625 570 230.900390625 502 c 2,3,-1
 230.900390625 0 l 1,4,-1
 142.700195312 0 l 1,5,-1
 142.700195312 498 l 2,6,7
 142.700195312 742 142.700195312 742 304.400390625 742 c 0,8,9
 370.900390625 742 370.900390625 742 410.099609375 699.5 c 128,-1,10
 449.299804688 657 449.299804688 657 449.299804688 573 c 0,11,12
 449.299804688 464 449.299804688 464 387 426 c 1,13,14
 429 413 429 413 453.150390625 359.5 c 128,-1,15
 477.299804688 306 477.299804688 306 477.299804688 231 c 0,16,17
 477.299804688 109 477.299804688 109 445.799804688 47 c 128,-1,18
 414.299804688 -15 414.299804688 -15 338.700195312 -15 c 0,19,20
 306.5 -15 306.5 -15 272.900390625 0 c 1,21,-1
 272.900390625 111 l 1,22,23
 302.299804688 96 302.299804688 96 325.400390625 96 c 0,24,25
 359.700195312 96 359.700195312 96 372.299804688 131 c 128,-1,26
 384.900390625 166 384.900390625 166 384.900390625 235 c 0,27,28
 384.900390625 311 384.900390625 311 361.450195312 335.5 c 128,-1,29
 338 360 338 360 278.5 360 c 1,30,-1
 278.5 469 l 1,31,32
 322.599609375 469 322.599609375 469 341.150390625 488.5 c 128,-1,33
 359.700195312 508 359.700195312 508 359.700195312 564 c 0,34,35
 359.700195312 634 359.700195312 634 303 634 c 0,0,1
EndSplineSet
Validated: 524289
EndChar

StartChar: agrave
Encoding: 224 224 163
Width: 468
GlyphClass: 1
Flags: W
LayerCount: 2
Fore
SplineSet
263.599609375 527 m 0,0,1
 344.799804688 527 344.799804688 527 383.299804688 487.5 c 128,-1,2
 421.799804688 448 421.799804688 448 421.799804688 348 c 2,3,-1
 421.799804688 0 l 1,4,-1
 340.599609375 0 l 1,5,-1
 340.599609375 53 l 1,6,7
 288.099609375 -15 288.099609375 -15 228.599609375 -15 c 0,8,9
 172.599609375 -15 172.599609375 -15 140.400390625 27 c 128,-1,10
 108.200195312 69 108.200195312 69 108.200195312 144 c 0,11,12
 108.200195312 234 108.200195312 234 146 271.5 c 128,-1,13
 183.799804688 309 183.799804688 309 258 319 c 2,14,-1
 333.599609375 329 l 1,15,-1
 333.599609375 352 l 2,16,17
 333.599609375 395 333.599609375 395 315.75 411 c 128,-1,18
 297.900390625 427 297.900390625 427 262.200195312 427 c 0,19,20
 203.400390625 427 203.400390625 427 182.400390625 374 c 1,21,-1
 113.799804688 437 l 1,22,23
 151.599609375 527 151.599609375 527 263.599609375 527 c 0,0,1
199.200195312 146 m 0,24,25
 199.200195312 85 199.200195312 85 248.900390625 85 c 0,26,27
 265 85 265 85 288.099609375 99.5 c 128,-1,28
 311.200195312 114 311.200195312 114 333.599609375 140 c 1,29,-1
 333.599609375 238 l 1,30,-1
 288.799804688 232 l 2,31,32
 244.700195312 226 244.700195312 226 221.950195312 208.5 c 128,-1,33
 199.200195312 191 199.200195312 191 199.200195312 146 c 0,24,25
252.400390625 590 m 1,34,-1
 150.200195312 766 l 1,35,-1
 258 766 l 1,36,-1
 322.400390625 590 l 1,37,-1
 252.400390625 590 l 1,34,-1
EndSplineSet
Validated: 524289
EndChar

StartChar: aacute
Encoding: 225 225 164
Width: 468
GlyphClass: 1
Flags: W
LayerCount: 2
Fore
SplineSet
263.599609375 527 m 0,0,1
 344.799804688 527 344.799804688 527 383.299804688 487.5 c 128,-1,2
 421.799804688 448 421.799804688 448 421.799804688 348 c 2,3,-1
 421.799804688 0 l 1,4,-1
 340.599609375 0 l 1,5,-1
 340.599609375 53 l 1,6,7
 288.099609375 -15 288.099609375 -15 228.599609375 -15 c 0,8,9
 172.599609375 -15 172.599609375 -15 140.400390625 27 c 128,-1,10
 108.200195312 69 108.200195312 69 108.200195312 144 c 0,11,12
 108.200195312 234 108.200195312 234 146 271.5 c 128,-1,13
 183.799804688 309 183.799804688 309 258 319 c 2,14,-1
 333.599609375 329 l 1,15,-1
 333.599609375 352 l 2,16,17
 333.599609375 395 333.599609375 395 315.75 411 c 128,-1,18
 297.900390625 427 297.900390625 427 262.200195312 427 c 0,19,20
 203.400390625 427 203.400390625 427 182.400390625 374 c 1,21,-1
 113.799804688 437 l 1,22,23
 151.599609375 527 151.599609375 527 263.599609375 527 c 0,0,1
199.200195312 146 m 0,24,25
 199.200195312 85 199.200195312 85 248.900390625 85 c 0,26,27
 265 85 265 85 288.099609375 99.5 c 128,-1,28
 311.200195312 114 311.200195312 114 333.599609375 140 c 1,29,-1
 333.599609375 238 l 1,30,-1
 288.799804688 232 l 2,31,32
 244.700195312 226 244.700195312 226 221.950195312 208.5 c 128,-1,33
 199.200195312 191 199.200195312 191 199.200195312 146 c 0,24,25
274.799804688 590 m 1,34,-1
 204.799804688 590 l 1,35,-1
 269.200195312 766 l 1,36,-1
 377 766 l 1,37,-1
 274.799804688 590 l 1,34,-1
EndSplineSet
Validated: 524289
EndChar

StartChar: acircumflex
Encoding: 226 226 165
Width: 468
GlyphClass: 1
Flags: W
LayerCount: 2
Fore
SplineSet
263.599609375 527 m 0,0,1
 344.799804688 527 344.799804688 527 383.299804688 487.5 c 128,-1,2
 421.799804688 448 421.799804688 448 421.799804688 348 c 2,3,-1
 421.799804688 0 l 1,4,-1
 340.599609375 0 l 1,5,-1
 340.599609375 53 l 1,6,7
 288.099609375 -15 288.099609375 -15 228.599609375 -15 c 0,8,9
 172.599609375 -15 172.599609375 -15 140.400390625 27 c 128,-1,10
 108.200195312 69 108.200195312 69 108.200195312 144 c 0,11,12
 108.200195312 234 108.200195312 234 146 271.5 c 128,-1,13
 183.799804688 309 183.799804688 309 258 319 c 2,14,-1
 333.599609375 329 l 1,15,-1
 333.599609375 352 l 2,16,17
 333.599609375 395 333.599609375 395 315.75 411 c 128,-1,18
 297.900390625 427 297.900390625 427 262.200195312 427 c 0,19,20
 203.400390625 427 203.400390625 427 182.400390625 374 c 1,21,-1
 113.799804688 437 l 1,22,23
 151.599609375 527 151.599609375 527 263.599609375 527 c 0,0,1
199.200195312 146 m 0,24,25
 199.200195312 85 199.200195312 85 248.900390625 85 c 0,26,27
 265 85 265 85 288.099609375 99.5 c 128,-1,28
 311.200195312 114 311.200195312 114 333.599609375 140 c 1,29,-1
 333.599609375 238 l 1,30,-1
 288.799804688 232 l 2,31,32
 244.700195312 226 244.700195312 226 221.950195312 208.5 c 128,-1,33
 199.200195312 191 199.200195312 191 199.200195312 146 c 0,24,25
318.200195312 590 m 1,34,-1
 268.5 675 l 1,35,-1
 217.400390625 590 l 1,36,-1
 146 590 l 1,37,-1
 226.5 766 l 1,38,-1
 309.799804688 766 l 1,39,-1
 390.299804688 590 l 1,40,-1
 318.200195312 590 l 1,34,-1
EndSplineSet
Validated: 524289
EndChar

StartChar: atilde
Encoding: 227 227 166
Width: 468
GlyphClass: 1
Flags: W
LayerCount: 2
Fore
SplineSet
263.599609375 527 m 0,0,1
 344.799804688 527 344.799804688 527 383.299804688 487.5 c 128,-1,2
 421.799804688 448 421.799804688 448 421.799804688 348 c 2,3,-1
 421.799804688 0 l 1,4,-1
 340.599609375 0 l 1,5,-1
 340.599609375 53 l 1,6,7
 288.099609375 -15 288.099609375 -15 228.599609375 -15 c 0,8,9
 172.599609375 -15 172.599609375 -15 140.400390625 27 c 128,-1,10
 108.200195312 69 108.200195312 69 108.200195312 144 c 0,11,12
 108.200195312 234 108.200195312 234 146 271.5 c 128,-1,13
 183.799804688 309 183.799804688 309 258 319 c 2,14,-1
 333.599609375 329 l 1,15,-1
 333.599609375 352 l 2,16,17
 333.599609375 395 333.599609375 395 315.75 411 c 128,-1,18
 297.900390625 427 297.900390625 427 262.200195312 427 c 0,19,20
 203.400390625 427 203.400390625 427 182.400390625 374 c 1,21,-1
 113.799804688 437 l 1,22,23
 151.599609375 527 151.599609375 527 263.599609375 527 c 0,0,1
199.200195312 146 m 0,24,25
 199.200195312 85 199.200195312 85 248.900390625 85 c 0,26,27
 265 85 265 85 288.099609375 99.5 c 128,-1,28
 311.200195312 114 311.200195312 114 333.599609375 140 c 1,29,-1
 333.599609375 238 l 1,30,-1
 288.799804688 232 l 2,31,32
 244.700195312 226 244.700195312 226 221.950195312 208.5 c 128,-1,33
 199.200195312 191 199.200195312 191 199.200195312 146 c 0,24,25
409.900390625 749 m 1,34,35
 406.400390625 673 406.400390625 673 385.75 632.5 c 128,-1,36
 365.099609375 592 365.099609375 592 319.599609375 592 c 0,37,38
 309.799804688 592 309.799804688 592 300.349609375 595 c 128,-1,39
 290.900390625 598 290.900390625 598 284.599609375 601.5 c 128,-1,40
 278.299804688 605 278.299804688 605 270.25 612.5 c 128,-1,41
 262.200195312 620 262.200195312 620 258.700195312 624 c 128,-1,42
 255.200195312 628 255.200195312 628 246.799804688 638.5 c 128,-1,43
 238.400390625 649 238.400390625 649 236.299804688 652 c 0,44,45
 227.200195312 663 227.200195312 663 216 663 c 0,46,47
 192.900390625 663 192.900390625 663 192.900390625 601 c 1,48,-1
 130.599609375 601 l 1,49,50
 132 673 132 673 154.049804688 714.5 c 128,-1,51
 176.099609375 756 176.099609375 756 220.200195312 756 c 0,52,53
 250.299804688 756 250.299804688 756 282.5 722 c 0,54,55
 293.700195312 709 293.700195312 709 303.5 698 c 128,-1,56
 313.299804688 687 313.299804688 687 324.5 687 c 0,57,58
 347.599609375 687 347.599609375 687 347.599609375 749 c 1,59,-1
 409.900390625 749 l 1,34,35
EndSplineSet
Validated: 524289
EndChar

StartChar: adieresis
Encoding: 228 228 167
Width: 468
GlyphClass: 1
Flags: W
LayerCount: 2
Fore
SplineSet
263.599609375 527 m 0,0,1
 344.799804688 527 344.799804688 527 383.299804688 487.5 c 128,-1,2
 421.799804688 448 421.799804688 448 421.799804688 348 c 2,3,-1
 421.799804688 0 l 1,4,-1
 340.599609375 0 l 1,5,-1
 340.599609375 53 l 1,6,7
 288.099609375 -15 288.099609375 -15 228.599609375 -15 c 0,8,9
 172.599609375 -15 172.599609375 -15 140.400390625 27 c 128,-1,10
 108.200195312 69 108.200195312 69 108.200195312 144 c 0,11,12
 108.200195312 234 108.200195312 234 146 271.5 c 128,-1,13
 183.799804688 309 183.799804688 309 258 319 c 2,14,-1
 333.599609375 329 l 1,15,-1
 333.599609375 352 l 2,16,17
 333.599609375 395 333.599609375 395 315.75 411 c 128,-1,18
 297.900390625 427 297.900390625 427 262.200195312 427 c 0,19,20
 203.400390625 427 203.400390625 427 182.400390625 374 c 1,21,-1
 113.799804688 437 l 1,22,23
 151.599609375 527 151.599609375 527 263.599609375 527 c 0,0,1
199.200195312 146 m 0,24,25
 199.200195312 85 199.200195312 85 248.900390625 85 c 0,26,27
 265 85 265 85 288.099609375 99.5 c 128,-1,28
 311.200195312 114 311.200195312 114 333.599609375 140 c 1,29,-1
 333.599609375 238 l 1,30,-1
 288.799804688 232 l 2,31,32
 244.700195312 226 244.700195312 226 221.950195312 208.5 c 128,-1,33
 199.200195312 191 199.200195312 191 199.200195312 146 c 0,24,25
337.099609375 716 m 0,34,35
 363.700195312 716 363.700195312 716 375.25 701.5 c 128,-1,36
 386.799804688 687 386.799804688 687 386.799804688 652 c 128,-1,37
 386.799804688 617 386.799804688 617 374.900390625 602.5 c 128,-1,38
 363 588 363 588 337.099609375 588 c 128,-1,39
 311.200195312 588 311.200195312 588 300 603 c 128,-1,40
 288.799804688 618 288.799804688 618 288.799804688 652 c 0,41,42
 288.799804688 687 288.799804688 687 300 701.5 c 128,-1,43
 311.200195312 716 311.200195312 716 337.099609375 716 c 0,34,35
185.200195312 716 m 0,44,45
 211.799804688 716 211.799804688 716 223.349609375 701.5 c 128,-1,46
 234.900390625 687 234.900390625 687 234.900390625 652 c 128,-1,47
 234.900390625 617 234.900390625 617 223 602.5 c 128,-1,48
 211.099609375 588 211.099609375 588 185.200195312 588 c 128,-1,49
 159.299804688 588 159.299804688 588 148.099609375 603 c 128,-1,50
 136.900390625 618 136.900390625 618 136.900390625 652 c 0,51,52
 136.900390625 687 136.900390625 687 148.099609375 701.5 c 128,-1,53
 159.299804688 716 159.299804688 716 185.200195312 716 c 0,44,45
EndSplineSet
Validated: 524289
EndChar

StartChar: aring
Encoding: 229 229 168
Width: 468
GlyphClass: 1
Flags: W
LayerCount: 2
Fore
SplineSet
263.599609375 527 m 0,0,1
 344.799804688 527 344.799804688 527 383.299804688 487.5 c 128,-1,2
 421.799804688 448 421.799804688 448 421.799804688 348 c 2,3,-1
 421.799804688 0 l 1,4,-1
 340.599609375 0 l 1,5,-1
 340.599609375 53 l 1,6,7
 288.099609375 -15 288.099609375 -15 228.599609375 -15 c 0,8,9
 172.599609375 -15 172.599609375 -15 140.400390625 27 c 128,-1,10
 108.200195312 69 108.200195312 69 108.200195312 144 c 0,11,12
 108.200195312 234 108.200195312 234 146 271.5 c 128,-1,13
 183.799804688 309 183.799804688 309 258 319 c 2,14,-1
 333.599609375 329 l 1,15,-1
 333.599609375 352 l 2,16,17
 333.599609375 395 333.599609375 395 315.75 411 c 128,-1,18
 297.900390625 427 297.900390625 427 262.200195312 427 c 0,19,20
 203.400390625 427 203.400390625 427 182.400390625 374 c 1,21,-1
 113.799804688 437 l 1,22,23
 151.599609375 527 151.599609375 527 263.599609375 527 c 0,0,1
199.200195312 146 m 0,24,25
 199.200195312 85 199.200195312 85 248.900390625 85 c 0,26,27
 265 85 265 85 288.099609375 99.5 c 128,-1,28
 311.200195312 114 311.200195312 114 333.599609375 140 c 1,29,-1
 333.599609375 238 l 1,30,-1
 288.799804688 232 l 2,31,32
 244.700195312 226 244.700195312 226 221.950195312 208.5 c 128,-1,33
 199.200195312 191 199.200195312 191 199.200195312 146 c 0,24,25
263.599609375 783 m 0,34,35
 302.099609375 783 302.099609375 783 322.400390625 755 c 128,-1,36
 342.700195312 727 342.700195312 727 342.700195312 673 c 0,37,38
 342.700195312 563 342.700195312 563 263.599609375 563 c 0,39,40
 225.099609375 563 225.099609375 563 205.150390625 591.5 c 128,-1,41
 185.200195312 620 185.200195312 620 185.200195312 673 c 128,-1,42
 185.200195312 726 185.200195312 726 205.5 754.5 c 128,-1,43
 225.799804688 783 225.799804688 783 263.599609375 783 c 0,34,35
293.700195312 673 m 128,-1,45
 293.700195312 717 293.700195312 717 263.599609375 717 c 0,46,47
 234.200195312 717 234.200195312 717 234.200195312 673 c 128,-1,48
 234.200195312 629 234.200195312 629 263.599609375 629 c 0,49,44
 293.700195312 629 293.700195312 629 293.700195312 673 c 128,-1,45
EndSplineSet
Validated: 524289
EndChar

StartChar: ae
Encoding: 230 230 169
Width: 740
GlyphClass: 1
Flags: W
LayerCount: 2
Fore
SplineSet
417.5 67 m 1,0,1
 385.299804688 28 385.299804688 28 352.75 6.5 c 128,-1,2
 320.200195312 -15 320.200195312 -15 278.200195312 -15 c 0,3,4
 222.200195312 -15 222.200195312 -15 190.700195312 28 c 128,-1,5
 159.200195312 71 159.200195312 71 159.200195312 148 c 128,-1,6
 159.200195312 225 159.200195312 225 195.25 267.5 c 128,-1,7
 231.299804688 310 231.299804688 310 309 319 c 2,8,-1
 384.599609375 329 l 1,9,-1
 384.599609375 352 l 2,10,11
 384.599609375 394 384.599609375 394 367.099609375 410.5 c 128,-1,12
 349.599609375 427 349.599609375 427 316 427 c 0,13,14
 256.5 427 256.5 427 233.400390625 374 c 1,15,-1
 164.799804688 437 l 1,16,17
 202.599609375 527 202.599609375 527 315.299804688 527 c 0,18,19
 402.099609375 527 402.099609375 527 437.099609375 467 c 1,20,21
 478.400390625 527 478.400390625 527 556.799804688 527 c 0,22,23
 633.099609375 527 633.099609375 527 671.950195312 463.5 c 128,-1,24
 710.799804688 400 710.799804688 400 710.799804688 285 c 2,25,-1
 710.799804688 223 l 1,26,-1
 472.799804688 223 l 1,27,28
 474.900390625 155 474.900390625 155 495.200195312 125 c 128,-1,29
 515.5 95 515.5 95 562.400390625 95 c 0,30,31
 616.299804688 95 616.299804688 95 641.5 140 c 1,32,-1
 707.299804688 73 l 1,33,34
 684.900390625 27 684.900390625 27 650.950195312 6 c 128,-1,35
 617 -15 617 -15 563.799804688 -15 c 0,36,37
 461.599609375 -15 461.599609375 -15 417.5 67 c 1,0,1
393.700195312 135 m 1,38,39
 390.900390625 148 390.900390625 148 387.75 185 c 128,-1,40
 384.599609375 222 384.599609375 222 384.599609375 238 c 1,41,-1
 339.799804688 232 l 2,42,43
 318.799804688 229 318.799804688 229 304.450195312 225 c 128,-1,44
 290.099609375 221 290.099609375 221 276.799804688 211.5 c 128,-1,45
 263.5 202 263.5 202 256.849609375 186 c 128,-1,46
 250.200195312 170 250.200195312 170 250.200195312 146 c 0,47,48
 250.200195312 85 250.200195312 85 297.799804688 85 c 0,49,50
 348.900390625 85 348.900390625 85 393.700195312 135 c 1,38,39
623.299804688 310 m 1,51,52
 623.299804688 427 623.299804688 427 551.200195312 427 c 0,53,54
 514.099609375 427 514.099609375 427 497.650390625 397 c 128,-1,55
 481.200195312 367 481.200195312 367 474.900390625 310 c 1,56,-1
 623.299804688 310 l 1,51,52
EndSplineSet
Validated: 524289
EndChar

StartChar: ccedilla
Encoding: 231 231 170
Width: 442
GlyphClass: 1
Flags: W
LayerCount: 2
Fore
SplineSet
318.150390625 -13 m 1,0,1
 337.75 -21 337.75 -21 350.349609375 -44 c 128,-1,2
 362.950195312 -67 362.950195312 -67 362.950195312 -100 c 0,3,4
 362.950195312 -193 362.950195312 -193 264.950195312 -193 c 0,5,6
 206.150390625 -193 206.150390625 -193 174.650390625 -171 c 1,7,-1
 198.450195312 -100 l 1,8,9
 234.849609375 -122 234.849609375 -122 264.25 -122 c 0,10,11
 280.349609375 -122 280.349609375 -122 288.75 -117.5 c 128,-1,12
 297.150390625 -113 297.150390625 -113 297.150390625 -99 c 0,13,14
 297.150390625 -68 297.150390625 -68 235.549804688 -64 c 1,15,-1
 254.450195312 -12 l 1,16,17
 112.349609375 15 112.349609375 15 112.349609375 253 c 0,18,19
 112.349609375 383 112.349609375 383 155.75 455 c 128,-1,20
 199.150390625 527 199.150390625 527 284.549804688 527 c 0,21,22
 384.650390625 527 384.650390625 527 421.75 439 c 1,23,-1
 355.950195312 372 l 1,24,25
 332.849609375 417 332.849609375 417 286.650390625 417 c 0,26,27
 239.75 417 239.75 417 221.549804688 376.5 c 128,-1,28
 203.349609375 336 203.349609375 336 203.349609375 255 c 0,29,30
 203.349609375 173 203.349609375 173 222.25 134 c 128,-1,31
 241.150390625 95 241.150390625 95 290.150390625 95 c 0,32,33
 335.650390625 95 335.650390625 95 360.150390625 140 c 1,34,-1
 426.650390625 73 l 1,35,36
 390.950195312 -2 390.950195312 -2 318.150390625 -13 c 1,0,1
EndSplineSet
Validated: 524289
EndChar

StartChar: egrave
Encoding: 232 232 171
Width: 474
GlyphClass: 1
Flags: W
LayerCount: 2
Fore
SplineSet
287.700195312 527 m 0,0,1
 365.400390625 527 365.400390625 527 404.950195312 464 c 128,-1,2
 444.5 401 444.5 401 444.5 285 c 2,3,-1
 444.5 223 l 1,4,-1
 206.5 223 l 1,5,6
 208.599609375 156 208.599609375 156 228.900390625 125.5 c 128,-1,7
 249.200195312 95 249.200195312 95 295.400390625 95 c 0,8,9
 350 95 350 95 375.200195312 140 c 1,10,-1
 441 73 l 1,11,12
 417.900390625 26 417.900390625 26 382.900390625 5.5 c 128,-1,13
 347.900390625 -15 347.900390625 -15 291.200195312 -15 c 0,14,15
 115.5 -15 115.5 -15 115.5 252 c 0,16,17
 115.5 527 115.5 527 287.700195312 527 c 0,0,1
357 310 m 1,18,19
 357 427 357 427 285.599609375 427 c 0,20,21
 247.099609375 427 247.099609375 427 231.349609375 399 c 128,-1,22
 215.599609375 371 215.599609375 371 208.599609375 310 c 1,23,-1
 357 310 l 1,18,19
270.900390625 590 m 1,24,-1
 168.700195312 766 l 1,25,-1
 276.5 766 l 1,26,-1
 340.900390625 590 l 1,27,-1
 270.900390625 590 l 1,24,-1
EndSplineSet
Validated: 524289
EndChar

StartChar: eacute
Encoding: 233 233 172
Width: 474
GlyphClass: 1
Flags: W
LayerCount: 2
Fore
SplineSet
287.700195312 527 m 0,0,1
 365.400390625 527 365.400390625 527 404.950195312 464 c 128,-1,2
 444.5 401 444.5 401 444.5 285 c 2,3,-1
 444.5 223 l 1,4,-1
 206.5 223 l 1,5,6
 208.599609375 156 208.599609375 156 228.900390625 125.5 c 128,-1,7
 249.200195312 95 249.200195312 95 295.400390625 95 c 0,8,9
 350 95 350 95 375.200195312 140 c 1,10,-1
 441 73 l 1,11,12
 417.900390625 26 417.900390625 26 382.900390625 5.5 c 128,-1,13
 347.900390625 -15 347.900390625 -15 291.200195312 -15 c 0,14,15
 115.5 -15 115.5 -15 115.5 252 c 0,16,17
 115.5 527 115.5 527 287.700195312 527 c 0,0,1
357 310 m 1,18,19
 357 427 357 427 285.599609375 427 c 0,20,21
 247.099609375 427 247.099609375 427 231.349609375 399 c 128,-1,22
 215.599609375 371 215.599609375 371 208.599609375 310 c 1,23,-1
 357 310 l 1,18,19
293.299804688 590 m 1,24,-1
 223.299804688 590 l 1,25,-1
 287.700195312 766 l 1,26,-1
 395.5 766 l 1,27,-1
 293.299804688 590 l 1,24,-1
EndSplineSet
Validated: 524289
EndChar

StartChar: ecircumflex
Encoding: 234 234 173
Width: 474
GlyphClass: 1
Flags: W
LayerCount: 2
Fore
SplineSet
287.700195312 527 m 0,0,1
 365.400390625 527 365.400390625 527 404.950195312 464 c 128,-1,2
 444.5 401 444.5 401 444.5 285 c 2,3,-1
 444.5 223 l 1,4,-1
 206.5 223 l 1,5,6
 208.599609375 156 208.599609375 156 228.900390625 125.5 c 128,-1,7
 249.200195312 95 249.200195312 95 295.400390625 95 c 0,8,9
 350 95 350 95 375.200195312 140 c 1,10,-1
 441 73 l 1,11,12
 417.900390625 26 417.900390625 26 382.900390625 5.5 c 128,-1,13
 347.900390625 -15 347.900390625 -15 291.200195312 -15 c 0,14,15
 115.5 -15 115.5 -15 115.5 252 c 0,16,17
 115.5 527 115.5 527 287.700195312 527 c 0,0,1
357 310 m 1,18,19
 357 427 357 427 285.599609375 427 c 0,20,21
 247.099609375 427 247.099609375 427 231.349609375 399 c 128,-1,22
 215.599609375 371 215.599609375 371 208.599609375 310 c 1,23,-1
 357 310 l 1,18,19
335.299804688 590 m 1,24,-1
 285.599609375 675 l 1,25,-1
 234.5 590 l 1,26,-1
 163.099609375 590 l 1,27,-1
 243.599609375 766 l 1,28,-1
 326.900390625 766 l 1,29,-1
 407.400390625 590 l 1,30,-1
 335.299804688 590 l 1,24,-1
EndSplineSet
Validated: 524289
EndChar

StartChar: edieresis
Encoding: 235 235 174
Width: 474
GlyphClass: 1
Flags: W
LayerCount: 2
Fore
SplineSet
287.700195312 527 m 0,0,1
 365.400390625 527 365.400390625 527 404.950195312 464 c 128,-1,2
 444.5 401 444.5 401 444.5 285 c 2,3,-1
 444.5 223 l 1,4,-1
 206.5 223 l 1,5,6
 208.599609375 156 208.599609375 156 228.900390625 125.5 c 128,-1,7
 249.200195312 95 249.200195312 95 295.400390625 95 c 0,8,9
 350 95 350 95 375.200195312 140 c 1,10,-1
 441 73 l 1,11,12
 417.900390625 26 417.900390625 26 382.900390625 5.5 c 128,-1,13
 347.900390625 -15 347.900390625 -15 291.200195312 -15 c 0,14,15
 115.5 -15 115.5 -15 115.5 252 c 0,16,17
 115.5 527 115.5 527 287.700195312 527 c 0,0,1
357 310 m 1,18,19
 357 427 357 427 285.599609375 427 c 0,20,21
 247.099609375 427 247.099609375 427 231.349609375 399 c 128,-1,22
 215.599609375 371 215.599609375 371 208.599609375 310 c 1,23,-1
 357 310 l 1,18,19
359.099609375 716 m 0,24,25
 385.700195312 716 385.700195312 716 397.25 701.5 c 128,-1,26
 408.799804688 687 408.799804688 687 408.799804688 652 c 128,-1,27
 408.799804688 617 408.799804688 617 396.900390625 602.5 c 128,-1,28
 385 588 385 588 359.099609375 588 c 128,-1,29
 333.200195312 588 333.200195312 588 322 603 c 128,-1,30
 310.799804688 618 310.799804688 618 310.799804688 652 c 0,31,32
 310.799804688 687 310.799804688 687 322 701.5 c 128,-1,33
 333.200195312 716 333.200195312 716 359.099609375 716 c 0,24,25
207.200195312 716 m 0,34,35
 233.799804688 716 233.799804688 716 245.349609375 701.5 c 128,-1,36
 256.900390625 687 256.900390625 687 256.900390625 652 c 128,-1,37
 256.900390625 617 256.900390625 617 245 602.5 c 128,-1,38
 233.099609375 588 233.099609375 588 207.200195312 588 c 128,-1,39
 181.299804688 588 181.299804688 588 170.099609375 603 c 128,-1,40
 158.900390625 618 158.900390625 618 158.900390625 652 c 0,41,42
 158.900390625 687 158.900390625 687 170.099609375 701.5 c 128,-1,43
 181.299804688 716 181.299804688 716 207.200195312 716 c 0,34,35
EndSplineSet
Validated: 524289
EndChar

StartChar: igrave
Encoding: 236 236 175
Width: 216
GlyphClass: 1
Flags: W
LayerCount: 2
Fore
SplineSet
78.7998046875 0 m 1,0,-1
 78.7998046875 512 l 1,1,-1
 167 512 l 1,2,-1
 167 0 l 1,3,-1
 78.7998046875 0 l 1,0,-1
113.099609375 590 m 1,4,-1
 10.900390625 766 l 1,5,-1
 118.700195312 766 l 1,6,-1
 183.099609375 590 l 1,7,-1
 113.099609375 590 l 1,4,-1
EndSplineSet
Validated: 524289
EndChar

StartChar: iacute
Encoding: 237 237 176
Width: 243
GlyphClass: 1
Flags: W
LayerCount: 2
Fore
SplineSet
105.200195312 0 m 1,0,-1
 105.200195312 512 l 1,1,-1
 193.400390625 512 l 1,2,-1
 193.400390625 0 l 1,3,-1
 105.200195312 0 l 1,0,-1
168.900390625 590 m 1,4,-1
 98.900390625 590 l 1,5,-1
 163.299804688 766 l 1,6,-1
 271.099609375 766 l 1,7,-1
 168.900390625 590 l 1,4,-1
EndSplineSet
Validated: 524289
EndChar

StartChar: icircumflex
Encoding: 238 238 177
Width: 228
GlyphClass: 1
Flags: W
LayerCount: 2
Fore
SplineSet
90.349609375 0 m 1,0,-1
 90.349609375 512 l 1,1,-1
 178.549804688 512 l 1,2,-1
 178.549804688 0 l 1,3,-1
 90.349609375 0 l 1,0,-1
185.549804688 590 m 1,4,-1
 135.849609375 675 l 1,5,-1
 84.75 590 l 1,6,-1
 13.349609375 590 l 1,7,-1
 93.849609375 766 l 1,8,-1
 177.150390625 766 l 1,9,-1
 257.650390625 590 l 1,10,-1
 185.549804688 590 l 1,4,-1
EndSplineSet
Validated: 524289
EndChar

StartChar: idieresis
Encoding: 239 239 178
Width: 227
GlyphClass: 1
Flags: W
LayerCount: 2
Fore
SplineSet
89.75 0 m 1,0,-1
 89.75 512 l 1,1,-1
 177.950195312 512 l 1,2,-1
 177.950195312 0 l 1,3,-1
 89.75 0 l 1,0,-1
208.75 716 m 0,4,5
 235.349609375 716 235.349609375 716 246.900390625 701.5 c 128,-1,6
 258.450195312 687 258.450195312 687 258.450195312 652 c 128,-1,7
 258.450195312 617 258.450195312 617 246.549804688 602.5 c 128,-1,8
 234.650390625 588 234.650390625 588 208.75 588 c 128,-1,9
 182.849609375 588 182.849609375 588 171.650390625 603 c 128,-1,10
 160.450195312 618 160.450195312 618 160.450195312 652 c 0,11,12
 160.450195312 687 160.450195312 687 171.650390625 701.5 c 128,-1,13
 182.849609375 716 182.849609375 716 208.75 716 c 0,4,5
56.849609375 716 m 0,14,15
 83.4501953125 716 83.4501953125 716 95 701.5 c 128,-1,16
 106.549804688 687 106.549804688 687 106.549804688 652 c 128,-1,17
 106.549804688 617 106.549804688 617 94.650390625 602.5 c 128,-1,18
 82.75 588 82.75 588 56.849609375 588 c 128,-1,19
 30.9501953125 588 30.9501953125 588 19.75 603 c 128,-1,20
 8.5498046875 618 8.5498046875 618 8.5498046875 652 c 0,21,22
 8.5498046875 687 8.5498046875 687 19.75 701.5 c 128,-1,23
 30.9501953125 716 30.9501953125 716 56.849609375 716 c 0,14,15
EndSplineSet
Validated: 524289
EndChar

StartChar: eth
Encoding: 240 240 179
Width: 493
GlyphClass: 1
Flags: W
LayerCount: 2
Fore
SplineSet
352.450195312 643 m 1,0,1
 399.349609375 573 399.349609375 573 430.849609375 469.5 c 128,-1,2
 462.349609375 366 462.349609375 366 462.349609375 255 c 0,3,4
 462.349609375 126 462.349609375 126 419.299804688 55.5 c 128,-1,5
 376.25 -15 376.25 -15 290.849609375 -15 c 0,6,7
 118.650390625 -15 118.650390625 -15 118.650390625 254 c 0,8,9
 118.650390625 331 118.650390625 331 137.900390625 390.5 c 128,-1,10
 157.150390625 450 157.150390625 450 191.450195312 481 c 0,11,12
 226.450195312 512 226.450195312 512 272.650390625 512 c 0,13,14
 288.75 512 288.75 512 306.950195312 502 c 128,-1,15
 325.150390625 492 325.150390625 492 337.049804688 479 c 1,16,17
 332.150390625 499 332.150390625 499 313.25 541 c 128,-1,18
 294.349609375 583 294.349609375 583 283.849609375 602 c 1,19,-1
 206.849609375 556 l 1,20,-1
 183.75 629 l 1,21,-1
 245.349609375 666 l 1,22,23
 233.450195312 689 233.450195312 689 182.349609375 742 c 1,24,-1
 276.150390625 742 l 1,25,26
 292.950195312 728 292.950195312 728 309.75 704 c 1,27,-1
 373.450195312 742 l 1,28,-1
 397.25 670 l 1,29,-1
 352.450195312 643 l 1,0,1
290.849609375 95 m 128,-1,31
 335.650390625 95 335.650390625 95 353.5 136 c 128,-1,32
 371.349609375 177 371.349609375 177 371.349609375 255 c 0,33,34
 371.349609375 403 371.349609375 403 290.150390625 403 c 0,35,36
 209.650390625 403 209.650390625 403 209.650390625 254 c 0,37,38
 209.650390625 177 209.650390625 177 227.849609375 136 c 128,-1,30
 246.049804688 95 246.049804688 95 290.849609375 95 c 128,-1,31
EndSplineSet
Validated: 524289
EndChar

StartChar: ntilde
Encoding: 241 241 180
Width: 505
GlyphClass: 1
Flags: W
LayerCount: 2
Fore
SplineSet
349.400390625 527 m 0,0,1
 408.200195312 527 408.200195312 527 433.400390625 481.5 c 128,-1,2
 458.599609375 436 458.599609375 436 458.599609375 342 c 2,3,-1
 458.599609375 0 l 1,4,-1
 370.400390625 0 l 1,5,-1
 370.400390625 282 l 2,6,7
 370.400390625 362 370.400390625 362 360.25 389 c 128,-1,8
 350.099609375 416 350.099609375 416 322.099609375 416 c 0,9,10
 282.900390625 416 282.900390625 416 227.599609375 342 c 1,11,-1
 227.599609375 0 l 1,12,-1
 139.400390625 0 l 1,13,-1
 139.400390625 512 l 1,14,-1
 227.599609375 512 l 1,15,-1
 227.599609375 446 l 1,16,17
 284.299804688 527 284.299804688 527 349.400390625 527 c 0,0,1
436.200195312 749 m 1,18,19
 432.700195312 673 432.700195312 673 412.049804688 632.5 c 128,-1,20
 391.400390625 592 391.400390625 592 345.900390625 592 c 0,21,22
 336.099609375 592 336.099609375 592 326.650390625 595 c 128,-1,23
 317.200195312 598 317.200195312 598 310.900390625 601.5 c 128,-1,24
 304.599609375 605 304.599609375 605 296.549804688 612.5 c 128,-1,25
 288.5 620 288.5 620 285 624 c 128,-1,26
 281.5 628 281.5 628 273.099609375 638.5 c 128,-1,27
 264.700195312 649 264.700195312 649 262.599609375 652 c 0,28,29
 253.5 663 253.5 663 242.299804688 663 c 0,30,31
 219.200195312 663 219.200195312 663 219.200195312 601 c 1,32,-1
 156.900390625 601 l 1,33,34
 158.299804688 673 158.299804688 673 180.349609375 714.5 c 128,-1,35
 202.400390625 756 202.400390625 756 246.5 756 c 0,36,37
 276.599609375 756 276.599609375 756 308.099609375 722 c 0,38,39
 320 709 320 709 329.799804688 698 c 128,-1,40
 339.599609375 687 339.599609375 687 350.799804688 687 c 0,41,42
 373.900390625 687 373.900390625 687 373.900390625 749 c 1,43,-1
 436.200195312 749 l 1,18,19
EndSplineSet
Validated: 524289
EndChar

StartChar: ograve
Encoding: 242 242 181
Width: 493
GlyphClass: 1
Flags: W
LayerCount: 2
Fore
SplineSet
290.849609375 527 m 0,0,1
 462.349609375 527 462.349609375 527 462.349609375 255 c 0,2,3
 462.349609375 -15 462.349609375 -15 290.849609375 -15 c 0,4,5
 118.650390625 -15 118.650390625 -15 118.650390625 255 c 0,6,7
 118.650390625 527 118.650390625 527 290.849609375 527 c 0,0,1
290.849609375 95 m 0,8,9
 335.650390625 95 335.650390625 95 353.5 135.5 c 128,-1,10
 371.349609375 176 371.349609375 176 371.349609375 255 c 0,11,12
 371.349609375 336 371.349609375 336 353.849609375 376.5 c 128,-1,13
 336.349609375 417 336.349609375 417 290.849609375 417 c 128,-1,14
 245.349609375 417 245.349609375 417 227.5 375.5 c 128,-1,15
 209.650390625 334 209.650390625 334 209.650390625 255 c 128,-1,16
 209.650390625 176 209.650390625 176 227.5 135.5 c 128,-1,17
 245.349609375 95 245.349609375 95 290.849609375 95 c 0,8,9
281.049804688 590 m 1,18,-1
 178.849609375 766 l 1,19,-1
 286.650390625 766 l 1,20,-1
 351.049804688 590 l 1,21,-1
 281.049804688 590 l 1,18,-1
EndSplineSet
Validated: 524289
EndChar

StartChar: oacute
Encoding: 243 243 182
Width: 493
GlyphClass: 1
Flags: W
LayerCount: 2
Fore
SplineSet
290.849609375 527 m 0,0,1
 462.349609375 527 462.349609375 527 462.349609375 255 c 0,2,3
 462.349609375 -15 462.349609375 -15 290.849609375 -15 c 0,4,5
 118.650390625 -15 118.650390625 -15 118.650390625 255 c 0,6,7
 118.650390625 527 118.650390625 527 290.849609375 527 c 0,0,1
290.849609375 95 m 0,8,9
 335.650390625 95 335.650390625 95 353.5 135.5 c 128,-1,10
 371.349609375 176 371.349609375 176 371.349609375 255 c 0,11,12
 371.349609375 336 371.349609375 336 353.849609375 376.5 c 128,-1,13
 336.349609375 417 336.349609375 417 290.849609375 417 c 128,-1,14
 245.349609375 417 245.349609375 417 227.5 375.5 c 128,-1,15
 209.650390625 334 209.650390625 334 209.650390625 255 c 128,-1,16
 209.650390625 176 209.650390625 176 227.5 135.5 c 128,-1,17
 245.349609375 95 245.349609375 95 290.849609375 95 c 0,8,9
303.450195312 590 m 1,18,-1
 233.450195312 590 l 1,19,-1
 297.849609375 766 l 1,20,-1
 405.650390625 766 l 1,21,-1
 303.450195312 590 l 1,18,-1
EndSplineSet
Validated: 524289
EndChar

StartChar: ocircumflex
Encoding: 244 244 183
Width: 493
GlyphClass: 1
Flags: W
LayerCount: 2
Fore
SplineSet
290.849609375 527 m 0,0,1
 462.349609375 527 462.349609375 527 462.349609375 255 c 0,2,3
 462.349609375 -15 462.349609375 -15 290.849609375 -15 c 0,4,5
 118.650390625 -15 118.650390625 -15 118.650390625 255 c 0,6,7
 118.650390625 527 118.650390625 527 290.849609375 527 c 0,0,1
290.849609375 95 m 0,8,9
 335.650390625 95 335.650390625 95 353.5 135.5 c 128,-1,10
 371.349609375 176 371.349609375 176 371.349609375 255 c 0,11,12
 371.349609375 336 371.349609375 336 353.849609375 376.5 c 128,-1,13
 336.349609375 417 336.349609375 417 290.849609375 417 c 128,-1,14
 245.349609375 417 245.349609375 417 227.5 375.5 c 128,-1,15
 209.650390625 334 209.650390625 334 209.650390625 255 c 128,-1,16
 209.650390625 176 209.650390625 176 227.5 135.5 c 128,-1,17
 245.349609375 95 245.349609375 95 290.849609375 95 c 0,8,9
341.950195312 590 m 1,18,-1
 292.25 675 l 1,19,-1
 241.150390625 590 l 1,20,-1
 169.75 590 l 1,21,-1
 250.25 766 l 1,22,-1
 333.549804688 766 l 1,23,-1
 414.049804688 590 l 1,24,-1
 341.950195312 590 l 1,18,-1
EndSplineSet
Validated: 524289
EndChar

StartChar: otilde
Encoding: 245 245 184
Width: 493
GlyphClass: 1
Flags: W
LayerCount: 2
Fore
SplineSet
290.849609375 527 m 0,0,1
 462.349609375 527 462.349609375 527 462.349609375 255 c 0,2,3
 462.349609375 -15 462.349609375 -15 290.849609375 -15 c 0,4,5
 118.650390625 -15 118.650390625 -15 118.650390625 255 c 0,6,7
 118.650390625 527 118.650390625 527 290.849609375 527 c 0,0,1
290.849609375 95 m 0,8,9
 335.650390625 95 335.650390625 95 353.5 135.5 c 128,-1,10
 371.349609375 176 371.349609375 176 371.349609375 255 c 0,11,12
 371.349609375 336 371.349609375 336 353.849609375 376.5 c 128,-1,13
 336.349609375 417 336.349609375 417 290.849609375 417 c 128,-1,14
 245.349609375 417 245.349609375 417 227.5 375.5 c 128,-1,15
 209.650390625 334 209.650390625 334 209.650390625 255 c 128,-1,16
 209.650390625 176 209.650390625 176 227.5 135.5 c 128,-1,17
 245.349609375 95 245.349609375 95 290.849609375 95 c 0,8,9
431.549804688 749 m 1,18,19
 428.049804688 673 428.049804688 673 407.400390625 632.5 c 128,-1,20
 386.75 592 386.75 592 341.25 592 c 0,21,22
 331.450195312 592 331.450195312 592 322 595 c 128,-1,23
 312.549804688 598 312.549804688 598 306.25 601.5 c 128,-1,24
 299.950195312 605 299.950195312 605 291.900390625 612.5 c 128,-1,25
 283.849609375 620 283.849609375 620 280.349609375 624 c 128,-1,26
 276.849609375 628 276.849609375 628 268.450195312 638.5 c 128,-1,27
 260.049804688 649 260.049804688 649 257.950195312 652 c 0,28,29
 248.849609375 663 248.849609375 663 237.650390625 663 c 0,30,31
 214.549804688 663 214.549804688 663 214.549804688 601 c 1,32,-1
 152.25 601 l 1,33,34
 153.650390625 673 153.650390625 673 175.700195312 714.5 c 128,-1,35
 197.75 756 197.75 756 241.849609375 756 c 0,36,37
 271.950195312 756 271.950195312 756 304.150390625 722 c 0,38,39
 315.349609375 709 315.349609375 709 325.150390625 698 c 128,-1,40
 334.950195312 687 334.950195312 687 346.150390625 687 c 0,41,42
 369.25 687 369.25 687 369.25 749 c 1,43,-1
 431.549804688 749 l 1,18,19
EndSplineSet
Validated: 524289
EndChar

StartChar: odieresis
Encoding: 246 246 185
Width: 493
GlyphClass: 1
Flags: W
LayerCount: 2
Fore
SplineSet
290.849609375 527 m 0,0,1
 462.349609375 527 462.349609375 527 462.349609375 255 c 0,2,3
 462.349609375 -15 462.349609375 -15 290.849609375 -15 c 0,4,5
 118.650390625 -15 118.650390625 -15 118.650390625 255 c 0,6,7
 118.650390625 527 118.650390625 527 290.849609375 527 c 0,0,1
290.849609375 95 m 0,8,9
 335.650390625 95 335.650390625 95 353.5 135.5 c 128,-1,10
 371.349609375 176 371.349609375 176 371.349609375 255 c 0,11,12
 371.349609375 336 371.349609375 336 353.849609375 376.5 c 128,-1,13
 336.349609375 417 336.349609375 417 290.849609375 417 c 128,-1,14
 245.349609375 417 245.349609375 417 227.5 375.5 c 128,-1,15
 209.650390625 334 209.650390625 334 209.650390625 255 c 128,-1,16
 209.650390625 176 209.650390625 176 227.5 135.5 c 128,-1,17
 245.349609375 95 245.349609375 95 290.849609375 95 c 0,8,9
365.75 716 m 0,18,19
 392.349609375 716 392.349609375 716 403.900390625 701.5 c 128,-1,20
 415.450195312 687 415.450195312 687 415.450195312 652 c 128,-1,21
 415.450195312 617 415.450195312 617 403.549804688 602.5 c 128,-1,22
 391.650390625 588 391.650390625 588 365.75 588 c 128,-1,23
 339.849609375 588 339.849609375 588 328.650390625 603 c 128,-1,24
 317.450195312 618 317.450195312 618 317.450195312 652 c 0,25,26
 317.450195312 687 317.450195312 687 328.650390625 701.5 c 128,-1,27
 339.849609375 716 339.849609375 716 365.75 716 c 0,18,19
213.849609375 716 m 0,28,29
 240.450195312 716 240.450195312 716 252 701.5 c 128,-1,30
 263.549804688 687 263.549804688 687 263.549804688 652 c 128,-1,31
 263.549804688 617 263.549804688 617 251.650390625 602.5 c 128,-1,32
 239.75 588 239.75 588 213.849609375 588 c 128,-1,33
 187.950195312 588 187.950195312 588 176.75 603 c 128,-1,34
 165.549804688 618 165.549804688 618 165.549804688 652 c 0,35,36
 165.549804688 687 165.549804688 687 176.75 701.5 c 128,-1,37
 187.950195312 716 187.950195312 716 213.849609375 716 c 0,28,29
EndSplineSet
Validated: 524289
EndChar

StartChar: divide
Encoding: 247 247 186
Width: 591
GlyphClass: 1
Flags: W
LayerCount: 2
Fore
SplineSet
306.849609375 445 m 1,0,-1
 306.849609375 568 l 1,1,-1
 390.849609375 568 l 1,2,-1
 390.849609375 445 l 1,3,-1
 306.849609375 445 l 1,0,-1
150.049804688 234 m 1,4,-1
 150.049804688 334 l 1,5,-1
 546.950195312 334 l 1,6,-1
 546.950195312 234 l 1,7,-1
 150.049804688 234 l 1,4,-1
306.849609375 1 m 1,8,-1
 306.849609375 124 l 1,9,-1
 390.849609375 124 l 1,10,-1
 390.849609375 1 l 1,11,-1
 306.849609375 1 l 1,8,-1
EndSplineSet
Validated: 524289
EndChar

StartChar: oslash
Encoding: 248 248 187
Width: 493
GlyphClass: 1
Flags: W
LayerCount: 2
Fore
SplineSet
462.349609375 255 m 0,0,1
 462.349609375 -15 462.349609375 -15 290.849609375 -15 c 0,2,3
 241.849609375 -15 241.849609375 -15 206.150390625 7 c 1,4,-1
 185.849609375 -37 l 1,5,-1
 123.549804688 -37 l 1,6,-1
 163.450195312 49 l 1,7,8
 118.650390625 118 118.650390625 118 118.650390625 255 c 0,9,10
 118.650390625 527 118.650390625 527 290.849609375 527 c 0,11,12
 339.150390625 527 339.150390625 527 374.849609375 504 c 1,13,-1
 395.849609375 549 l 1,14,-1
 458.150390625 549 l 1,15,-1
 417.549804688 461 l 1,16,17
 462.349609375 390 462.349609375 390 462.349609375 255 c 0,0,1
290.849609375 417 m 0,18,19
 245.349609375 417 245.349609375 417 227.5 376 c 128,-1,20
 209.650390625 335 209.650390625 335 209.650390625 255 c 0,21,22
 209.650390625 205 209.650390625 205 217.349609375 165 c 1,23,-1
 329.349609375 406 l 1,24,25
 313.950195312 417 313.950195312 417 290.849609375 417 c 0,18,19
290.849609375 95 m 0,26,27
 335.650390625 95 335.650390625 95 353.5 135.5 c 128,-1,28
 371.349609375 176 371.349609375 176 371.349609375 255 c 0,29,30
 371.349609375 308 371.349609375 308 363.650390625 345 c 1,31,-1
 252.349609375 105 l 1,32,33
 268.450195312 95 268.450195312 95 290.849609375 95 c 0,26,27
EndSplineSet
Validated: 524289
EndChar

StartChar: ugrave
Encoding: 249 249 188
Width: 504
GlyphClass: 1
Flags: W
LayerCount: 2
Fore
SplineSet
244.599609375 -15 m 0,0,1
 185.099609375 -15 185.099609375 -15 160.25 31.5 c 128,-1,2
 135.400390625 78 135.400390625 78 135.400390625 170 c 2,3,-1
 135.400390625 512 l 1,4,-1
 223.599609375 512 l 1,5,-1
 223.599609375 230 l 2,6,7
 223.599609375 200 223.599609375 200 223.950195312 186.5 c 128,-1,8
 224.299804688 173 224.299804688 173 226.75 151.5 c 128,-1,9
 229.200195312 130 229.200195312 130 234.099609375 120.5 c 128,-1,10
 239 111 239 111 248.450195312 103.5 c 128,-1,11
 257.900390625 96 257.900390625 96 271.900390625 96 c 0,12,13
 311.099609375 96 311.099609375 96 366.400390625 170 c 1,14,-1
 366.400390625 512 l 1,15,-1
 454.599609375 512 l 1,16,-1
 454.599609375 0 l 1,17,-1
 366.400390625 0 l 1,18,-1
 366.400390625 66 l 1,19,20
 345.400390625 33 345.400390625 33 312.150390625 9 c 128,-1,21
 278.900390625 -15 278.900390625 -15 244.599609375 -15 c 0,0,1
286.599609375 590 m 1,22,-1
 184.400390625 766 l 1,23,-1
 292.200195312 766 l 1,24,-1
 356.599609375 590 l 1,25,-1
 286.599609375 590 l 1,22,-1
EndSplineSet
Validated: 524289
EndChar

StartChar: uacute
Encoding: 250 250 189
Width: 504
GlyphClass: 1
Flags: W
LayerCount: 2
Fore
SplineSet
244.599609375 -15 m 0,0,1
 185.099609375 -15 185.099609375 -15 160.25 31.5 c 128,-1,2
 135.400390625 78 135.400390625 78 135.400390625 170 c 2,3,-1
 135.400390625 512 l 1,4,-1
 223.599609375 512 l 1,5,-1
 223.599609375 230 l 2,6,7
 223.599609375 200 223.599609375 200 223.950195312 186.5 c 128,-1,8
 224.299804688 173 224.299804688 173 226.75 151.5 c 128,-1,9
 229.200195312 130 229.200195312 130 234.099609375 120.5 c 128,-1,10
 239 111 239 111 248.450195312 103.5 c 128,-1,11
 257.900390625 96 257.900390625 96 271.900390625 96 c 0,12,13
 311.099609375 96 311.099609375 96 366.400390625 170 c 1,14,-1
 366.400390625 512 l 1,15,-1
 454.599609375 512 l 1,16,-1
 454.599609375 0 l 1,17,-1
 366.400390625 0 l 1,18,-1
 366.400390625 66 l 1,19,20
 345.400390625 33 345.400390625 33 312.150390625 9 c 128,-1,21
 278.900390625 -15 278.900390625 -15 244.599609375 -15 c 0,0,1
309 590 m 1,22,-1
 239 590 l 1,23,-1
 303.400390625 766 l 1,24,-1
 411.200195312 766 l 1,25,-1
 309 590 l 1,22,-1
EndSplineSet
Validated: 524289
EndChar

StartChar: ucircumflex
Encoding: 251 251 190
Width: 504
GlyphClass: 1
Flags: W
LayerCount: 2
Fore
SplineSet
244.599609375 -15 m 0,0,1
 185.099609375 -15 185.099609375 -15 160.25 31.5 c 128,-1,2
 135.400390625 78 135.400390625 78 135.400390625 170 c 2,3,-1
 135.400390625 512 l 1,4,-1
 223.599609375 512 l 1,5,-1
 223.599609375 230 l 2,6,7
 223.599609375 200 223.599609375 200 223.950195312 186.5 c 128,-1,8
 224.299804688 173 224.299804688 173 226.75 151.5 c 128,-1,9
 229.200195312 130 229.200195312 130 234.099609375 120.5 c 128,-1,10
 239 111 239 111 248.450195312 103.5 c 128,-1,11
 257.900390625 96 257.900390625 96 271.900390625 96 c 0,12,13
 311.099609375 96 311.099609375 96 366.400390625 170 c 1,14,-1
 366.400390625 512 l 1,15,-1
 454.599609375 512 l 1,16,-1
 454.599609375 0 l 1,17,-1
 366.400390625 0 l 1,18,-1
 366.400390625 66 l 1,19,20
 345.400390625 33 345.400390625 33 312.150390625 9 c 128,-1,21
 278.900390625 -15 278.900390625 -15 244.599609375 -15 c 0,0,1
344 590 m 1,22,-1
 294.299804688 675 l 1,23,-1
 243.200195312 590 l 1,24,-1
 171.799804688 590 l 1,25,-1
 252.299804688 766 l 1,26,-1
 335.599609375 766 l 1,27,-1
 416.099609375 590 l 1,28,-1
 344 590 l 1,22,-1
EndSplineSet
Validated: 524289
EndChar

StartChar: udieresis
Encoding: 252 252 191
Width: 504
GlyphClass: 1
Flags: W
LayerCount: 2
Fore
SplineSet
244.599609375 -15 m 0,0,1
 185.099609375 -15 185.099609375 -15 160.25 31.5 c 128,-1,2
 135.400390625 78 135.400390625 78 135.400390625 170 c 2,3,-1
 135.400390625 512 l 1,4,-1
 223.599609375 512 l 1,5,-1
 223.599609375 230 l 2,6,7
 223.599609375 200 223.599609375 200 223.950195312 186.5 c 128,-1,8
 224.299804688 173 224.299804688 173 226.75 151.5 c 128,-1,9
 229.200195312 130 229.200195312 130 234.099609375 120.5 c 128,-1,10
 239 111 239 111 248.450195312 103.5 c 128,-1,11
 257.900390625 96 257.900390625 96 271.900390625 96 c 0,12,13
 311.099609375 96 311.099609375 96 366.400390625 170 c 1,14,-1
 366.400390625 512 l 1,15,-1
 454.599609375 512 l 1,16,-1
 454.599609375 0 l 1,17,-1
 366.400390625 0 l 1,18,-1
 366.400390625 66 l 1,19,20
 345.400390625 33 345.400390625 33 312.150390625 9 c 128,-1,21
 278.900390625 -15 278.900390625 -15 244.599609375 -15 c 0,0,1
367.799804688 716 m 0,22,23
 394.400390625 716 394.400390625 716 405.950195312 701.5 c 128,-1,24
 417.5 687 417.5 687 417.5 652 c 128,-1,25
 417.5 617 417.5 617 405.599609375 602.5 c 128,-1,26
 393.700195312 588 393.700195312 588 367.799804688 588 c 128,-1,27
 341.900390625 588 341.900390625 588 330.700195312 603 c 128,-1,28
 319.5 618 319.5 618 319.5 652 c 0,29,30
 319.5 687 319.5 687 330.700195312 701.5 c 128,-1,31
 341.900390625 716 341.900390625 716 367.799804688 716 c 0,22,23
215.900390625 716 m 0,32,33
 242.5 716 242.5 716 254.049804688 701.5 c 128,-1,34
 265.599609375 687 265.599609375 687 265.599609375 652 c 128,-1,35
 265.599609375 617 265.599609375 617 253.700195312 602.5 c 128,-1,36
 241.799804688 588 241.799804688 588 215.900390625 588 c 128,-1,37
 190 588 190 588 178.799804688 603 c 128,-1,38
 167.599609375 618 167.599609375 618 167.599609375 652 c 0,39,40
 167.599609375 687 167.599609375 687 178.799804688 701.5 c 128,-1,41
 190 716 190 716 215.900390625 716 c 0,32,33
EndSplineSet
Validated: 524289
EndChar

StartChar: yacute
Encoding: 253 253 192
Width: 446
GlyphClass: 1
Flags: W
LayerCount: 2
Fore
SplineSet
87.9501953125 -69 m 1,0,1
 116.650390625 -83 116.650390625 -83 139.75 -83 c 0,2,3
 159.349609375 -83 159.349609375 -83 174.400390625 -66 c 128,-1,4
 189.450195312 -49 189.450195312 -49 205.549804688 5 c 2,5,-1
 214.650390625 35 l 1,6,-1
 85.150390625 512 l 1,7,-1
 176.849609375 512 l 1,8,-1
 261.549804688 185 l 1,9,-1
 348.349609375 512 l 1,10,-1
 437.950195312 512 l 1,11,-1
 283.950195312 -35 l 2,12,13
 265.049804688 -101 265.049804688 -101 246.849609375 -133 c 0,14,15
 229.349609375 -164 229.349609375 -164 206.25 -178.5 c 128,-1,16
 183.150390625 -193 183.150390625 -193 146.049804688 -193 c 0,17,18
 106.849609375 -193 106.849609375 -193 69.0498046875 -178 c 1,19,-1
 87.9501953125 -69 l 1,0,1
272.049804688 590 m 1,20,-1
 202.049804688 590 l 1,21,-1
 266.450195312 766 l 1,22,-1
 374.25 766 l 1,23,-1
 272.049804688 590 l 1,20,-1
EndSplineSet
Validated: 524289
EndChar

StartChar: thorn
Encoding: 254 254 193
Width: 508
GlyphClass: 1
Flags: W
LayerCount: 2
Fore
SplineSet
338.700195312 527 m 0,0,1
 375.099609375 527 375.099609375 527 402.400390625 507 c 128,-1,2
 429.700195312 487 429.700195312 487 445.799804688 450.5 c 128,-1,3
 461.900390625 414 461.900390625 414 469.599609375 366.5 c 128,-1,4
 477.299804688 319 477.299804688 319 477.299804688 260 c 0,5,6
 477.299804688 178 477.299804688 178 459.799804688 114.5 c 128,-1,7
 442.299804688 51 442.299804688 51 409.75 18 c 128,-1,8
 377.200195312 -15 377.200195312 -15 332.400390625 -15 c 0,9,10
 272.900390625 -15 272.900390625 -15 230.900390625 38 c 1,11,-1
 230.900390625 -193 l 1,12,-1
 142.700195312 -193 l 1,13,-1
 142.700195312 727 l 1,14,-1
 230.900390625 727 l 1,15,-1
 230.900390625 467 l 1,16,17
 274.299804688 527 274.299804688 527 338.700195312 527 c 0,0,1
307.900390625 96 m 0,18,19
 346.400390625 96 346.400390625 96 366.349609375 142.5 c 128,-1,20
 386.299804688 189 386.299804688 189 386.299804688 258 c 0,21,22
 386.299804688 329 386.299804688 329 369.5 372.5 c 128,-1,23
 352.700195312 416 352.700195312 416 314.200195312 416 c 0,24,25
 291.799804688 416 291.799804688 416 269.049804688 401 c 128,-1,26
 246.299804688 386 246.299804688 386 230.900390625 366 c 1,27,-1
 230.900390625 142 l 1,28,29
 266.599609375 96 266.599609375 96 307.900390625 96 c 0,18,19
EndSplineSet
Validated: 524289
EndChar

